SplineFontDB: 3.2
FontName: IRShiraz
FullName: IRShiraz
FamilyName: IRShiraz
Weight: Book
Copyright: Copyright (c) 2022, Information Technology Organization of Iran (ito.gov.ir)
Version: 1.001
ItalicAngle: 0
UnderlinePosition: -100
UnderlineWidth: 60
Ascent: 1638
Descent: 410
InvalidEm: 0
sfntRevision: 0x00010042
LayerCount: 2
Layer: 0 1 "Back" 1
Layer: 1 1 "Fore" 0
XUID: [1021 420 722297922 11365708]
StyleMap: 0x0040
FSType: 0
OS2Version: 3
OS2_WeightWidthSlopeOnly: 0
OS2_UseTypoMetrics: 0
CreationTime: 1356351312
ModificationTime: 1662630492
PfmFamily: 17
TTFWeight: 400
TTFWidth: 5
LineGap: 100
VLineGap: 0
Panose: 2 0 5 3 0 0 0 2 0 2
OS2TypoAscent: 1406
OS2TypoAOffset: 0
OS2TypoDescent: -1236
OS2TypoDOffset: 0
OS2TypoLinegap: 1500
OS2WinAscent: 1406
OS2WinAOffset: 0
OS2WinDescent: 1236
OS2WinDOffset: 0
HheadAscent: 1406
HheadAOffset: 0
HheadDescent: -1236
HheadDOffset: 0
OS2SubXSize: 1434
OS2SubYSize: 1331
OS2SubXOff: 0
OS2SubYOff: 293
OS2SupXSize: 1434
OS2SupYSize: 1331
OS2SupXOff: 0
OS2SupYOff: 930
OS2StrikeYSize: 50
OS2StrikeYPos: 250
OS2CapHeight: 1412
OS2XHeight: 642
OS2FamilyClass: 2048
OS2Vendor: 'PARS'
OS2CodePages: 20000041.00000000
OS2UnicodeRanges: 00002003.00000000.00000000.00000000
Lookup: 1 1 0 "'isol' Isolated Forms in Arabic lookup 0" { "'isol' Isolated Forms in Arabic lookup 0 subtable"  } ['isol' ('arab' <'dflt' > ) ]
Lookup: 1 1 0 "'init' Initial Forms in Arabic lookup 1" { "'init' Initial Forms in Arabic lookup 1 subtable"  } ['init' ('arab' <'dflt' > ) ]
Lookup: 1 1 0 "'fina' Terminal Forms in Arabic lookup 2" { "'fina' Terminal Forms in Arabic lookup 2 subtable"  } ['fina' ('arab' <'dflt' > ) ]
Lookup: 1 1 0 "'medi' Medial Forms in Arabic lookup 3" { "'medi' Medial Forms in Arabic lookup 3 subtable"  } ['medi' ('arab' <'dflt' > ) ]
Lookup: 4 1 0 "'ccmp' Glyph Composition/Decomposition in Arabic lookup 4" { "'ccmp' Glyph Composition/Decomposition in Arabic lookup 4 subtable"  } ['ccmp' ('arab' <'dflt' > ) ]

StartChar: quotedbl
Encoding: 34 34 4
Width: 529
Flags: W
LayerCount: 2
Fore
SplineSet
131 891 m 1,0,-1
 218 891 l 1,1,-1
 200 615 l 1,2,-1
 141 615 l 1,3,-1
 131 891 l 1,0,-1
313 891 m 1,4,-1
 400 891 l 1,5,-1
 382 615 l 1,6,-1
 324 615 l 1,7,-1
 313 891 l 1,4,-1
EndSplineSet
EndChar

StartChar: quotesingle
Encoding: 39 39 5
Width: 296
Flags: W
LayerCount: 2
Fore
SplineSet
109 891 m 1,0,-1
 196 891 l 1,1,-1
 178 615 l 1,2,-1
 120 615 l 1,3,-1
 109 891 l 1,0,-1
EndSplineSet
EndChar

StartChar: asterisk
Encoding: 42 42 6
Width: 1126
Flags: W
LayerCount: 2
Fore
SplineSet
568 347 m 1,0,-1
 574 687 l 1,1,-1
 355 467 l 1,2,-1
 250 467 l 1,3,-1
 527 746 l 1,4,-1
 203 746 l 1,5,-1
 223 839 l 1,6,-1
 547 839 l 1,7,-1
 277 1104 l 1,8,-1
 370 1104 l 1,9,-1
 579 899 l 1,10,-1
 585 1199 l 1,11,-1
 704 1239 l 1,12,-1
 699 912 l 1,13,-1
 905 1104 l 1,14,-1
 1013 1104 l 1,15,-1
 730 839 l 1,16,-1
 1065 839 l 1,17,-1
 1043 746 l 1,18,-1
 729 746 l 1,19,-1
 1002 467 l 1,20,-1
 910 467 l 1,21,-1
 696 687 l 1,22,-1
 688 386 l 1,23,-1
 568 347 l 1,0,-1
EndSplineSet
EndChar

StartChar: plus
Encoding: 43 43 7
Width: 838
GlyphClass: 2
Flags: W
LayerCount: 2
Fore
SplineSet
367 81 m 1,0,-1
 367 333 l 1,1,-1
 115 333 l 1,2,-1
 115 416 l 1,3,-1
 367 416 l 1,4,-1
 367 667 l 1,5,-1
 450 667 l 1,6,-1
 450 416 l 1,7,-1
 701 416 l 1,8,-1
 701 333 l 1,9,-1
 450 333 l 1,10,-1
 450 81 l 1,11,-1
 367 81 l 1,0,-1
EndSplineSet
EndChar

StartChar: hyphen
Encoding: 45 45 8
Width: 831
Flags: W
LayerCount: 2
Fore
SplineSet
115 333 m 1,0,-1
 115 416 l 1,1,-1
 701 416 l 1,2,-1
 701 333 l 1,3,-1
 115 333 l 1,0,-1
EndSplineSet
EndChar

StartChar: period
Encoding: 46 46 9
Width: 447
GlyphClass: 2
Flags: W
LayerCount: 2
Fore
SplineSet
384 90 m 0,0,1
 384 49 384 49 357 21.5 c 128,-1,2
 330 -6 330 -6 289 -6 c 0,3,4
 249 -6 249 -6 222 21.5 c 128,-1,5
 195 49 195 49 195 90 c 0,6,7
 195 129 195 129 222.5 156.5 c 128,-1,8
 250 184 250 184 289 184 c 0,9,10
 329 184 329 184 356.5 156.5 c 128,-1,11
 384 129 384 129 384 90 c 0,0,1
EndSplineSet
EndChar

StartChar: slash
Encoding: 47 47 10
Width: 423
Flags: W
LayerCount: 2
Fore
SplineSet
378 1119 m 1,0,-1
 112 -93 l 1,1,-1
 43 -93 l 1,2,-1
 310 1119 l 1,3,-1
 378 1119 l 1,0,-1
EndSplineSet
EndChar

StartChar: less
Encoding: 60 60 11
Width: 794
Flags: W
LayerCount: 2
Fore
SplineSet
43 294 m 1,0,-1
 43 410 l 1,1,-1
 750 722 l 1,2,-1
 750 587 l 1,3,-1
 214 352 l 1,4,-1
 750 117 l 1,5,-1
 750 -17 l 1,6,-1
 43 294 l 1,0,-1
EndSplineSet
EndChar

StartChar: equal
Encoding: 61 61 12
Width: 831
Flags: W
LayerCount: 2
Fore
SplineSet
690 224 m 1,0,-1
 118 224 l 1,1,-1
 118 326 l 1,2,-1
 690 326 l 1,3,-1
 690 224 l 1,0,-1
690 462 m 1,4,-1
 118 462 l 1,5,-1
 118 564 l 1,6,-1
 690 564 l 1,7,-1
 690 462 l 1,4,-1
EndSplineSet
EndChar

StartChar: greater
Encoding: 62 62 13
Width: 794
Flags: W
LayerCount: 2
Fore
SplineSet
43 117 m 1,0,-1
 579 352 l 1,1,-1
 43 587 l 1,2,-1
 43 722 l 1,3,-1
 750 410 l 1,4,-1
 750 294 l 1,5,-1
 43 -17 l 1,6,-1
 43 117 l 1,0,-1
EndSplineSet
EndChar

StartChar: bracketleft
Encoding: 91 91 14
Width: 580
GlyphClass: 2
Flags: W
LayerCount: 2
Fore
SplineSet
520 -271 m 1,0,-1
 153 -271 l 1,1,-1
 153 1153 l 1,2,-1
 520 1153 l 1,3,-1
 520 1109 l 1,4,-1
 364 1109 l 2,5,6
 322 1109 322 1109 304 1091.5 c 128,-1,7
 286 1074 286 1074 286 1032 c 2,8,-1
 286 -138 l 2,9,10
 286 -228 286 -228 371 -228 c 2,11,-1
 520 -228 l 1,12,-1
 520 -271 l 1,0,-1
EndSplineSet
EndChar

StartChar: bracketright
Encoding: 93 93 15
Width: 580
GlyphClass: 2
Flags: W
LayerCount: 2
Fore
SplineSet
216 -228 m 2,0,1
 256 -228 256 -228 275 -210.5 c 128,-1,2
 294 -193 294 -193 294 -151 c 2,3,-1
 294 1018 l 2,4,5
 294 1109 294 1109 209 1109 c 2,6,-1
 59 1109 l 1,7,-1
 59 1153 l 1,8,-1
 427 1153 l 1,9,-1
 427 -271 l 1,10,-1
 59 -271 l 1,11,-1
 59 -228 l 1,12,-1
 216 -228 l 2,0,1
EndSplineSet
EndChar

StartChar: grave
Encoding: 96 96 16
Width: 580
Flags: W
LayerCount: 2
Fore
SplineSet
352 882 m 1,0,-1
 83 1051 l 2,1,2
 60 1068 60 1068 46.5 1086.5 c 128,-1,3
 33 1105 33 1105 33 1126 c 0,4,5
 33 1151 33 1151 49 1166 c 128,-1,6
 65 1181 65 1181 93 1181 c 0,7,8
 111 1181 111 1181 126.5 1172 c 128,-1,9
 142 1163 142 1163 166 1140 c 2,10,-1
 422 882 l 1,11,-1
 352 882 l 1,0,-1
EndSplineSet
EndChar

StartChar: braceleft
Encoding: 123 123 17
Width: 836
GlyphClass: 2
Flags: W
LayerCount: 2
Fore
SplineSet
609 -315 m 1,0,1
 566 -315 566 -315 534.5 -312.5 c 128,-1,2
 503 -310 503 -310 479 -305 c 128,-1,3
 455 -300 455 -300 436 -291.5 c 128,-1,4
 417 -283 417 -283 399 -271 c 0,5,6
 362 -247 362 -247 342 -196.5 c 128,-1,7
 322 -146 322 -146 322 -71 c 2,8,-1
 322 237 l 2,9,10
 322 282 322 282 315.5 313.5 c 128,-1,11
 309 345 309 345 292 367.5 c 128,-1,12
 275 390 275 390 246.5 405.5 c 128,-1,13
 218 421 218 421 174 435 c 1,14,15
 218 448 218 448 246.5 463.5 c 128,-1,16
 275 479 275 479 292 501 c 128,-1,17
 309 523 309 523 315.5 554.5 c 128,-1,18
 322 586 322 586 322 632 c 2,19,-1
 322 942 l 2,20,21
 322 1013 322 1013 336.5 1059 c 128,-1,22
 351 1105 351 1105 385 1132 c 128,-1,23
 419 1159 419 1159 474 1170.5 c 128,-1,24
 529 1182 529 1182 609 1184 c 1,25,-1
 609 1164 l 1,26,27
 564 1152 564 1152 533.5 1135.5 c 128,-1,28
 503 1119 503 1119 484.5 1094.5 c 128,-1,29
 466 1070 466 1070 458 1034.5 c 128,-1,30
 450 999 450 999 450 950 c 2,31,-1
 450 658 l 2,32,33
 450 604 450 604 443 567 c 128,-1,34
 436 530 436 530 417.5 504.5 c 128,-1,35
 399 479 399 479 367.5 462.5 c 128,-1,36
 336 446 336 446 287 433 c 1,37,38
 336 421 336 421 367.5 405 c 128,-1,39
 399 389 399 389 417.5 364 c 128,-1,40
 436 339 436 339 443 302 c 128,-1,41
 450 265 450 265 450 211 c 2,42,-1
 450 -82 l 2,43,44
 450 -131 450 -131 458 -166 c 128,-1,45
 466 -201 466 -201 484.5 -226 c 128,-1,46
 503 -251 503 -251 533.5 -267.5 c 128,-1,47
 564 -284 564 -284 609 -296 c 1,48,-1
 609 -315 l 1,0,1
EndSplineSet
EndChar

StartChar: bar
Encoding: 124 124 18
Width: 348
Flags: W
LayerCount: 2
Fore
SplineSet
116 1176 m 1,0,-1
 231 1176 l 1,1,-1
 231 -25 l 1,2,-1
 116 -25 l 1,3,-1
 116 1176 l 1,0,-1
EndSplineSet
EndChar

StartChar: asciitilde
Encoding: 126 126 19
Width: 942
Flags: W
LayerCount: 2
Fore
SplineSet
874 472 m 1,0,1
 844 430 844 430 818 401.5 c 128,-1,2
 792 373 792 373 766.5 356 c 128,-1,3
 741 339 741 339 715.5 331.5 c 128,-1,4
 690 324 690 324 660 324 c 256,5,6
 630 324 630 324 607 327 c 128,-1,7
 584 330 584 330 556 340 c 128,-1,8
 528 350 528 350 490.5 368.5 c 128,-1,9
 453 387 453 387 395 418 c 0,10,11
 372 430 372 430 345 436 c 128,-1,12
 318 442 318 442 292 442 c 0,13,14
 272 442 272 442 256 437.5 c 128,-1,15
 240 433 240 433 225 423 c 128,-1,16
 210 413 210 413 195.5 396 c 128,-1,17
 181 379 181 379 164 354 c 1,18,-1
 70 409 l 1,19,20
 100 451 100 451 125.5 479 c 128,-1,21
 151 507 151 507 176.5 524.5 c 128,-1,22
 202 542 202 542 228 549.5 c 128,-1,23
 254 557 254 557 284 557 c 0,24,25
 313 557 313 557 336 554 c 128,-1,26
 359 551 359 551 387 541 c 128,-1,27
 415 531 415 531 452.5 512.5 c 128,-1,28
 490 494 490 494 548 463 c 0,29,30
 571 450 571 450 597.5 444.5 c 128,-1,31
 624 439 624 439 651 439 c 0,32,33
 670 439 670 439 686.5 443 c 128,-1,34
 703 447 703 447 718 457.5 c 128,-1,35
 733 468 733 468 748 485 c 128,-1,36
 763 502 763 502 780 528 c 1,37,-1
 874 472 l 1,0,1
EndSplineSet
EndChar

StartChar: agrave
Encoding: 224 224 20
Width: 1075
Flags: W
LayerCount: 2
Fore
SplineSet
741 331 m 1,0,1
 720 266 720 266 690.5 213 c 128,-1,2
 661 160 661 160 626 114 c 0,3,4
 519 -19 519 -19 400 -19 c 0,5,6
 208 -19 208 -19 159 214 c 0,7,8
 133 334 133 334 157 451 c 128,-1,9
 181 568 181 568 252 683 c 0,10,11
 325 801 325 801 433 860 c 128,-1,12
 541 919 541 919 684 919 c 0,13,14
 712 919 712 919 746 918.5 c 128,-1,15
 780 918 780 918 815.5 916 c 128,-1,16
 851 914 851 914 886 912 c 128,-1,17
 921 910 921 910 952 908 c 1,18,-1
 946 646 l 1,19,-1
 946 647 l 1,20,-1
 950 254 l 2,21,22
 952 209 952 209 954.5 179.5 c 128,-1,23
 957 150 957 150 958 139 c 0,24,25
 961 114 961 114 985 114 c 0,26,27
 1053 114 1053 114 1214 346 c 1,28,-1
 1218 179 l 1,29,30
 1073 -19 1073 -19 925 -19 c 0,31,32
 785 -19 785 -19 753 126 c 0,33,34
 749 146 749 146 747 182 c 128,-1,35
 745 218 745 218 745 264 c 2,36,-1
 741 331 l 1,0,1
737 758 m 1,37,38
 688 775 688 775 647 783.5 c 128,-1,39
 606 792 606 792 561 792 c 0,40,41
 497 792 497 792 453.5 749.5 c 128,-1,42
 410 707 410 707 387 625 c 0,43,44
 362 522 362 522 357 425 c 128,-1,45
 352 328 352 328 368 248 c 0,46,47
 388 146 388 146 437 146 c 0,48,49
 493 146 493 146 589 280 c 0,50,51
 637 352 637 352 674 430 c 128,-1,52
 711 508 711 508 739 599 c 1,53,-1
 737 758 l 1,37,38
641 537 m 1,54,-1
 372 706 l 2,55,56
 349 723 349 723 335.5 741.5 c 128,-1,57
 322 760 322 760 322 781 c 0,58,59
 322 806 322 806 338 821 c 128,-1,60
 354 836 354 836 382 836 c 0,61,62
 400 836 400 836 415.5 827 c 128,-1,63
 431 818 431 818 455 795 c 2,64,-1
 711 537 l 1,65,-1
 641 537 l 1,54,-1
EndSplineSet
EndChar

StartChar: ocircumflex.001
Encoding: 65539 -1 26
Width: 1112
Flags: W
LayerCount: 2
Fore
SplineSet
416 -19 m 0,0,1
 301 -19 301 -19 205 70 c 0,2,3
 110 160 110 160 85 288 c 0,4,5
 32 528 32 528 170 726 c 0,6,7
 307 928 307 928 522 928 c 0,8,9
 643 928 643 928 742 842 c 1,10,11
 837 753 837 753 864 626 c 0,12,13
 890 499 890 499 869 388.5 c 128,-1,14
 848 278 848 278 781 179 c 0,15,16
 711 79 711 79 619.5 30 c 128,-1,17
 528 -19 528 -19 416 -19 c 0,0,1
483 98 m 0,18,19
 536 98 536 98 573.5 133 c 128,-1,20
 611 168 611 168 637 236 c 0,21,22
 665 310 665 310 668.5 393.5 c 128,-1,23
 672 477 672 477 652 574 c 0,24,25
 602 813 602 813 466 813 c 0,26,27
 365 813 365 813 313 670 c 0,28,29
 284 595 284 595 281 510.5 c 128,-1,30
 278 426 278 426 298 332 c 0,31,32
 324 213 324 213 370 155.5 c 128,-1,33
 416 98 416 98 483 98 c 0,18,19
EndSplineSet
EndChar

StartChar: dagger
Encoding: 8224 8224 30
Width: 932
Flags: W
LayerCount: 2
Fore
SplineSet
347 -231 m 1,0,-1
 567 622 l 1,1,-1
 248 592 l 1,2,-1
 297 700 l 1,3,-1
 576 668 l 1,4,-1
 607 1066 l 1,5,-1
 755 1093 l 1,6,-1
 621 668 l 1,7,-1
 941 700 l 1,8,-1
 895 592 l 1,9,-1
 612 622 l 1,10,-1
 496 -213 l 1,11,-1
 347 -231 l 1,0,-1
EndSplineSet
EndChar

StartChar: degree
Encoding: 176 176 31
Width: 409
Flags: W
LayerCount: 2
Fore
SplineSet
395 844 m 0,0,1
 344 844 344 844 307.5 880 c 128,-1,2
 271 916 271 916 271 968 c 0,3,4
 271 1021 271 1021 307.5 1057 c 128,-1,5
 344 1093 344 1093 395 1093 c 0,6,7
 447 1093 447 1093 483 1057 c 128,-1,8
 519 1021 519 1021 519 968 c 0,9,10
 519 916 519 916 483 880 c 128,-1,11
 447 844 447 844 395 844 c 0,0,1
395 888 m 256,12,13
 427 888 427 888 450.5 912 c 128,-1,14
 474 936 474 936 474 968 c 256,15,16
 474 1000 474 1000 450.5 1024 c 128,-1,17
 427 1048 427 1048 395 1048 c 256,18,19
 363 1048 363 1048 339 1024 c 128,-1,20
 315 1000 315 1000 315 968 c 256,21,22
 315 936 315 936 339 912 c 128,-1,23
 363 888 363 888 395 888 c 256,12,13
EndSplineSet
EndChar

StartChar: bullet
Encoding: 8226 8226 32
Width: 931
Flags: W
LayerCount: 2
Fore
SplineSet
817 662 m 256,0,1
 817 517 817 517 713.5 414 c 128,-1,2
 610 311 610 311 465 311 c 256,3,4
 320 311 320 311 217 414 c 128,-1,5
 114 517 114 517 114 662 c 256,6,7
 114 807 114 807 217 910 c 128,-1,8
 320 1013 320 1013 465 1013 c 256,9,10
 610 1013 610 1013 713.5 910 c 128,-1,11
 817 807 817 807 817 662 c 256,0,1
EndSplineSet
EndChar

StartChar: registered
Encoding: 174 174 33
Width: 897
Flags: W
LayerCount: 2
Fore
SplineSet
580 445 m 0,0,1
 448 445 448 445 354.5 538.5 c 128,-1,2
 261 632 261 632 261 764 c 256,3,4
 261 896 261 896 354.5 990 c 128,-1,5
 448 1084 448 1084 580 1084 c 0,6,7
 714 1084 714 1084 807 990 c 128,-1,8
 900 896 900 896 900 764 c 256,9,10
 900 632 900 632 806.5 538.5 c 128,-1,11
 713 445 713 445 580 445 c 0,0,1
580 484 m 0,12,13
 695 484 695 484 777.5 567 c 128,-1,14
 860 650 860 650 860 764 c 256,15,16
 860 878 860 878 777.5 961 c 128,-1,17
 695 1044 695 1044 580 1044 c 0,18,19
 466 1044 466 1044 383.5 961 c 128,-1,20
 301 878 301 878 301 764 c 256,21,22
 301 650 301 650 383.5 567 c 128,-1,23
 466 484 466 484 580 484 c 0,12,13
529 737 m 1,24,-1
 501 596 l 1,25,-1
 394 596 l 1,26,-1
 403 639 l 1,27,-1
 456 639 l 1,28,-1
 511 915 l 1,29,-1
 458 915 l 1,30,-1
 466 959 l 1,31,-1
 598 959 l 2,32,33
 751 959 751 959 751 875 c 0,34,35
 751 800 751 800 650 750 c 1,36,-1
 685 639 l 1,37,-1
 747 639 l 1,38,-1
 738 596 l 1,39,-1
 641 596 l 1,40,-1
 591 737 l 1,41,-1
 529 737 l 1,24,-1
538 782 m 1,42,-1
 574 782 l 2,43,44
 697 782 697 782 697 866 c 0,45,46
 697 915 697 915 607 915 c 2,47,-1
 564 915 l 1,48,-1
 538 782 l 1,42,-1
EndSplineSet
EndChar

StartChar: copyright
Encoding: 169 169 34
Width: 1244
Flags: W
LayerCount: 2
Fore
SplineSet
725 -27 m 0,0,1
 495 -27 495 -27 330.5 137 c 128,-1,2
 166 301 166 301 166 533 c 256,3,4
 166 765 166 765 330.5 929 c 128,-1,5
 495 1093 495 1093 725 1093 c 0,6,7
 958 1093 958 1093 1122 929 c 128,-1,8
 1286 765 1286 765 1286 533 c 256,9,10
 1286 301 1286 301 1122 137 c 128,-1,11
 958 -27 958 -27 725 -27 c 0,0,1
725 18 m 0,12,13
 939 18 939 18 1090 169 c 128,-1,14
 1241 320 1241 320 1241 533 c 256,15,16
 1241 746 1241 746 1090 897 c 128,-1,17
 939 1048 939 1048 725 1048 c 0,18,19
 513 1048 513 1048 362 897 c 128,-1,20
 211 746 211 746 211 533 c 256,21,22
 211 320 211 320 362 169 c 128,-1,23
 513 18 513 18 725 18 c 0,12,13
890 246 m 1,24,25
 785 213 785 213 704 213 c 0,26,27
 580 213 580 213 508 279.5 c 128,-1,28
 436 346 436 346 436 462 c 0,29,30
 436 625 436 625 541 734.5 c 128,-1,31
 646 844 646 844 805 844 c 0,32,33
 896 844 896 844 1003 814 c 1,34,-1
 967 675 l 1,35,-1
 915 684 l 1,36,-1
 923 766 l 1,37,38
 854 798 854 798 792 798 c 0,39,40
 688 798 688 798 616 700 c 128,-1,41
 544 602 544 602 544 462 c 0,42,43
 544 271 544 271 722 271 c 0,44,45
 823 271 823 271 902 307 c 1,46,-1
 890 246 l 1,24,25
EndSplineSet
EndChar

StartChar: trademark
Encoding: 8482 8482 35
Width: 1333
Flags: W
LayerCount: 2
Fore
SplineSet
440 1021 m 1,0,-1
 307 1021 l 1,1,-1
 288 923 l 1,2,-1
 225 923 l 1,3,-1
 254 1066 l 1,4,-1
 751 1066 l 1,5,-1
 723 923 l 1,6,-1
 661 923 l 1,7,-1
 679 1021 l 1,8,-1
 546 1021 l 1,9,-1
 456 569 l 1,10,-1
 554 569 l 1,11,-1
 545 524 l 1,12,-1
 243 524 l 1,13,-1
 253 569 l 1,14,-1
 350 569 l 1,15,-1
 440 1021 l 1,0,-1
1011 569 m 1,16,-1
 942 956 l 1,17,-1
 857 524 l 1,18,-1
 688 524 l 1,19,-1
 697 569 l 1,20,-1
 794 569 l 1,21,-1
 884 1021 l 1,22,-1
 787 1021 l 1,23,-1
 796 1066 l 1,24,-1
 1036 1066 l 1,25,-1
 1092 747 l 1,26,-1
 1265 1066 l 1,27,-1
 1481 1066 l 1,28,-1
 1473 1021 l 1,29,-1
 1375 1021 l 1,30,-1
 1285 569 l 1,31,-1
 1383 569 l 1,32,-1
 1373 524 l 1,33,-1
 1178 524 l 1,34,-1
 1270 985 l 1,35,-1
 1041 569 l 1,36,-1
 1011 569 l 1,16,-1
EndSplineSet
EndChar

StartChar: logicalnot
Encoding: 172 172 39
Width: 932
Flags: W
LayerCount: 2
Fore
SplineSet
177 510 m 1,0,-1
 193 590 l 1,1,-1
 975 590 l 1,2,-1
 906 248 l 1,3,-1
 814 248 l 1,4,-1
 866 510 l 1,5,-1
 177 510 l 1,0,-1
EndSplineSet
EndChar

StartChar: florin
Encoding: 402 402 40
Width: 679
Flags: W
LayerCount: 2
Fore
SplineSet
158 -231 m 1,0,-1
 210 -18 l 1,1,-1
 286 364 l 1,2,-1
 108 364 l 1,3,-1
 117 409 l 1,4,-1
 294 409 l 1,5,-1
 298 427 l 2,6,7
 330 586 330 586 463 692.5 c 128,-1,8
 596 799 596 799 761 799 c 0,9,10
 818 799 818 799 860 784 c 1,11,-1
 764 678 l 1,12,13
 712 729 712 729 643 729 c 0,14,15
 500 729 500 729 457 512 c 2,16,-1
 436 409 l 1,17,-1
 623 409 l 1,18,-1
 614 364 l 1,19,-1
 427 364 l 1,20,-1
 313 -213 l 1,21,-1
 158 -231 l 1,0,-1
EndSplineSet
EndChar

StartChar: ellipsis
Encoding: 8230 8230 41
Width: 1827
Flags: W
LayerCount: 2
Fore
SplineSet
758 113 m 0,0,1
 758 144 758 144 809.5 245.5 c 128,-1,2
 861 347 861 347 876 355 c 0,3,4
 907 369 907 369 964.5 307.5 c 128,-1,5
 1022 246 1022 246 1026 211 c 1,6,7
 1026 166 1026 166 977.5 79.5 c 128,-1,8
 929 -7 929 -7 908 -7 c 0,9,10
 899 -7 899 -7 851 26.5 c 128,-1,11
 803 60 803 60 778 79 c 0,12,13
 758 96 758 96 758 113 c 0,0,1
1308 113 m 0,14,15
 1308 144 1308 144 1359 245.5 c 128,-1,16
 1410 347 1410 347 1426 355 c 0,17,18
 1457 369 1457 369 1514.5 307.5 c 128,-1,19
 1572 246 1572 246 1575 211 c 0,20,21
 1575 166 1575 166 1527 79.5 c 128,-1,22
 1479 -7 1479 -7 1458 -7 c 0,23,24
 1449 -7 1449 -7 1401 26.5 c 128,-1,25
 1353 60 1353 60 1328 79 c 0,26,27
 1308 96 1308 96 1308 113 c 0,14,15
211 113 m 0,28,29
 211 144 211 144 262 245.5 c 128,-1,30
 313 347 313 347 329 355 c 0,31,32
 360 369 360 369 417.5 307.5 c 128,-1,33
 475 246 475 246 478 211 c 0,34,35
 478 166 478 166 430 79.5 c 128,-1,36
 382 -7 382 -7 361 -7 c 0,37,38
 352 -7 352 -7 304 26.5 c 128,-1,39
 256 60 256 60 231 79 c 0,40,41
 211 96 211 96 211 113 c 0,28,29
EndSplineSet
EndChar

StartChar: endash
Encoding: 8211 8211 42
Width: 434
Flags: W
LayerCount: 2
Fore
SplineSet
434 154 m 1,0,-1
 0 154 l 1,1,-1
 0 234 l 1,2,-1
 434 234 l 1,3,-1
 434 154 l 1,0,-1
EndSplineSet
EndChar

StartChar: emdash
Encoding: 8212 8212 43
Width: 1862
Flags: W
LayerCount: 2
Fore
SplineSet
1866 572 m 1,0,-1
 -4 572 l 1,1,-1
 -4 732 l 1,2,-1
 1866 732 l 1,3,-1
 1866 572 l 1,0,-1
EndSplineSet
EndChar

StartChar: quotedblleft
Encoding: 8220 8220 44
Width: 463
Flags: W
LayerCount: 2
Fore
SplineSet
248 785 m 0,0,1
 249 833 249 833 280.5 879.5 c 128,-1,2
 312 926 312 926 352 945 c 1,3,-1
 375 902 l 1,4,5
 364 896 364 896 347.5 878 c 128,-1,6
 331 860 331 860 324 833 c 1,7,8
 372 812 372 812 370 773 c 0,9,10
 370 750 370 750 353 732 c 128,-1,11
 336 714 336 714 311 714 c 0,12,13
 282 714 282 714 265 736.5 c 128,-1,14
 248 759 248 759 248 785 c 0,0,1
88 785 m 0,15,16
 88 833 88 833 120.5 879.5 c 128,-1,17
 153 926 153 926 193 945 c 1,18,-1
 215 902 l 1,19,20
 204 896 204 896 188 878 c 128,-1,21
 172 860 172 860 164 833 c 1,22,23
 212 812 212 812 210 773 c 0,24,25
 210 750 210 750 192.5 732 c 128,-1,26
 175 714 175 714 152 714 c 0,27,28
 122 714 122 714 105 736.5 c 128,-1,29
 88 759 88 759 88 785 c 0,15,16
EndSplineSet
EndChar

StartChar: quotedblright
Encoding: 8221 8221 45
Width: 439
Flags: W
LayerCount: 2
Fore
SplineSet
215 874 m 0,0,1
 214 826 214 826 182.5 779.5 c 128,-1,2
 151 733 151 733 111 714 c 1,3,-1
 88 757 l 1,4,5
 99 763 99 763 115.5 781 c 128,-1,6
 132 799 132 799 139 826 c 1,7,8
 91 847 91 847 93 886 c 0,9,10
 93 909 93 909 110 927 c 128,-1,11
 127 945 127 945 152 945 c 0,12,13
 181 945 181 945 198 922.5 c 128,-1,14
 215 900 215 900 215 874 c 0,0,1
375 874 m 0,15,16
 375 826 375 826 342.5 779.5 c 128,-1,17
 310 733 310 733 270 714 c 1,18,-1
 248 757 l 1,19,20
 259 763 259 763 275 781 c 128,-1,21
 291 799 291 799 299 826 c 1,22,23
 251 847 251 847 253 886 c 0,24,25
 253 909 253 909 270.5 927 c 128,-1,26
 288 945 288 945 311 945 c 0,27,28
 341 945 341 945 358 922.5 c 128,-1,29
 375 900 375 900 375 874 c 0,15,16
EndSplineSet
EndChar

StartChar: divide
Encoding: 247 247 46
Width: 940
Flags: W
LayerCount: 2
Fore
SplineSet
528 631 m 0,0,1
 528 598 528 598 505.5 573.5 c 128,-1,2
 483 549 483 549 450 549 c 0,3,4
 415 549 415 549 392 573 c 128,-1,5
 369 597 369 597 369 631 c 0,6,7
 369 664 369 664 393 686.5 c 128,-1,8
 417 709 417 709 450 709 c 0,9,10
 481 709 481 709 504.5 686 c 128,-1,11
 528 663 528 663 528 631 c 0,0,1
528 109 m 0,12,13
 528 76 528 76 505 52 c 128,-1,14
 482 28 482 28 450 28 c 0,15,16
 416 28 416 28 392.5 51 c 128,-1,17
 369 74 369 74 369 109 c 0,18,19
 369 141 369 141 393 164.5 c 128,-1,20
 417 188 417 188 450 188 c 0,21,22
 482 188 482 188 505 164 c 128,-1,23
 528 140 528 140 528 109 c 0,12,13
796 331 m 1,24,-1
 111 331 l 1,25,-1
 111 409 l 1,26,-1
 796 409 l 1,27,-1
 796 331 l 1,24,-1
EndSplineSet
EndChar

StartChar: lozenge
Encoding: 9674 9674 47
Width: 1118
Flags: W
LayerCount: 2
Fore
SplineSet
1003 699 m 1,0,-1
 560 197 l 1,1,-1
 117 699 l 1,2,-1
 560 1202 l 1,3,-1
 1003 699 l 1,0,-1
848 699 m 1,4,-1
 560 1036 l 1,5,-1
 271 699 l 1,6,-1
 560 364 l 1,7,-1
 848 699 l 1,4,-1
EndSplineSet
EndChar

StartChar: fraction
Encoding: 8260 8260 48
Width: 742
Flags: W
LayerCount: 2
Fore
SplineSet
740 1101 m 1,0,-1
 101 -82 l 1,1,-1
 -9 -82 l 1,2,-1
 629 1101 l 1,3,-1
 740 1101 l 1,0,-1
EndSplineSet
EndChar

StartChar: guilsinglleft
Encoding: 8249 8249 49
Width: 1117
Flags: W
LayerCount: 2
Fore
SplineSet
955 58 m 1,0,-1
 150 444 l 1,1,-1
 150 534 l 1,2,-1
 955 918 l 1,3,-1
 955 784 l 1,4,-1
 331 489 l 1,5,-1
 955 192 l 1,6,-1
 955 58 l 1,0,-1
EndSplineSet
EndChar

StartChar: daggerdbl
Encoding: 8225 8225 52
Width: 932
Flags: W
LayerCount: 2
Fore
SplineSet
349 -231 m 1,0,-1
 481 185 l 1,1,-1
 161 154 l 1,2,-1
 211 261 l 1,3,-1
 490 229 l 1,4,-1
 567 616 l 1,5,-1
 247 586 l 1,6,-1
 297 693 l 1,7,-1
 575 661 l 1,8,-1
 608 1066 l 1,9,-1
 758 1093 l 1,10,-1
 620 661 l 1,11,-1
 940 693 l 1,12,-1
 889 586 l 1,13,-1
 611 616 l 1,14,-1
 535 229 l 1,15,-1
 855 261 l 1,16,-1
 804 154 l 1,17,-1
 525 185 l 1,18,-1
 499 -213 l 1,19,-1
 349 -231 l 1,0,-1
EndSplineSet
EndChar

StartChar: middot.001
Encoding: 8729 8729 53
Width: 620
Flags: W
LayerCount: 2
Fore
SplineSet
429 516 m 1,0,-1
 190 516 l 1,1,-1
 190 789 l 1,2,-1
 429 789 l 1,3,-1
 429 516 l 1,0,-1
EndSplineSet
EndChar

StartChar: quotesinglbase
Encoding: 8218 8218 54
Width: 418
Flags: W
LayerCount: 2
Fore
SplineSet
103 128 m 1,0,-1
 247 231 l 1,1,-1
 353 90 l 1,2,3
 345 -56 345 -56 262.5 -134.5 c 128,-1,4
 180 -213 180 -213 36 -213 c 1,5,-1
 76 -168 l 1,6,7
 189 -158 189 -158 211 -18 c 1,8,-1
 103 128 l 1,0,-1
EndSplineSet
EndChar

StartChar: quotedblbase
Encoding: 8222 8222 55
Width: 684
Flags: W
LayerCount: 2
Fore
SplineSet
91 92 m 1,0,-1
 204 178 l 1,1,-1
 292 64 l 1,2,3
 270 -213 270 -213 31 -213 c 1,4,-1
 60 -168 l 1,5,6
 166 -148 166 -148 179 -16 c 1,7,-1
 91 92 l 1,0,-1
401 92 m 1,8,-1
 516 178 l 1,9,-1
 602 64 l 1,10,11
 581 -213 581 -213 341 -213 c 1,12,-1
 372 -168 l 1,13,14
 476 -148 476 -148 490 -16 c 1,15,-1
 401 92 l 1,8,-1
EndSplineSet
EndChar

StartChar: perthousand
Encoding: 8240 8240 56
Width: 1571
Flags: W
LayerCount: 2
Fore
SplineSet
385 533 m 0,0,1
 304 533 304 533 254.5 584.5 c 128,-1,2
 205 636 205 636 205 722 c 0,3,4
 205 865 205 865 286.5 965.5 c 128,-1,5
 368 1066 368 1066 483 1066 c 0,6,7
 567 1066 567 1066 617.5 1014.5 c 128,-1,8
 668 963 668 963 668 877 c 0,9,10
 668 733 668 733 585.5 633 c 128,-1,11
 503 533 503 533 385 533 c 0,0,1
311 715 m 0,12,13
 311 578 311 578 398 578 c 0,14,15
 463 578 463 578 517 671.5 c 128,-1,16
 571 765 571 765 571 881 c 0,17,18
 571 1022 571 1022 483 1022 c 0,19,20
 416 1022 416 1022 363.5 928 c 128,-1,21
 311 834 311 834 311 715 c 0,12,13
850 0 m 0,22,23
 769 0 769 0 719.5 51.5 c 128,-1,24
 670 103 670 103 670 189 c 0,25,26
 670 331 670 331 751 432 c 128,-1,27
 832 533 832 533 947 533 c 0,28,29
 1031 533 1031 533 1081.5 481.5 c 128,-1,30
 1132 430 1132 430 1132 344 c 0,31,32
 1132 200 1132 200 1049.5 100 c 128,-1,33
 967 0 967 0 850 0 c 0,22,23
776 182 m 0,34,35
 776 44 776 44 862 44 c 0,36,37
 929 44 929 44 982 138 c 128,-1,38
 1035 232 1035 232 1035 348 c 0,39,40
 1035 490 1035 490 948 490 c 0,41,42
 880 490 880 490 828 395.5 c 128,-1,43
 776 301 776 301 776 182 c 0,34,35
131 -27 m 1,44,-1
 1111 1093 l 1,45,-1
 1206 1093 l 1,46,-1
 225 -27 l 1,47,-1
 131 -27 l 1,44,-1
1376 0 m 0,48,49
 1294 0 1294 0 1244.5 51.5 c 128,-1,50
 1195 103 1195 103 1195 189 c 0,51,52
 1195 331 1195 331 1276.5 432 c 128,-1,53
 1358 533 1358 533 1473 533 c 0,54,55
 1557 533 1557 533 1607.5 481.5 c 128,-1,56
 1658 430 1658 430 1658 344 c 0,57,58
 1658 200 1658 200 1575.5 100 c 128,-1,59
 1493 0 1493 0 1376 0 c 0,48,49
1301 183 m 0,60,61
 1301 44 1301 44 1389 44 c 0,62,63
 1453 44 1453 44 1507 138 c 128,-1,64
 1561 232 1561 232 1561 347 c 0,65,66
 1561 490 1561 490 1473 490 c 0,67,68
 1406 490 1406 490 1353.5 395.5 c 128,-1,69
 1301 301 1301 301 1301 183 c 0,60,61
EndSplineSet
EndChar

StartChar: multiply
Encoding: 215 215 60
Width: 703
Flags: W
LayerCount: 2
Fore
SplineSet
114 196 m 1,0,-1
 292 374 l 1,1,-1
 114 552 l 1,2,-1
 173 611 l 1,3,-1
 351 433 l 1,4,-1
 528 610 l 1,5,-1
 587 551 l 1,6,-1
 409 374 l 1,7,-1
 587 197 l 1,8,-1
 528 138 l 1,9,-1
 351 315 l 1,10,-1
 173 137 l 1,11,-1
 114 196 l 1,0,-1
EndSplineSet
EndChar

StartChar: macron
Encoding: 175 175 61
Width: 1118
Flags: W
LayerCount: 2
Fore
SplineSet
1134 1259 m 1,0,-1
 -16 1259 l 1,1,-1
 -16 1389 l 1,2,-1
 1134 1389 l 1,3,-1
 1134 1259 l 1,0,-1
EndSplineSet
EndChar

StartChar: periodcentered
Encoding: 183 183 62
Width: 724
Flags: W
LayerCount: 2
Fore
SplineSet
482 832 m 1,0,-1
 243 832 l 1,1,-1
 243 1117 l 1,2,-1
 482 1117 l 1,3,-1
 482 832 l 1,0,-1
EndSplineSet
EndChar

StartChar: H22073
Encoding: 9633 9633 63
Width: 1237
Flags: W
LayerCount: 2
Fore
SplineSet
146 944 m 1,0,-1
 1090 944 l 1,1,-1
 1090 0 l 1,2,-1
 146 0 l 1,3,-1
 146 944 l 1,0,-1
222 868 m 1,4,-1
 222 76 l 1,5,-1
 1014 76 l 1,6,-1
 1014 868 l 1,7,-1
 222 868 l 1,4,-1
EndSplineSet
EndChar

StartChar: H18543
Encoding: 9642 9642 64
Width: 1089
Flags: W
LayerCount: 2
Fore
SplineSet
886 894 m 1,0,-1
 886 200 l 1,1,-1
 192 200 l 1,2,-1
 192 894 l 1,3,-1
 886 894 l 1,0,-1
EndSplineSet
EndChar

StartChar: H18551
Encoding: 9643 9643 65
Width: 1089
Flags: W
LayerCount: 2
Fore
SplineSet
888 930 m 1,0,-1
 888 235 l 1,1,-1
 193 235 l 1,2,-1
 193 930 l 1,3,-1
 888 930 l 1,0,-1
774 816 m 1,4,-1
 307 816 l 1,5,-1
 307 349 l 1,6,-1
 774 349 l 1,7,-1
 774 816 l 1,4,-1
EndSplineSet
EndChar

StartChar: H18533
Encoding: 9679 9679 66
Width: 1339
Flags: W
LayerCount: 2
Fore
SplineSet
204 775 m 0,0,1
 204 976 204 976 345 1117 c 128,-1,2
 486 1258 486 1258 685 1258 c 0,3,4
 885 1258 885 1258 1026 1117 c 128,-1,5
 1167 976 1167 976 1167 775 c 0,6,7
 1167 577 1167 577 1026 436 c 128,-1,8
 885 295 885 295 685 295 c 0,9,10
 486 295 486 295 345 436 c 128,-1,11
 204 577 204 577 204 775 c 0,0,1
EndSplineSet
EndChar

StartChar: openbullet
Encoding: 9702 9702 67
Width: 1089
Flags: W
LayerCount: 2
Fore
SplineSet
544 1392 m 0,0,1
 700 1392 700 1392 810.5 1281.5 c 128,-1,2
 921 1171 921 1171 921 1015 c 256,3,4
 921 859 921 859 810.5 749 c 128,-1,5
 700 639 700 639 544 639 c 256,6,7
 388 639 388 639 278 749 c 128,-1,8
 168 859 168 859 168 1015 c 256,9,10
 168 1171 168 1171 277.5 1281.5 c 128,-1,11
 387 1392 387 1392 544 1392 c 0,0,1
544 1278 m 0,12,13
 435 1278 435 1278 358.5 1200.5 c 128,-1,14
 282 1123 282 1123 282 1015 c 0,15,16
 282 906 282 906 359 829.5 c 128,-1,17
 436 753 436 753 544 753 c 256,18,19
 652 753 652 753 729.5 829.5 c 128,-1,20
 807 906 807 906 807 1015 c 0,21,22
 807 1123 807 1123 730.5 1200.5 c 128,-1,23
 654 1278 654 1278 544 1278 c 0,12,13
EndSplineSet
EndChar

StartChar: uniFFFC
Encoding: 65532 65532 68
Width: 2048
Flags: W
LayerCount: 2
Fore
SplineSet
2048 1150 m 1,0,-1
 1948 1150 l 1,1,-1
 1948 1373 l 1,2,-1
 1725 1373 l 1,3,-1
 1725 1473 l 1,4,-1
 2048 1473 l 1,5,-1
 2048 1150 l 1,0,-1
1473 1373 m 1,6,-1
 1150 1373 l 1,7,-1
 1150 1473 l 1,8,-1
 1473 1473 l 1,9,-1
 1473 1373 l 1,6,-1
2048 575 m 1,10,-1
 1948 575 l 1,11,-1
 1948 898 l 1,12,-1
 2048 898 l 1,13,-1
 2048 575 l 1,10,-1
1782 611 m 2,14,15
 1782 370 1782 370 1571 370 c 0,16,17
 1485 370 1485 370 1433 415 c 1,18,-1
 1506 494 l 1,19,20
 1531 468 1531 468 1571 468 c 0,21,22
 1666 468 1666 468 1666 606 c 2,23,-1
 1666 1090 l 1,24,-1
 1782 1090 l 1,25,-1
 1782 611 l 2,14,15
898 1373 m 1,26,-1
 575 1373 l 1,27,-1
 575 1473 l 1,28,-1
 898 1473 l 1,29,-1
 898 1373 l 1,26,-1
2048 0 m 1,30,-1
 1725 0 l 1,31,-1
 1725 100 l 1,32,-1
 1948 100 l 1,33,-1
 1948 323 l 1,34,-1
 2048 323 l 1,35,-1
 2048 0 l 1,30,-1
1423 591 m 0,36,37
 1423 382 1423 382 1149 382 c 2,38,-1
 909 382 l 1,39,-1
 909 1090 l 1,40,-1
 1144 1090 l 2,41,42
 1393 1090 1393 1090 1393 904 c 0,43,44
 1393 813 1393 813 1304 759 c 1,45,46
 1423 713 1423 713 1423 591 c 0,36,37
323 1373 m 1,47,-1
 100 1373 l 1,48,-1
 100 1150 l 1,49,-1
 0 1150 l 1,50,-1
 0 1473 l 1,51,-1
 323 1473 l 1,52,-1
 323 1373 l 1,47,-1
1473 0 m 1,53,-1
 1150 0 l 1,54,-1
 1150 100 l 1,55,-1
 1473 100 l 1,56,-1
 1473 0 l 1,53,-1
854 735 m 0,57,58
 854 562 854 562 772 466 c 128,-1,59
 690 370 690 370 537 370 c 256,60,61
 384 370 384 370 303.5 466 c 128,-1,62
 223 562 223 562 223 735 c 0,63,64
 223 910 223 910 303.5 1006 c 128,-1,65
 384 1102 384 1102 537 1102 c 256,66,67
 690 1102 690 1102 772 1006 c 128,-1,68
 854 910 854 910 854 735 c 0,57,58
100 575 m 1,69,-1
 0 575 l 1,70,-1
 0 898 l 1,71,-1
 100 898 l 1,72,-1
 100 575 l 1,69,-1
898 0 m 1,73,-1
 575 0 l 1,74,-1
 575 100 l 1,75,-1
 898 100 l 1,76,-1
 898 0 l 1,73,-1
323 0 m 1,77,-1
 0 0 l 1,78,-1
 0 323 l 1,79,-1
 100 323 l 1,80,-1
 100 100 l 1,81,-1
 323 100 l 1,82,-1
 323 0 l 1,77,-1
1277 893 m 0,83,84
 1277 992 1277 992 1114 992 c 2,85,-1
 1025 992 l 1,86,-1
 1025 798 l 1,87,-1
 1126 798 l 2,88,89
 1277 798 1277 798 1277 893 c 0,83,84
1307 591 m 0,90,91
 1307 700 1307 700 1136 700 c 2,92,-1
 1025 700 l 1,93,-1
 1025 480 l 1,94,-1
 1149 480 l 2,95,96
 1307 480 1307 480 1307 591 c 0,90,91
738 735 m 0,97,98
 738 1004 738 1004 537 1004 c 0,99,100
 339 1004 339 1004 339 735 c 0,101,102
 339 468 339 468 537 468 c 0,103,104
 738 468 738 468 738 735 c 0,97,98
EndSplineSet
EndChar

StartChar: zerowidthnonjoiner
Encoding: 8204 8204 88
Width: 0
GlyphClass: 2
Flags: W
LayerCount: 2
Fore
SplineSet
36 1289 m 1,0,-1
 36 -275 l 1,1,-1
 -36 -275 l 1,2,-1
 -36 1289 l 1,3,-1
 36 1289 l 1,0,-1
EndSplineSet
EndChar

StartChar: zerowidthjoiner
Encoding: 8205 8205 89
Width: 0
GlyphClass: 2
Flags: W
LayerCount: 2
Fore
SplineSet
36 -275 m 1,0,-1
 -36 -275 l 1,1,-1
 -36 1114 l 1,2,-1
 -170 978 l 1,3,-1
 -219 1027 l 1,4,-1
 -48 1196 l 1,5,-1
 -219 1364 l 1,6,-1
 -170 1413 l 1,7,-1
 0 1242 l 1,8,-1
 170 1413 l 1,9,-1
 219 1364 l 1,10,-1
 48 1196 l 1,11,-1
 219 1027 l 1,12,-1
 170 978 l 1,13,-1
 36 1114 l 1,14,-1
 36 -275 l 1,0,-1
EndSplineSet
EndChar

StartChar: lefttorightmark
Encoding: 8206 8206 90
Width: 0
GlyphClass: 2
Flags: W
LayerCount: 2
Fore
SplineSet
430 1198 m 1,0,-1
 213 984 l 1,1,-1
 164 1033 l 1,2,-1
 301 1163 l 1,3,-1
 35 1163 l 1,4,-1
 35 -275 l 1,5,-1
 -36 -275 l 1,6,-1
 -36 1234 l 1,7,-1
 301 1234 l 1,8,-1
 164 1364 l 1,9,-1
 213 1413 l 1,10,-1
 430 1198 l 1,0,-1
EndSplineSet
EndChar

StartChar: righttoleftmark
Encoding: 8207 8207 91
Width: 0
GlyphClass: 2
Flags: W
LayerCount: 2
Fore
SplineSet
35 -275 m 1,0,-1
 -36 -275 l 1,1,-1
 -36 1163 l 1,2,-1
 -302 1163 l 1,3,-1
 -165 1033 l 1,4,-1
 -214 984 l 1,5,-1
 -431 1198 l 1,6,-1
 -214 1413 l 1,7,-1
 -165 1364 l 1,8,-1
 -302 1234 l 1,9,-1
 35 1234 l 1,10,-1
 35 -275 l 1,0,-1
EndSplineSet
EndChar

StartChar: afii57388.001
Encoding: 1644 1644 92
Width: 353
GlyphClass: 2
Flags: W
LayerCount: 2
Fore
SplineSet
210 654 m 0,0,1
 200 627 200 627 185 603 c 0,2,3
 180 597 180 597 173.5 593.5 c 128,-1,4
 167 590 167 590 162 590 c 128,-1,5
 157 590 157 590 154.5 593 c 128,-1,6
 152 596 152 596 155 603 c 0,7,8
 187 660 187 660 202.5 713.5 c 128,-1,9
 218 767 218 767 218 800 c 1,10,11
 194 806 194 806 179 816 c 128,-1,12
 164 826 164 826 155 837.5 c 128,-1,13
 146 849 146 849 143 859 c 128,-1,14
 140 869 140 869 140 874 c 0,15,16
 140 890 140 890 145.5 907 c 128,-1,17
 151 924 151 924 160.5 937.5 c 128,-1,18
 170 951 170 951 183.5 959.5 c 128,-1,19
 197 968 197 968 213 968 c 0,20,21
 272 968 272 968 272 874 c 0,22,23
 272 859 272 859 268 835 c 128,-1,24
 264 811 264 811 256 781.5 c 128,-1,25
 248 752 248 752 236.5 719.5 c 128,-1,26
 225 687 225 687 210 654 c 0,0,1
EndSplineSet
EndChar

StartChar: afii57409
Encoding: 1569 1569 93
Width: 437
GlyphClass: 2
Flags: W
AnchorPoint: "Anchor-3" 180 -360 basechar 0
AnchorPoint: "Anchor-2" 285 480 basechar 0
LayerCount: 2
Fore
SplineSet
369 152 m 0,0,1
 375 138 375 138 375 125 c 0,2,3
 375 84 375 84 324 45 c 0,4,5
 281 15 281 15 223 4 c 1,6,-1
 173 7 l 1,7,-1
 136 10 l 2,8,9
 118 10 118 10 109 4 c 2,10,-1
 93 -4 l 1,11,-1
 80 -18 l 1,12,-1
 66 0 l 1,13,-1
 76 13 l 1,14,-1
 90 27 l 2,15,16
 111 47 111 47 169 53 c 0,17,18
 195 53 195 53 216.5 60.5 c 128,-1,19
 238 68 238 68 254 80 c 0,20,21
 260 83 260 83 261 96 c 0,22,23
 261 108 261 108 252 113 c 1,24,25
 222 116 222 116 206 127 c 0,26,27
 185 141 185 141 176 166 c 1,28,-1
 175 176 l 1,29,30
 175 218 175 218 215 276 c 0,31,32
 260 342 260 342 314 342 c 1,33,-1
 305 277 l 1,34,35
 280 274 280 274 261 257.5 c 128,-1,36
 242 241 242 241 240 226 c 0,37,38
 240 207 240 207 299 194 c 0,39,40
 358 184 358 184 369 152 c 0,0,1
EndSplineSet
EndChar

StartChar: afii57440
Encoding: 1600 1600 94
Width: 485
GlyphClass: 2
Flags: W
LayerCount: 2
Fore
SplineSet
499 0 m 1,0,-1
 -16 0 l 1,1,-1
 -16 141 l 1,2,-1
 499 141 l 1,3,-1
 499 0 l 1,0,-1
EndSplineSet
EndChar

StartChar: afii57453
Encoding: 1613 1613 95
Width: 0
GlyphClass: 4
Flags: W
AnchorPoint: "Anchor-3" 0 0 mark 0
AnchorPoint: "Anchor-1" 0 0 mark 0
LayerCount: 2
Fore
SplineSet
200 79 m 1,0,-1
 195 59 l 2,1,2
 193 52 193 52 190 45 c 0,3,4
 185 34 185 34 183 28 c 2,5,-1
 166 -16 l 1,6,7
 98 -72 98 -72 -61 -103 c 0,8,9
 -189 -128 -189 -128 -253 -120 c 1,10,-1
 -237 -102 l 1,11,12
 -179 -96 -179 -96 -120.5 -81.5 c 128,-1,13
 -62 -67 -62 -67 -3 -42 c 0,14,15
 119 7 119 7 200 79 c 1,0,-1
211 226 m 1,16,-1
 207 206 l 2,17,18
 205 198 205 198 203 191 c 0,19,20
 198 180 198 180 197 174 c 2,21,-1
 182 129 l 1,22,23
 118 69 118 69 -39 29 c 0,24,25
 -166 -3 -166 -3 -230 1 c 1,26,-1
 -215 20 l 1,27,28
 -158 29 -158 29 -100 47 c 128,-1,29
 -42 65 -42 65 15 93 c 0,30,31
 134 149 134 149 211 226 c 1,16,-1
EndSplineSet
EndChar

StartChar: afii57381
Encoding: 1642 1642 96
Width: 829
GlyphClass: 2
Flags: W
LayerCount: 2
Fore
SplineSet
341 757 m 0,0,1
 341 719 341 719 314 690.5 c 128,-1,2
 287 662 287 662 249 662 c 0,3,4
 209 662 209 662 181.5 690 c 128,-1,5
 154 718 154 718 154 757 c 0,6,7
 154 795 154 795 183 823 c 128,-1,8
 212 851 212 851 249 851 c 0,9,10
 285 851 285 851 313 823.5 c 128,-1,11
 341 796 341 796 341 757 c 0,0,1
639 921 m 1,12,-1
 265 -39 l 1,13,-1
 193 -39 l 1,14,-1
 562 921 l 1,15,-1
 639 921 l 1,12,-1
684 99 m 0,16,17
 684 10 684 10 593 10 c 0,18,19
 555 10 555 10 525.5 35.5 c 128,-1,20
 496 61 496 61 496 99 c 0,21,22
 496 138 496 138 526 165 c 128,-1,23
 556 192 556 192 595 192 c 0,24,25
 684 192 684 192 684 99 c 0,16,17
EndSplineSet
EndChar

StartChar: afii57461
Encoding: 1643 1643 97
Width: 536
GlyphClass: 2
Flags: W
LayerCount: 2
Fore
SplineSet
518 521 m 1,0,-1
 115 -382 l 1,1,-1
 19 -352 l 1,2,-1
 425 551 l 1,3,-1
 518 521 l 1,0,-1
EndSplineSet
EndChar

StartChar: afii63167
Encoding: 1645 1645 98
Width: 1118
GlyphClass: 2
Flags: W
LayerCount: 2
Fore
SplineSet
694 729 m 1,0,-1
 1057 733 l 1,1,-1
 1057 610 l 1,2,-1
 702 612 l 1,3,-1
 971 352 l 1,4,-1
 883 264 l 1,5,-1
 616 539 l 1,6,-1
 623 168 l 1,7,-1
 498 168 l 1,8,-1
 502 539 l 1,9,-1
 236 264 l 1,10,-1
 147 352 l 1,11,-1
 422 614 l 1,12,-1
 63 610 l 1,13,-1
 63 733 l 1,14,-1
 420 729 l 1,15,-1
 170 975 l 1,16,-1
 258 1065 l 1,17,-1
 502 817 l 1,18,-1
 498 1176 l 1,19,-1
 623 1176 l 1,20,-1
 616 813 l 1,21,-1
 860 1065 l 1,22,-1
 948 975 l 1,23,-1
 694 729 l 1,0,-1
EndSplineSet
EndChar

StartChar: afii57459
Encoding: 65543 -1 99
Width: 540
GlyphClass: 2
Flags: W
LayerCount: 2
Fore
SplineSet
508 361 m 0,0,1
 508 284 508 284 464 180 c 0,2,3
 432 102 432 102 409 73.5 c 128,-1,4
 386 45 386 45 325 22.5 c 128,-1,5
 264 0 264 0 174 0 c 2,6,-1
 -6 0 l 1,7,-1
 -6 141 l 1,8,-1
 164 144 l 2,9,10
 299 144 299 144 363 176 c 0,11,12
 407 197 407 197 426 238 c 0,13,14
 436 255 436 255 436 278 c 0,15,16
 436 294 436 294 435 302 c 128,-1,17
 434 310 434 310 428.5 327.5 c 128,-1,18
 423 345 423 345 420 353 c 128,-1,19
 417 361 417 361 408 377 c 1,20,21
 395 362 395 362 382 329 c 0,22,23
 373 299 373 299 361 287 c 0,24,25
 319 240 319 240 247 240 c 0,26,27
 194 240 194 240 144 273 c 0,28,29
 119 291 119 291 108 320.5 c 128,-1,30
 97 350 97 350 97 386 c 0,31,32
 97 467 97 467 146 571 c 0,33,34
 191 668 191 668 244 713 c 0,35,36
 259 728 259 728 282 728 c 0,37,38
 313 728 313 728 355 696 c 0,39,40
 383 673 383 673 408 644 c 0,41,42
 453 581 453 581 480.5 508 c 128,-1,43
 508 435 508 435 508 361 c 0,0,1
381 431 m 1,44,-1
 380 449 l 2,45,46
 379 452 379 452 377.5 455.5 c 128,-1,47
 376 459 376 459 369 469 c 0,48,49
 348 505 348 505 300 532 c 128,-1,50
 252 559 252 559 230 556 c 0,51,52
 197 547 197 547 178.5 528.5 c 128,-1,53
 160 510 160 510 160 476 c 0,54,55
 160 453 160 453 199 431 c 0,56,57
 239 412 239 412 289 412 c 0,58,59
 334 412 334 412 381 431 c 1,44,-1
EndSplineSet
EndChar

StartChar: afii57543
Encoding: 65544 -1 100
Width: 467
Flags: W
LayerCount: 2
Fore
SplineSet
472 0 m 1,0,-1
 412 0 l 2,1,2
 332 0 332 0 279 43 c 0,3,4
 245 69 245 69 223 117 c 1,5,6
 198 77 198 77 152 43 c 0,7,8
 92 0 92 0 35 0 c 2,9,-1
 -6 0 l 1,10,-1
 -6 141 l 1,11,-1
 37 141 l 2,12,13
 92 141 92 141 153.5 170 c 128,-1,14
 215 199 215 199 228 230 c 2,15,-1
 250 281 l 1,16,-1
 283 355 l 1,17,-1
 295 344 l 1,18,-1
 284 311 l 2,19,20
 273 270 273 270 273 240 c 1,21,22
 295 198 295 198 316 178 c 0,23,24
 359 141 359 141 431 141 c 2,25,-1
 472 141 l 1,26,-1
 472 0 l 1,0,-1
EndSplineSet
EndChar

StartChar: afii57534
Encoding: 1749 1749 101
Width: 551
GlyphClass: 2
Flags: W
LayerCount: 2
Fore
SplineSet
512 219 m 0,0,1
 512 166 512 166 506 127 c 0,2,3
 502 90 502 90 485 70 c 0,4,5
 457 30 457 30 396 11 c 0,6,7
 347 -2 347 -2 287 -2 c 0,8,9
 197 -2 197 -2 152 53 c 0,10,11
 126 83 126 83 120 125 c 1,12,13
 120 178 120 178 169.5 310 c 128,-1,14
 219 442 219 442 262 472 c 0,15,16
 280 484 280 484 301 484 c 0,17,18
 318 484 318 484 337 475.5 c 128,-1,19
 356 467 356 467 379 449 c 0,20,21
 426 413 426 413 465 356 c 0,22,23
 512 285 512 285 512 219 c 0,0,1
459 187 m 1,24,25
 456 212 456 212 407 254 c 128,-1,26
 358 296 358 296 305 314 c 0,27,28
 296 317 296 317 278 317 c 2,29,-1
 248 314 l 2,30,31
 234 311 234 311 225 303 c 0,32,33
 200 281 200 281 184 244.5 c 128,-1,34
 168 208 168 208 170 197 c 0,35,36
 182 162 182 162 224 148 c 0,37,38
 236 145 236 145 256.5 143 c 128,-1,39
 277 141 277 141 307 141 c 0,40,41
 361 141 361 141 401.5 152.5 c 128,-1,42
 442 164 442 164 459 187 c 1,24,25
EndSplineSet
EndChar

StartChar: afii64240
Encoding: 65546 -1 103
Width: 283
Flags: W
LayerCount: 2
Fore
SplineSet
245 123 m 1,0,-1
 167 4 l 1,1,-1
 38 82 l 1,2,-1
 111 201 l 1,3,-1
 245 123 l 1,0,-1
EndSplineSet
EndChar

StartChar: afii64241
Encoding: 65547 -1 104
Width: 504
Flags: W
LayerCount: 2
Fore
SplineSet
455 123 m 1,0,-1
 379 5 l 1,1,-1
 246 82 l 1,2,-1
 323 197 l 1,3,-1
 455 123 l 1,0,-1
256 123 m 1,4,-1
 184 5 l 1,5,-1
 51 82 l 1,6,-1
 125 197 l 1,7,-1
 256 123 l 1,4,-1
EndSplineSet
EndChar

StartChar: afii63954
Encoding: 65548 -1 105
Width: 496
Flags: W
LayerCount: 2
Fore
SplineSet
298 292 m 1,0,-1
 222 177 l 1,1,-1
 91 253 l 1,2,-1
 167 368 l 1,3,-1
 298 292 l 1,0,-1
456 120 m 1,4,-1
 380 3 l 1,5,-1
 246 83 l 1,6,-1
 324 198 l 1,7,-1
 456 120 l 1,4,-1
259 120 m 1,8,-1
 185 3 l 1,9,-1
 52 83 l 1,10,-1
 128 198 l 1,11,-1
 259 120 l 1,8,-1
EndSplineSet
EndChar

StartChar: afii57382
Encoding: 65549 -1 106
Width: 520
Flags: W
LayerCount: 2
Fore
SplineSet
434 -80 m 1,0,-1
 356 -195 l 1,1,-1
 225 -117 l 1,2,-1
 303 0 l 1,3,-1
 434 -80 l 1,0,-1
235 -80 m 1,4,-1
 160 -195 l 1,5,-1
 30 -117 l 1,6,-1
 104 0 l 1,7,-1
 235 -80 l 1,4,-1
393 -250 m 1,8,-1
 315 -365 l 1,9,-1
 186 -289 l 1,10,-1
 260 -172 l 1,11,-1
 393 -250 l 1,8,-1
EndSplineSet
EndChar

StartChar: afii64242
Encoding: 65550 -1 107
Width: 301
Flags: W
LayerCount: 2
Fore
SplineSet
264 328 m 256,0,1
 264 262 264 262 239.5 167 c 128,-1,2
 215 72 215 72 189 35 c 0,3,4
 186 32 186 32 158 21 c 0,5,6
 101 0 101 0 59 0 c 2,7,-1
 -8 0 l 1,8,-1
 -8 141 l 1,9,-1
 74 141 l 2,10,11
 122 141 122 141 155 147 c 0,12,13
 205 156 205 156 211 180 c 1,14,15
 197 294 197 294 152 363 c 1,16,-1
 94 437 l 1,17,-1
 118 499 l 2,18,19
 125 516 125 516 133 530.5 c 128,-1,20
 141 545 141 545 150 556 c 1,21,22
 182 535 182 535 219 471 c 0,23,24
 264 394 264 394 264 328 c 256,0,1
EndSplineSet
EndChar

StartChar: afii57373
Encoding: 65551 -1 112
Width: 720
Flags: W
LayerCount: 2
Fore
SplineSet
457 769 m 0,0,1
 460 761 460 761 462 745 c 0,2,3
 462 709 462 709 417 674 c 0,4,5
 378 645 378 645 326 636 c 1,6,-1
 281 639 l 1,7,-1
 248 642 l 2,8,9
 232 642 232 642 223 636 c 0,10,11
 213 632 213 632 197 615 c 1,12,-1
 185 633 l 1,13,-1
 194 646 l 1,14,-1
 207 656 l 2,15,16
 228 676 228 676 277.5 680 c 128,-1,17
 327 684 327 684 355 705 c 0,18,19
 359 706 359 706 360 719 c 0,20,21
 360 731 360 731 353 734 c 0,22,23
 324 737 324 737 307.5 747.5 c 128,-1,24
 291 758 291 758 283 781 c 0,25,26
 281 789 281 789 281 793 c 0,27,28
 281 820 281 820 313 872 c 0,29,30
 357 941 357 941 408 941 c 1,31,-1
 402 882 l 1,32,33
 378 879 378 879 359 864 c 128,-1,34
 340 849 340 849 340 834 c 0,35,36
 340 820 340 820 394 808 c 0,37,38
 448 799 448 799 457 769 c 0,0,1
EndSplineSet
EndChar

StartChar: afii57374
Encoding: 65552 -1 113
Width: 490
GlyphClass: 2
Flags: W
LayerCount: 2
Fore
SplineSet
502 0 m 1,0,-1
 482 0 l 2,1,2
 442 0 442 0 409.5 3 c 128,-1,3
 377 6 377 6 343 14 c 0,4,5
 281 29 281 29 234 53 c 1,6,7
 199 30 199 30 122 13 c 0,8,9
 57 0 57 0 21 0 c 2,10,-1
 -8 0 l 1,11,-1
 -8 141 l 1,12,-1
 16 141 l 1,13,-1
 67 143 l 2,14,15
 100 143 100 143 117 148 c 1,16,17
 88 185 88 185 80 250 c 0,18,19
 77 261 77 261 101 333 c 0,20,21
 131 414 131 414 174 472 c 0,22,23
 207 519 207 519 263 551 c 0,24,25
 308 578 308 578 335 578 c 0,26,27
 342 578 342 578 344 576 c 0,28,29
 389 537 389 537 410 469 c 0,30,31
 426 415 426 415 426 365 c 0,32,33
 426 345 426 345 402 282 c 128,-1,34
 378 219 378 219 346 166 c 1,35,36
 366 157 366 157 414 148 c 1,37,-1
 484 141 l 1,38,-1
 502 141 l 1,39,-1
 502 0 l 1,0,-1
357 264 m 1,40,41
 357 295 357 295 339 348 c 0,42,43
 315 413 315 413 283 422 c 0,44,45
 268 424 268 424 251 419 c 128,-1,46
 234 414 234 414 213 402 c 0,47,48
 174 381 174 381 150 344 c 0,49,50
 141 335 141 335 167 294 c 0,51,52
 197 249 197 249 246 215 c 2,53,-1
 258 207 l 1,54,-1
 271 201 l 1,55,-1
 316 230 l 2,56,57
 335 244 335 244 357 264 c 1,40,41
EndSplineSet
EndChar

StartChar: afii57375
Encoding: 1619 1619 114
Width: 598
GlyphClass: 2
Flags: W
LayerCount: 2
Fore
SplineSet
10 873 m 1,0,1
 32 912 32 912 73 959 c 0,2,3
 102 992 102 992 127 1013 c 0,4,5
 142 1025 142 1025 154 1028.5 c 128,-1,6
 166 1032 166 1032 184 1032 c 0,7,8
 205 1032 205 1032 262.5 1012.5 c 128,-1,9
 320 993 320 993 354 993 c 2,10,-1
 383 996 l 1,11,12
 439 1013 439 1013 472 1027 c 0,13,14
 507 1045 507 1045 549 1076 c 1,15,-1
 551 1043 l 1,16,17
 517 983 517 983 483 954 c 0,18,19
 443 920 443 920 385 908 c 1,20,-1
 355 905 l 2,21,22
 328 905 328 905 286 917 c 0,23,24
 200 941 200 941 183 941 c 2,25,-1
 154 937 l 1,26,27
 124 925 124 925 90 904 c 0,28,29
 42 874 42 874 12 838 c 1,30,-1
 10 873 l 1,31,-1
 10 873 l 1,0,1
EndSplineSet
EndChar

StartChar: afii57391
Encoding: 59450 59450 115
Width: 1024
GlyphClass: 2
Flags: W
LayerCount: 2
Fore
SplineSet
1024 0 m 1,0,-1
 -70 0 l 1,1,-1
 -70 188 l 1,2,-1
 1024 188 l 1,3,-1
 1024 0 l 1,0,-1
EndSplineSet
EndChar

StartChar: afii57471
Encoding: 65553 -1 116
Width: 1728
Flags: W
LayerCount: 2
Fore
SplineSet
1734 0 m 1,0,-1
 1691 0 l 2,1,2
 1612 0 1612 0 1559 43 c 0,3,4
 1524 72 1524 72 1503 117 c 1,5,6
 1463 72 1463 72 1411 45 c 0,7,8
 1367 21 1367 21 1298 2 c 0,9,10
 1257 -9 1257 -9 1075 -25 c 128,-1,11
 893 -41 893 -41 795 -41 c 0,12,13
 665 -41 665 -41 565.5 -34 c 128,-1,14
 466 -27 466 -27 399 -12 c 0,15,16
 239 23 239 23 144 117 c 0,17,18
 107 152 107 152 91.5 208.5 c 128,-1,19
 76 265 76 265 76 340 c 0,20,21
 76 366 76 366 79 388.5 c 128,-1,22
 82 411 82 411 90 437 c 0,23,24
 105 485 105 485 121 508 c 1,25,-1
 137 502 l 1,26,27
 129 484 129 484 118 443 c 0,28,29
 109 404 109 404 109 373 c 2,30,-1
 111 349 l 2,31,32
 120 289 120 289 150.5 249 c 128,-1,33
 181 209 181 209 238 182 c 0,34,35
 271 167 271 167 314 154.5 c 128,-1,36
 357 142 357 142 410 133 c 128,-1,37
 463 124 463 124 509.5 118.5 c 128,-1,38
 556 113 556 113 599 113 c 2,39,-1
 861 109 l 2,40,41
 975 109 975 109 1121 122.5 c 128,-1,42
 1267 136 1267 136 1320 150 c 0,43,44
 1403 168 1403 168 1439 181 c 0,45,46
 1494 202 1494 202 1507 230 c 2,47,-1
 1535 296 l 1,48,-1
 1562 355 l 1,49,-1
 1574 344 l 1,50,-1
 1563 311 l 2,51,52
 1552 270 1552 270 1552 240 c 1,53,54
 1574 198 1574 198 1595 178 c 0,55,56
 1638 141 1638 141 1710 141 c 2,57,-1
 1734 141 l 1,58,-1
 1734 0 l 1,0,-1
EndSplineSet
EndChar

StartChar: afii52258
Encoding: 65554 -1 117
Width: 2021
GlyphClass: 2
Flags: W
LayerCount: 2
Fore
SplineSet
1882 264 m 1,0,1
 1882 295 1882 295 1864 348 c 0,2,3
 1840 413 1840 413 1808 422 c 0,4,5
 1793 424 1793 424 1776 419 c 128,-1,6
 1759 414 1759 414 1738 402 c 0,7,8
 1698 379 1698 379 1675 344 c 0,9,10
 1666 333 1666 333 1692 294 c 0,11,12
 1722 249 1722 249 1771 215 c 1,13,-1
 1796 201 l 1,14,-1
 1842 231 l 1,15,-1
 1882 264 l 1,0,1
1642 148 m 1,16,17
 1613 186 1613 186 1605 250 c 0,18,19
 1602 261 1602 261 1626 333 c 0,20,21
 1656 414 1656 414 1699 472 c 0,22,23
 1734 519 1734 519 1788 551 c 0,24,25
 1833 578 1833 578 1861 578 c 0,26,27
 1868 578 1868 578 1870 576 c 0,28,29
 1911 538 1911 538 1935 469 c 0,30,31
 1952 415 1952 415 1952 365 c 0,32,33
 1952 349 1952 349 1928 286 c 0,34,35
 1914 249 1914 249 1901 220.5 c 128,-1,36
 1888 192 1888 192 1872 166 c 1,37,38
 1887 152 1887 152 1936 144 c 0,39,40
 1960 141 1960 141 1999 141 c 2,41,-1
 2027 141 l 1,42,-1
 2027 0 l 1,43,-1
 2005 0 l 1,44,-1
 1990 0 l 1,45,-1
 1977 0 l 1,46,-1
 1966 0 l 2,47,48
 1947 0 1947 0 1930 1 c 128,-1,49
 1913 2 1913 2 1898 5 c 0,50,51
 1857 11 1857 11 1816 29 c 1,52,53
 1777 41 1777 41 1751 57 c 1,54,55
 1707 29 1707 29 1605 -4 c 0,56,57
 1565 -17 1565 -17 1513.5 -30 c 128,-1,58
 1462 -43 1462 -43 1398 -57 c 0,59,60
 1314 -76 1314 -76 1128 -97.5 c 128,-1,61
 942 -119 942 -119 775 -119 c 0,62,63
 664 -119 664 -119 566 -110 c 128,-1,64
 468 -101 468 -101 380 -82 c 0,65,66
 181 -40 181 -40 98 45 c 0,67,68
 63 79 63 79 45 137 c 0,69,70
 37 168 37 168 33 197.5 c 128,-1,71
 29 227 29 227 29 267 c 0,72,73
 29 312 29 312 50 371 c 0,74,75
 64 412 64 412 86 445 c 1,76,-1
 103 437 l 1,77,78
 94 418 94 418 81 374 c 0,79,80
 76 357 76 357 73 337.5 c 128,-1,81
 70 318 70 318 70 303 c 2,82,-1
 70 293 l 1,83,-1
 72 283 l 2,84,85
 81 223 81 223 111.5 183.5 c 128,-1,86
 142 144 142 144 199 117 c 0,87,88
 270 85 270 85 381 65 c 0,89,90
 443 55 443 55 492 49.5 c 128,-1,91
 541 44 541 44 587 44 c 0,92,93
 631 44 631 44 726 41.5 c 128,-1,94
 821 39 821 39 853 39 c 0,95,96
 1031 39 1031 39 1227 62 c 0,97,98
 1383 80 1383 80 1521 107 c 0,99,100
 1577 116 1577 116 1606.5 125.5 c 128,-1,101
 1636 135 1636 135 1642 148 c 1,16,17
EndSplineSet
EndChar

StartChar: afii62889
Encoding: 65555 -1 123
Width: 939
Flags: W
LayerCount: 2
Fore
SplineSet
697 158 m 1,0,1
 697 174 697 174 690 192 c 0,2,3
 685 210 685 210 672 230 c 0,4,5
 651 265 651 265 603.5 293 c 128,-1,6
 556 321 556 321 533 316 c 0,7,8
 498 307 498 307 482.5 291.5 c 128,-1,9
 467 276 467 276 467 244 c 0,10,11
 470 215 470 215 527.5 185.5 c 128,-1,12
 585 156 585 156 659 156 c 2,13,-1
 682 156 l 1,14,-1
 697 158 l 1,0,1
748 4 m 1,15,-1
 681 5 l 2,16,17
 669 5 669 5 652.5 6.5 c 128,-1,18
 636 8 636 8 611 12 c 2,19,-1
 542 25 l 2,20,21
 486 38 486 38 458 57 c 128,-1,22
 430 76 430 76 418.5 106.5 c 128,-1,23
 407 137 407 137 407 172 c 0,24,25
 407 250 407 250 453 343 c 0,26,27
 495 430 495 430 547 476 c 0,28,29
 563 490 563 490 584 490 c 0,30,31
 617 490 617 490 658 458 c 0,32,33
 687 436 687 436 711 404 c 0,34,35
 750 350 750 350 778 285 c 0,36,37
 792 253 792 253 800.5 222 c 128,-1,38
 809 191 809 191 816 150 c 1,39,40
 823 145 823 145 845 142 c 2,41,-1
 891 140 l 1,42,-1
 913 140 l 1,43,-1
 933 141 l 1,44,-1
 945 141 l 1,45,-1
 945 0 l 1,46,-1
 933 0 l 1,47,-1
 909 0 l 1,48,-1
 881 -1 l 2,49,50
 848 -1 848 -1 830 2 c 1,51,52
 830 -63 830 -63 814 -133 c 128,-1,53
 798 -203 798 -203 773 -260 c 0,54,55
 758 -299 758 -299 633 -339 c 0,56,57
 569 -359 569 -359 511 -369 c 128,-1,58
 453 -379 453 -379 392 -379 c 0,59,60
 237 -379 237 -379 142 -300 c 0,61,62
 21 -199 21 -199 21 14 c 0,63,64
 21 85 21 85 44 157 c 0,65,66
 52 185 52 185 67 221.5 c 128,-1,67
 82 258 82 258 109 314 c 1,68,-1
 125 305 l 1,69,70
 95 232 95 232 80.5 178 c 128,-1,71
 66 124 66 124 66 75 c 2,72,-1
 67 40 l 1,73,-1
 70 18 l 2,74,75
 85 -115 85 -115 195 -174 c 0,76,77
 276 -219 276 -219 401 -219 c 2,78,-1
 429 -219 l 1,79,-1
 455 -217 l 1,80,81
 550 -217 550 -217 654.5 -183 c 128,-1,82
 759 -149 759 -149 775 -117 c 2,83,-1
 778 -109 l 1,84,-1
 779 -98 l 2,85,86
 779 -76 779 -76 771 -53 c 0,87,88
 767 -39 767 -39 762 -26.5 c 128,-1,89
 757 -14 757 -14 748 4 c 1,15,-1
EndSplineSet
EndChar

StartChar: afii62887
Encoding: 65556 -1 124
Width: 1654
Flags: W
LayerCount: 2
Fore
SplineSet
1638 338 m 1,0,-1
 1639 321 l 1,1,-1
 1640 301 l 2,2,3
 1640 239 1640 239 1621 172 c 2,4,-1
 1605 123 l 1,5,6
 1596 111 1596 111 1545 96 c 0,7,8
 1506 84 1506 84 1378 55 c 0,9,10
 1285 34 1285 34 1105 13 c 0,11,12
 1015 4 1015 4 929 -1 c 128,-1,13
 843 -6 843 -6 759 -6 c 0,14,15
 537 -6 537 -6 367 30 c 0,16,17
 172 72 172 72 88 156 c 0,18,19
 50 192 50 192 34 249.5 c 128,-1,20
 18 307 18 307 18 377 c 0,21,22
 18 425 18 425 38 479 c 0,23,24
 55 528 55 528 72 551 c 1,25,-1
 88 543 l 1,26,27
 81 527 81 527 75 508 c 0,28,29
 74 503 74 503 68 483 c 0,30,31
 57 439 57 439 57 409 c 2,32,-1
 59 387 l 2,33,34
 68 327 68 327 99 290 c 0,35,36
 127 258 127 258 185 230 c 0,37,38
 253 198 253 198 364 177 c 0,39,40
 425 167 425 167 473.5 160.5 c 128,-1,41
 522 154 522 154 574 154 c 0,42,43
 613 154 613 154 698 151 c 128,-1,44
 783 148 783 148 830 148 c 0,45,46
 954 148 954 148 1071 158 c 0,47,48
 1115 158 1115 158 1147.5 161.5 c 128,-1,49
 1180 165 1180 165 1312 185 c 0,50,51
 1399 197 1399 197 1492 215 c 0,52,53
 1548 224 1548 224 1551 226 c 0,54,55
 1586 235 1586 235 1591 250 c 1,56,57
 1582 331 1582 331 1529 393 c 2,58,-1
 1462 465 l 1,59,-1
 1476 528 l 2,60,61
 1488 572 1488 572 1501 590 c 1,62,63
 1531 569 1531 569 1574 502 c 0,64,65
 1625 419 1625 419 1638 338 c 1,0,-1
EndSplineSet
EndChar

StartChar: afii62888
Encoding: 1697 1697 125
Width: 1915
GlyphClass: 2
Flags: W
LayerCount: 2
Fore
SplineSet
1874 361 m 0,0,1
 1874 300 1874 300 1837 226 c 0,2,3
 1794 139 1794 139 1740 82 c 0,4,5
 1724 60 1724 60 1635 30 c 0,6,7
 1557 5 1557 5 1443 -21 c 0,8,9
 1343 -42 1343 -42 1182 -60 c 0,10,11
 1088 -70 1088 -70 993 -76 c 128,-1,12
 898 -82 898 -82 820 -82 c 0,13,14
 709 -82 709 -82 611 -73 c 128,-1,15
 513 -64 513 -64 425 -45 c 0,16,17
 229 -3 229 -3 144 82 c 0,18,19
 106 118 106 118 90 175.5 c 128,-1,20
 74 233 74 233 74 303 c 0,21,22
 74 349 74 349 95 408 c 0,23,24
 109 449 109 449 131 482 c 1,25,-1
 148 474 l 1,26,27
 139 455 139 455 126 411 c 0,28,29
 121 394 121 394 118 374.5 c 128,-1,30
 115 355 115 355 115 340 c 2,31,-1
 115 330 l 1,32,-1
 117 320 l 2,33,34
 126 260 126 260 156.5 220.5 c 128,-1,35
 187 181 187 181 244 154 c 0,36,37
 315 122 315 122 426 102 c 0,38,39
 488 92 488 92 537 86.5 c 128,-1,40
 586 81 586 81 632 81 c 0,41,42
 676 81 676 81 771 78.5 c 128,-1,43
 866 76 866 76 898 76 c 0,44,45
 1076 76 1076 76 1272 99 c 0,46,47
 1428 117 1428 117 1566 144 c 0,48,49
 1655 159 1655 159 1715 185 c 0,50,51
 1777 209 1777 209 1792 238 c 0,52,53
 1798 246 1798 246 1799 258 c 2,54,-1
 1801 278 l 2,55,56
 1801 294 1801 294 1800 302 c 128,-1,57
 1799 310 1799 310 1793.5 327.5 c 128,-1,58
 1788 345 1788 345 1785 353 c 128,-1,59
 1782 361 1782 361 1773 377 c 1,60,61
 1758 362 1758 362 1748 330.5 c 128,-1,62
 1738 299 1738 299 1726 287 c 0,63,64
 1684 240 1684 240 1612 240 c 0,65,66
 1559 240 1559 240 1509 273 c 0,67,68
 1484 291 1484 291 1473 320.5 c 128,-1,69
 1462 350 1462 350 1462 386 c 0,70,71
 1462 467 1462 467 1511 571 c 0,72,73
 1556 668 1556 668 1609 713 c 0,74,75
 1624 728 1624 728 1648 728 c 0,76,77
 1680 728 1680 728 1721 696 c 0,78,79
 1752 672 1752 672 1773 644 c 0,80,81
 1818 583 1818 583 1846 509 c 128,-1,82
 1874 435 1874 435 1874 361 c 0,0,1
1747 431 m 1,83,-1
 1746 449 l 2,84,85
 1744 452 1744 452 1743 454 c 0,86,87
 1739 461 1739 461 1732 469 c 0,88,89
 1713 506 1713 506 1665.5 533.5 c 128,-1,90
 1618 561 1618 561 1595 556 c 0,91,92
 1562 547 1562 547 1542.5 527.5 c 128,-1,93
 1523 508 1523 508 1523 476 c 0,94,95
 1523 453 1523 453 1562 431 c 0,96,97
 1602 412 1602 412 1654 412 c 0,98,99
 1700 412 1700 412 1747 431 c 1,83,-1
EndSplineSet
Substitution2: "'medi' Medial Forms in Arabic lookup 3 subtable" afii57374
Substitution2: "'fina' Terminal Forms in Arabic lookup 2 subtable" afii52258
Substitution2: "'init' Initial Forms in Arabic lookup 1 subtable" afii57459
EndChar

StartChar: afii57567
Encoding: 1705 1705 132
Width: 1497
GlyphClass: 2
Flags: W
AnchorPoint: "Anchor-3" 480 -465 basechar 0
AnchorPoint: "Anchor-2" 450 960 basechar 0
LayerCount: 2
Fore
SplineSet
500 0 m 2,0,1
 288 0 288 0 226 12 c 0,2,3
 154 27 154 27 88 90 c 0,4,5
 50 126 50 126 34 183.5 c 128,-1,6
 18 241 18 241 18 312 c 0,7,8
 18 357 18 357 40 416 c 0,9,10
 57 462 57 462 76 490 c 1,11,-1
 92 482 l 1,12,-1
 71 419 l 2,13,14
 60 378 60 378 60 350 c 2,15,-1
 62 328 l 2,16,17
 71 268 71 268 101 229 c 128,-1,18
 131 190 131 190 189 162 c 0,19,20
 201 156 201 156 232 150.5 c 128,-1,21
 263 145 263 145 303 145 c 2,22,-1
 508 141 l 1,23,-1
 865 141 l 2,24,25
 903 141 903 141 939 147 c 0,26,27
 989 156 989 156 1014 175 c 128,-1,28
 1039 194 1039 194 1056 219 c 0,29,30
 1069 238 1069 238 1074 254 c 1,31,32
 1052 295 1052 295 1003 357 c 2,33,-1
 929 449 l 1,34,-1
 894 420 l 1,35,-1
 833 530 l 2,36,37
 784 623 784 623 785 627 c 0,38,39
 785 665 785 665 815 781.5 c 128,-1,40
 845 898 845 898 863 914 c 1,41,-1
 1064 975 l 1,42,-1
 1419 1084 l 1,43,-1
 1624 1144 l 1,44,45
 1621 1115 1621 1115 1600.5 1056 c 128,-1,46
 1580 997 1580 997 1566 984 c 1,47,-1
 888 777 l 2,48,49
 871 772 871 772 871 751 c 0,50,51
 872 744 872 744 873 742 c 2,52,-1
 942 641 l 1,53,-1
 1018 530 l 1,54,-1
 1080 439 l 2,55,56
 1095 417 1095 417 1106 377 c 0,57,58
 1115 339 1115 339 1115 297 c 0,59,60
 1115 239 1115 239 1099.5 181.5 c 128,-1,61
 1084 124 1084 124 1056 84 c 0,62,63
 1023 36 1023 36 961 14 c 0,64,65
 919 0 919 0 869 0 c 2,66,-1
 500 0 l 2,0,1
EndSplineSet
Substitution2: "'medi' Medial Forms in Arabic lookup 3 subtable" afii52306
Substitution2: "'fina' Terminal Forms in Arabic lookup 2 subtable" afii62964
Substitution2: "'init' Initial Forms in Arabic lookup 1 subtable" afii52305
EndChar

StartChar: afii62964
Encoding: 64399 64399 133
Width: 1462
GlyphClass: 2
Flags: W
AnchorPoint: "Anchor-3" 540 -525 basechar 0
AnchorPoint: "Anchor-2" 495 930 basechar 0
LayerCount: 2
Fore
SplineSet
804 141 m 1,0,-1
 837 141 l 2,1,2
 908 141 908 141 943 154 c 0,3,4
 999 175 999 175 999 231 c 0,5,6
 999 263 999 263 980 310 c 1,7,-1
 910 414 l 1,8,-1
 814 558 l 2,9,10
 763 636 763 636 750 662 c 1,11,12
 750 683 750 683 756 716 c 128,-1,13
 762 749 762 749 776 805 c 0,14,15
 801 910 801 910 820 927 c 1,16,-1
 1574 1089 l 1,17,18
 1571 1064 1571 1064 1548 1009 c 0,19,20
 1527 951 1527 951 1513 939 c 1,21,-1
 845 789 l 2,22,23
 825 783 825 783 825 770 c 0,24,25
 825 763 825 763 830 754 c 0,26,27
 852 715 852 715 924 611 c 2,28,-1
 1058 424 l 1,29,-1
 1154 293 l 2,30,31
 1204 226 1204 226 1234 199 c 0,32,33
 1298 141 1298 141 1355 141 c 2,34,-1
 1468 141 l 1,35,-1
 1468 0 l 1,36,-1
 1369 0 l 2,37,38
 1316 0 1316 0 1276 11 c 0,39,40
 1211 28 1211 28 1177 66 c 2,41,-1
 1109 142 l 2,42,43
 1061 201 1061 201 1031 250 c 1,44,45
 1034 233 1034 233 1035 225 c 128,-1,46
 1036 217 1036 217 1036 198 c 0,47,48
 1036 166 1036 166 1027 134 c 0,49,50
 1024 125 1024 125 1019 110.5 c 128,-1,51
 1014 96 1014 96 1005 80 c 0,52,53
 976 33 976 33 919 12 c 0,54,55
 883 0 883 0 834 0 c 2,56,-1
 508 0 l 1,57,-1
 466 0 l 1,58,-1
 433 0 l 1,59,-1
 406 0 l 1,60,-1
 385 0 l 1,61,-1
 368 0 l 1,62,-1
 354 0 l 1,63,-1
 342 0 l 2,64,65
 299 0 299 0 280 5 c 0,66,67
 166 16 166 16 90 90 c 0,68,69
 55 124 55 124 37 182 c 0,70,71
 29 213 29 213 25 242.5 c 128,-1,72
 21 272 21 272 21 312 c 0,73,74
 21 356 21 356 42 416 c 0,75,76
 58 460 58 460 78 490 c 1,77,-1
 94 482 l 1,78,-1
 73 419 l 2,79,80
 62 378 62 378 62 350 c 2,81,-1
 64 328 l 2,82,83
 73 268 73 268 103 229 c 128,-1,84
 133 190 133 190 191 162 c 0,85,86
 203 156 203 156 234 150.5 c 128,-1,87
 265 145 265 145 305 145 c 2,88,-1
 510 141 l 1,89,-1
 804 141 l 1,0,-1
EndSplineSet
EndChar

StartChar: afii52305
Encoding: 64400 64400 134
Width: 732
GlyphClass: 2
Flags: W
AnchorPoint: "Anchor-3" 150 -510 basechar 0
AnchorPoint: "Anchor-2" 255 1200 basechar 0
LayerCount: 2
Fore
SplineSet
291 84 m 0,0,1
 258 36 258 36 196 14 c 0,2,3
 154 0 154 0 105 0 c 2,4,-1
 -4 0 l 1,5,-1
 -4 141 l 1,6,-1
 100 141 l 2,7,8
 138 141 138 141 174 147 c 0,9,10
 224 156 224 156 248 174 c 0,11,12
 259 183 259 183 266 190 c 0,13,14
 279 203 279 203 292 219 c 0,15,16
 303 235 303 235 310 254 c 1,17,18
 290 290 290 290 238 357 c 2,19,-1
 164 449 l 1,20,-1
 129 420 l 1,21,-1
 68 530 l 2,22,23
 19 620 19 620 21 627 c 0,24,25
 21 672 21 672 50 784 c 128,-1,26
 79 896 79 896 98 914 c 1,27,-1
 299 975 l 1,28,-1
 654 1084 l 1,29,-1
 859 1144 l 1,30,31
 856 1116 856 1116 835.5 1056.5 c 128,-1,32
 815 997 815 997 802 984 c 1,33,-1
 123 777 l 2,34,35
 107 772 107 772 107 751 c 0,36,37
 108 744 108 744 109 742 c 2,38,-1
 244 544 l 1,39,-1
 316 439 l 2,40,41
 350 386 350 386 350 297 c 0,42,43
 350 239 350 239 334.5 181.5 c 128,-1,44
 319 124 319 124 291 84 c 0,0,1
EndSplineSet
EndChar

StartChar: afii52306
Encoding: 64401 64401 135
Width: 697
GlyphClass: 2
Flags: W
AnchorPoint: "Anchor-3" 315 -450 basechar 0
AnchorPoint: "Anchor-2" 225 1215 basechar 0
LayerCount: 2
Fore
SplineSet
66 754 m 0,0,1
 86 716 86 716 160 611 c 2,2,-1
 292 425 l 2,3,4
 309 402 309 402 348 349 c 0,5,6
 384 300 384 300 390 293 c 0,7,8
 436 229 436 229 469 199 c 0,9,10
 532 141 532 141 590 141 c 2,11,-1
 703 141 l 1,12,-1
 703 0 l 1,13,-1
 605 0 l 2,14,15
 551 0 551 0 511 11 c 0,16,17
 447 27 447 27 411 65 c 2,18,-1
 344 142 l 2,19,20
 303 192 303 192 267 250 c 1,21,-1
 272 199 l 2,22,23
 272 164 272 164 263 134 c 0,24,25
 259 119 259 119 254 107 c 128,-1,26
 249 95 249 95 240 80 c 0,27,28
 212 33 212 33 155 12 c 0,29,30
 119 0 119 0 70 0 c 2,31,-1
 -6 0 l 1,32,-1
 -6 141 l 1,33,-1
 39 141 l 1,34,-1
 72 141 l 2,35,36
 143 141 143 141 178 154 c 0,37,38
 234 175 234 175 234 231 c 0,39,40
 234 263 234 263 215 310 c 1,41,-1
 145 414 l 1,42,-1
 49 558 l 2,43,44
 -1 637 -1 637 -14 662 c 1,45,46
 -14 706 -14 706 10.5 807.5 c 128,-1,47
 35 909 35 909 55 927 c 1,48,-1
 810 1089 l 1,49,50
 807 1063 807 1063 784 1007.5 c 128,-1,51
 761 952 761 952 748 939 c 1,52,-1
 80 789 l 2,53,54
 61 781 61 781 61 770 c 0,55,56
 61 763 61 763 66 754 c 0,0,1
EndSplineSet
EndChar

StartChar: afii57509
Encoding: 1711 1711 136
Width: 1497
GlyphClass: 2
Flags: W
AnchorPoint: "Anchor-3" 495 -450 basechar 0
AnchorPoint: "Anchor-2" 465 945 basechar 0
LayerCount: 2
Fore
SplineSet
1583 1187 m 1,0,1
 1527 1169 1527 1169 1485 1156.5 c 128,-1,2
 1443 1144 1443 1144 1397 1131 c 2,3,-1
 1047 1026 l 1,4,-1
 845 966 l 1,5,6
 845 985 845 985 855 1021 c 128,-1,7
 865 1057 865 1057 877 1072 c 1,8,9
 889 1079 889 1079 1073 1133 c 2,10,-1
 1419 1233 l 2,11,12
 1591 1284 1591 1284 1617 1289 c 1,13,14
 1617 1267 1617 1267 1605.5 1234 c 128,-1,15
 1594 1201 1594 1201 1583 1187 c 1,0,1
500 0 m 2,16,17
 288 0 288 0 226 12 c 0,18,19
 154 27 154 27 88 90 c 0,20,21
 50 126 50 126 34 183.5 c 128,-1,22
 18 241 18 241 18 312 c 0,23,24
 18 357 18 357 40 416 c 0,25,26
 57 462 57 462 76 490 c 1,27,-1
 92 482 l 1,28,-1
 71 419 l 2,29,30
 60 378 60 378 60 350 c 2,31,-1
 62 328 l 2,32,33
 71 268 71 268 101 229 c 128,-1,34
 131 190 131 190 189 162 c 0,35,36
 201 156 201 156 232 150.5 c 128,-1,37
 263 145 263 145 303 145 c 2,38,-1
 508 141 l 1,39,-1
 865 141 l 2,40,41
 903 141 903 141 939 147 c 0,42,43
 989 156 989 156 1014 175 c 128,-1,44
 1039 194 1039 194 1056 219 c 0,45,46
 1069 238 1069 238 1074 254 c 1,47,48
 1052 295 1052 295 1003 357 c 2,49,-1
 929 449 l 1,50,-1
 894 420 l 1,51,-1
 833 530 l 2,52,53
 784 623 784 623 785 627 c 0,54,55
 785 665 785 665 815 781.5 c 128,-1,56
 845 898 845 898 863 914 c 1,57,-1
 1064 975 l 1,58,-1
 1419 1084 l 1,59,-1
 1624 1144 l 1,60,61
 1621 1115 1621 1115 1600.5 1056 c 128,-1,62
 1580 997 1580 997 1566 984 c 1,63,-1
 888 777 l 2,64,65
 871 772 871 772 871 751 c 0,66,67
 872 744 872 744 873 742 c 2,68,-1
 942 641 l 1,69,-1
 1018 530 l 1,70,-1
 1080 439 l 2,71,72
 1095 417 1095 417 1106 377 c 0,73,74
 1115 339 1115 339 1115 297 c 0,75,76
 1115 239 1115 239 1099.5 181.5 c 128,-1,77
 1084 124 1084 124 1056 84 c 0,78,79
 1023 36 1023 36 961 14 c 0,80,81
 919 0 919 0 869 0 c 2,82,-1
 500 0 l 2,16,17
EndSplineSet
Substitution2: "'medi' Medial Forms in Arabic lookup 3 subtable" afii62966
Substitution2: "'fina' Terminal Forms in Arabic lookup 2 subtable" afii62967
Substitution2: "'init' Initial Forms in Arabic lookup 1 subtable" afii62965
EndChar

StartChar: afii62967
Encoding: 64403 64403 137
Width: 1462
GlyphClass: 2
Flags: W
AnchorPoint: "Anchor-3" 510 -510 basechar 0
AnchorPoint: "Anchor-2" 495 960 basechar 0
LayerCount: 2
Fore
SplineSet
1344 1116 m 1,0,-1
 988 1035 l 1,1,-1
 781 990 l 1,2,3
 786 1017 786 1017 798 1049.5 c 128,-1,4
 810 1082 810 1082 822 1095 c 1,5,6
 833 1101 833 1101 1016 1141 c 2,7,-1
 1376 1220 l 2,8,9
 1420 1229 1420 1229 1488 1245 c 0,10,11
 1540 1256 1540 1256 1574 1261 c 1,12,13
 1569 1235 1569 1235 1558 1205 c 0,14,15
 1544 1171 1544 1171 1533 1160 c 1,16,-1
 1344 1116 l 1,0,-1
804 141 m 1,17,-1
 837 141 l 2,18,19
 908 141 908 141 943 154 c 0,20,21
 999 175 999 175 999 231 c 0,22,23
 999 263 999 263 980 310 c 1,24,-1
 910 414 l 1,25,-1
 814 558 l 2,26,27
 763 636 763 636 750 662 c 1,28,29
 750 683 750 683 756 716 c 128,-1,30
 762 749 762 749 776 805 c 0,31,32
 801 910 801 910 820 927 c 1,33,-1
 1574 1089 l 1,34,35
 1571 1064 1571 1064 1548 1009 c 0,36,37
 1527 951 1527 951 1513 939 c 1,38,-1
 845 789 l 2,39,40
 825 783 825 783 825 770 c 0,41,42
 825 763 825 763 830 754 c 0,43,44
 852 715 852 715 924 611 c 2,45,-1
 1058 424 l 1,46,-1
 1154 293 l 2,47,48
 1204 226 1204 226 1234 199 c 0,49,50
 1298 141 1298 141 1355 141 c 2,51,-1
 1468 141 l 1,52,-1
 1468 0 l 1,53,-1
 1369 0 l 2,54,55
 1316 0 1316 0 1276 11 c 0,56,57
 1211 28 1211 28 1177 66 c 2,58,-1
 1109 142 l 2,59,60
 1061 201 1061 201 1031 250 c 1,61,62
 1034 233 1034 233 1035 225 c 128,-1,63
 1036 217 1036 217 1036 198 c 0,64,65
 1036 166 1036 166 1027 134 c 0,66,67
 1024 125 1024 125 1019 110.5 c 128,-1,68
 1014 96 1014 96 1005 80 c 0,69,70
 976 33 976 33 919 12 c 0,71,72
 883 0 883 0 834 0 c 2,73,-1
 508 0 l 1,74,-1
 466 0 l 1,75,-1
 433 0 l 1,76,-1
 406 0 l 1,77,-1
 385 0 l 1,78,-1
 368 0 l 1,79,-1
 354 0 l 1,80,-1
 342 0 l 2,81,82
 299 0 299 0 280 5 c 0,83,84
 166 16 166 16 90 90 c 0,85,86
 55 124 55 124 37 182 c 0,87,88
 29 213 29 213 25 242.5 c 128,-1,89
 21 272 21 272 21 312 c 0,90,91
 21 356 21 356 42 416 c 0,92,93
 58 460 58 460 78 490 c 1,94,-1
 94 482 l 1,95,-1
 73 419 l 2,96,97
 62 378 62 378 62 350 c 2,98,-1
 64 328 l 2,99,100
 73 268 73 268 103 229 c 128,-1,101
 133 190 133 190 191 162 c 0,102,103
 203 156 203 156 234 150.5 c 128,-1,104
 265 145 265 145 305 145 c 2,105,-1
 510 141 l 1,106,-1
 804 141 l 1,17,-1
EndSplineSet
EndChar

StartChar: afii62965
Encoding: 64404 64404 138
Width: 732
GlyphClass: 2
Flags: W
AnchorPoint: "Anchor-3" 165 -480 basechar 0
AnchorPoint: "Anchor-2" 240 1305 basechar 0
LayerCount: 2
Fore
SplineSet
291 84 m 0,0,1
 258 36 258 36 196 14 c 0,2,3
 154 0 154 0 105 0 c 2,4,-1
 -4 0 l 1,5,-1
 -4 141 l 1,6,-1
 100 141 l 2,7,8
 138 141 138 141 174 147 c 0,9,10
 224 156 224 156 248 174 c 0,11,12
 259 183 259 183 266 190 c 0,13,14
 279 203 279 203 292 219 c 0,15,16
 303 235 303 235 310 254 c 1,17,18
 290 290 290 290 238 357 c 2,19,-1
 164 449 l 1,20,-1
 129 420 l 1,21,-1
 68 530 l 2,22,23
 19 620 19 620 21 627 c 0,24,25
 21 672 21 672 50 784 c 128,-1,26
 79 896 79 896 98 914 c 1,27,-1
 299 975 l 1,28,-1
 654 1084 l 1,29,-1
 859 1144 l 1,30,31
 856 1116 856 1116 835.5 1056.5 c 128,-1,32
 815 997 815 997 802 984 c 1,33,-1
 123 777 l 2,34,35
 107 772 107 772 107 751 c 0,36,37
 108 744 108 744 109 742 c 2,38,-1
 244 544 l 1,39,-1
 316 439 l 2,40,41
 350 386 350 386 350 297 c 0,42,43
 350 239 350 239 334.5 181.5 c 128,-1,44
 319 124 319 124 291 84 c 0,0,1
818 1187 m 1,45,46
 762 1169 762 1169 720 1156.5 c 128,-1,47
 678 1144 678 1144 632 1131 c 2,48,-1
 283 1026 l 1,49,-1
 80 966 l 1,50,51
 80 985 80 985 90 1022 c 0,52,53
 102 1058 102 1058 113 1072 c 0,54,55
 123 1079 123 1079 308 1133 c 2,56,-1
 654 1233 l 2,57,58
 829 1284 829 1284 853 1289 c 1,59,60
 853 1278 853 1278 850 1263.5 c 128,-1,61
 847 1249 847 1249 842 1234 c 0,62,63
 831 1201 831 1201 818 1187 c 1,45,46
EndSplineSet
EndChar

StartChar: afii62966
Encoding: 64405 64405 139
Width: 697
GlyphClass: 2
Flags: W
AnchorPoint: "Anchor-3" 270 -495 basechar 0
AnchorPoint: "Anchor-2" 255 1395 basechar 0
LayerCount: 2
Fore
SplineSet
810 1089 m 1,0,1
 807 1063 807 1063 784 1007.5 c 128,-1,2
 761 952 761 952 748 939 c 1,3,-1
 80 789 l 2,4,5
 61 781 61 781 61 770 c 0,6,7
 61 763 61 763 66 754 c 0,8,9
 86 716 86 716 160 611 c 2,10,-1
 292 425 l 2,11,12
 309 402 309 402 348 349 c 0,13,14
 384 300 384 300 390 293 c 0,15,16
 436 229 436 229 469 199 c 0,17,18
 532 141 532 141 590 141 c 2,19,-1
 703 141 l 1,20,-1
 703 0 l 1,21,-1
 605 0 l 2,22,23
 551 0 551 0 511 11 c 0,24,25
 447 27 447 27 411 65 c 2,26,-1
 344 142 l 2,27,28
 303 192 303 192 267 250 c 1,29,-1
 272 199 l 2,30,31
 272 164 272 164 263 134 c 0,32,33
 259 119 259 119 254 107 c 128,-1,34
 249 95 249 95 240 80 c 0,35,36
 212 33 212 33 155 12 c 0,37,38
 119 0 119 0 70 0 c 2,39,-1
 -6 0 l 1,40,-1
 -6 141 l 1,41,-1
 39 141 l 1,42,-1
 72 141 l 2,43,44
 143 141 143 141 178 154 c 0,45,46
 234 175 234 175 234 231 c 0,47,48
 234 263 234 263 215 310 c 1,49,-1
 145 414 l 1,50,-1
 49 558 l 2,51,52
 -1 637 -1 637 -14 662 c 1,53,54
 -14 706 -14 706 10.5 807.5 c 128,-1,55
 35 909 35 909 55 927 c 1,56,-1
 810 1089 l 1,0,1
579 1116 m 1,57,-1
 219 1034 l 2,58,59
 46 994 46 994 16 990 c 1,60,61
 20 1006 20 1006 24 1020.5 c 128,-1,62
 28 1035 28 1035 33 1049 c 0,63,64
 45 1083 45 1083 57 1095 c 0,65,66
 66 1099 66 1099 259 1142 c 0,67,68
 373 1169 373 1169 443 1184 c 0,69,70
 491 1195 491 1195 608 1219 c 2,71,-1
 810 1261 l 1,72,73
 805 1235 805 1235 794 1205 c 0,74,75
 780 1172 780 1172 769 1160 c 1,76,-1
 579 1116 l 1,57,-1
EndSplineSet
EndChar

StartChar: afii57555
Encoding: 1740 1740 140
Width: 1084
GlyphClass: 2
Flags: W
AnchorPoint: "Anchor-3" 360 -825 basechar 0
AnchorPoint: "Anchor-2" 435 885 basechar 0
LayerCount: 2
Fore
SplineSet
1056 80 m 0,0,1
 1057 78 1057 78 1057 69 c 0,2,3
 1057 43 1057 43 1040 -21 c 0,4,5
 1018 -109 1018 -109 996 -141 c 0,6,7
 972 -170 972 -170 883 -220 c 0,8,9
 776 -279 776 -279 668 -316 c 0,10,11
 525 -363 525 -363 410 -363 c 0,12,13
 266 -363 266 -363 179 -306 c 0,14,15
 62 -230 62 -230 37 -47 c 1,16,-1
 34 3 l 1,17,18
 34 111 34 111 93 303 c 2,19,-1
 141 457 l 1,20,-1
 160 447 l 1,21,-1
 119 310 l 2,22,23
 97 239 97 239 86 185 c 0,24,25
 71 117 71 117 71 76 c 2,26,-1
 72 57 l 1,27,28
 80 -6 80 -6 125 -59 c 0,29,30
 148 -85 148 -85 199 -123 c 0,31,32
 228 -144 228 -144 294 -162 c 128,-1,33
 360 -180 360 -180 433 -180 c 0,34,35
 474 -180 474 -180 502 -176 c 0,36,37
 642 -159 642 -159 794.5 -110 c 128,-1,38
 947 -61 947 -61 968 -27 c 1,39,40
 968 -12 968 -12 912 6 c 1,41,-1
 818 29 l 2,42,43
 736 46 736 46 666 76 c 0,44,45
 577 112 577 112 570 146 c 0,46,47
 569 153 569 153 569 159 c 0,48,49
 569 187 569 187 582.5 269 c 128,-1,50
 596 351 596 351 605 369 c 0,51,52
 658 490 658 490 775 561 c 0,53,54
 876 623 876 623 969 623 c 0,55,56
 1018 623 1018 623 1039 603 c 0,57,58
 1047 595 1047 595 1051.5 572 c 128,-1,59
 1056 549 1056 549 1056 518 c 2,60,-1
 1055 484 l 2,61,62
 1052 455 1052 455 1041 445 c 1,63,64
 1029 450 1029 450 1016 454 c 128,-1,65
 1003 458 1003 458 982.5 462 c 128,-1,66
 962 466 962 466 950.5 466.5 c 128,-1,67
 939 467 939 467 932 467 c 0,68,69
 823 467 823 467 725 382 c 0,70,71
 642 311 642 311 648 285 c 0,72,73
 660 247 660 247 757 214 c 1,74,-1
 936 163 l 1,75,76
 1037 128 1037 128 1056 80 c 0,0,1
EndSplineSet
Substitution2: "'medi' Medial Forms in Arabic lookup 3 subtable" afii62832
Substitution2: "'fina' Terminal Forms in Arabic lookup 2 subtable" afii52364
Substitution2: "'init' Initial Forms in Arabic lookup 1 subtable" uniFBFE
EndChar

StartChar: afii52364
Encoding: 64509 64509 141
Width: 986
GlyphClass: 2
Flags: W
AnchorPoint: "Anchor-3" 330 -1020 basechar 0
AnchorPoint: "Anchor-2" 465 555 basechar 0
LayerCount: 2
Fore
SplineSet
994 0 m 1,0,-1
 968 0 l 2,1,2
 802 0 802 0 732 -22 c 0,3,4
 682 -37 682 -37 691 -57 c 1,5,6
 740 -76 740 -76 794 -99.5 c 128,-1,7
 848 -123 848 -123 878 -137 c 0,8,9
 966 -179 966 -179 984 -223 c 0,10,11
 985 -226 985 -226 985 -235 c 0,12,13
 985 -249 985 -249 981.5 -269.5 c 128,-1,14
 978 -290 978 -290 970 -323 c 0,15,16
 952 -408 952 -408 929 -441 c 0,17,18
 909 -464 909 -464 826 -506 c 0,19,20
 733 -553 733 -553 631 -581 c 0,21,22
 503 -617 503 -617 396 -617 c 2,23,-1
 375 -617 l 1,24,-1
 357 -617 l 1,25,-1
 340 -615 l 2,26,27
 205 -603 205 -603 124.5 -525 c 128,-1,28
 44 -447 44 -447 25 -301 c 1,29,-1
 22 -252 l 1,30,31
 22 -142 22 -142 80 48 c 2,32,-1
 129 203 l 1,33,-1
 148 193 l 1,34,-1
 89 -7 l 2,35,36
 74 -64 74 -64 66 -107 c 128,-1,37
 58 -150 58 -150 58 -179 c 2,38,-1
 59 -197 l 1,39,40
 79 -356 79 -356 161 -410 c 0,41,42
 238 -459 238 -459 445 -459 c 0,43,44
 572 -459 572 -459 725 -403 c 0,45,46
 862 -355 862 -355 890 -318 c 1,47,48
 890 -302 890 -302 853 -275 c 0,49,50
 816 -250 816 -250 779 -236 c 2,51,-1
 649 -188 l 1,52,53
 590 -161 590 -161 584 -133 c 0,54,55
 581 -110 581 -110 606.5 -41 c 128,-1,56
 632 28 632 28 646 49 c 0,57,58
 661 75 661 75 722 103 c 0,59,60
 804 141 804 141 898 141 c 2,61,-1
 994 141 l 1,62,-1
 994 0 l 1,0,-1
EndSplineSet
EndChar

StartChar: afii62945
Encoding: 65557 -1 147
Width: 1302
GlyphClass: 3
Flags: W
LayerCount: 2
Fore
SplineSet
1248 228 m 2,0,1
 1248 165 1248 165 1214 85 c 0,2,3
 1184 16 1184 16 1164 6 c 0,4,5
 1150 2 1150 2 1135.5 0 c 128,-1,6
 1121 -2 1121 -2 1100 -2 c 2,7,-1
 1088 -3 l 2,8,9
 1045 -3 1045 -3 1004 13 c 0,10,11
 953 32 953 32 918 72 c 0,12,13
 896 97 896 97 886 123.5 c 128,-1,14
 876 150 876 150 871 189 c 1,15,16
 862 153 862 153 851.5 128 c 128,-1,17
 841 103 841 103 816 72 c 0,18,19
 781 27 781 27 753 10 c 0,20,21
 732 -2 732 -2 697 -2 c 0,22,23
 661 -2 661 -2 637.5 4 c 128,-1,24
 614 10 614 10 595 29 c 0,25,26
 559 62 559 62 531 125 c 128,-1,27
 503 188 503 188 486 299 c 1,28,29
 463 268 463 268 458 261 c 0,30,31
 449 249 449 249 427 223 c 0,32,33
 378 165 378 165 353 144 c 1,34,-1
 309 137 l 1,35,-1
 238 134 l 2,36,37
 172 134 172 134 115 143 c 128,-1,38
 58 152 58 152 41 170 c 1,39,40
 41 189 41 189 73 234 c 0,41,42
 98 268 98 268 144 320 c 1,43,-1
 176 343 l 2,44,45
 206 362 206 362 237 374 c 2,46,-1
 318 402 l 1,47,-1
 480 453 l 1,48,-1
 480 601 l 1,49,-1
 523 689 l 1,50,-1
 533 683 l 1,51,52
 525 624 525 624 525 536 c 0,53,54
 525 441 525 441 535.5 367 c 128,-1,55
 546 293 546 293 574 236 c 0,56,57
 592 198 592 198 617 173 c 0,58,59
 653 139 653 139 693 139 c 0,60,61
 717 139 717 139 735 145 c 128,-1,62
 753 151 753 151 779.5 168.5 c 128,-1,63
 806 186 806 186 833.5 228.5 c 128,-1,64
 861 271 861 271 869 322 c 1,65,66
 869 356 869 356 867 413 c 128,-1,67
 865 470 865 470 865 494 c 0,68,69
 865 534 865 534 862.5 556 c 128,-1,70
 860 578 860 578 853 611 c 0,71,72
 850 628 850 628 841 654 c 0,73,74
 835 680 835 680 828 695 c 1,75,-1
 882 791 l 1,76,77
 890 785 890 785 903 729 c 0,78,79
 908 708 908 708 912 681 c 128,-1,80
 916 654 916 654 916 638 c 2,81,-1
 922 560 l 1,82,-1
 927 484 l 1,83,-1
 930 361 l 2,84,85
 930 327 930 327 932 309 c 128,-1,86
 934 291 934 291 939 265 c 128,-1,87
 944 239 944 239 960 207 c 0,88,89
 977 177 977 177 1000 162 c 1,90,-1
 1038 145 l 2,91,92
 1071 134 1071 134 1106 134 c 2,93,-1
 1145 137 l 2,94,95
 1168 140 1168 140 1180 145 c 0,96,97
 1195 148 1195 148 1196 156 c 2,98,-1
 1198 174 l 1,99,-1
 1199 205 l 2,100,101
 1199 227 1199 227 1197 256 c 0,102,103
 1192 329 1192 329 1192 358 c 0,104,105
 1192 401 1192 401 1188 431 c 128,-1,106
 1184 461 1184 461 1175 505 c 0,107,108
 1166 565 1166 565 1149 609 c 0,109,110
 1134 656 1134 656 1117 674 c 1,111,-1
 1177 773 l 1,112,113
 1192 746 1192 746 1209 674 c 1,114,-1
 1230 556 l 2,115,116
 1238 507 1238 507 1241 483 c 128,-1,117
 1244 459 1244 459 1244 425 c 2,118,-1
 1248 295 l 1,119,-1
 1248 228 l 2,0,1
486 318 m 1,120,-1
 482 419 l 1,121,-1
 482 433 l 1,122,123
 451 402 451 402 406 365 c 0,124,125
 381 347 381 347 310 327 c 0,126,127
 188 294 188 294 185 283 c 1,128,129
 188 274 188 274 240 267 c 0,130,131
 266 264 266 264 292.5 262 c 128,-1,132
 319 260 319 260 347 260 c 0,133,134
 414 260 414 260 433 271 c 0,135,136
 460 283 460 283 486 318 c 1,120,-1
EndSplineSet
EndChar

StartChar: afii64184
Encoding: 65010 65010 148
Width: 1302
GlyphClass: 3
Flags: W
AnchorPoint: "Anchor-1" 1080 -465 baselig 0
AnchorPoint: "Anchor-0" 1200 870 baselig 0
AnchorPoint: "Anchor-1" 765 -435 baselig 1
AnchorPoint: "Anchor-0" 840 810 baselig 1
AnchorPoint: "Anchor-1" 345 -420 baselig 2
AnchorPoint: "Anchor-0" 285 750 baselig 2
LayerCount: 2
Fore
SplineSet
855 1089 m 1,0,-1
 834 1105 l 1,1,-1
 835 1115 l 1,2,-1
 836 1134 l 2,3,4
 836 1178 836 1178 827 1214 c 0,5,6
 814 1267 814 1267 779 1306 c 1,7,-1
 793 1341 l 2,8,9
 824 1415 824 1415 836 1433 c 1,10,11
 857 1368 857 1368 870 1304 c 0,12,13
 875 1278 875 1278 878 1252 c 128,-1,14
 881 1226 881 1226 881 1206 c 0,15,16
 881 1160 881 1160 871 1129 c 2,17,-1
 855 1089 l 1,0,-1
1019 1099 m 1,18,19
 1027 1083 1027 1083 1027 1044 c 256,20,21
 1027 1005 1027 1005 1022 974 c 128,-1,22
 1017 943 1017 943 1004 907 c 0,23,24
 977 830 977 830 933 830 c 0,25,26
 913 830 913 830 895 848 c 0,27,28
 881 865 881 865 867 902 c 1,29,30
 853 868 853 868 827 845 c 128,-1,31
 801 822 801 822 771 822 c 2,32,-1
 756 824 l 2,33,34
 729 830 729 830 716.5 853.5 c 128,-1,35
 704 877 704 877 704 910 c 0,36,37
 704 936 704 936 710 962.5 c 128,-1,38
 716 989 716 989 728 1011 c 1,39,-1
 771 1037 l 1,40,-1
 761 1006 l 2,41,42
 755 983 755 983 755 965 c 256,43,44
 755 947 755 947 761 935 c 128,-1,45
 767 923 767 923 783 920 c 0,46,47
 813 915 813 915 834 961 c 0,48,49
 851 1000 851 1000 851 1029 c 1,50,-1
 892 1043 l 1,51,52
 892 990 892 990 896 971 c 0,53,54
 904 933 904 933 930 933 c 0,55,56
 973 933 973 933 973 968 c 0,57,58
 973 996 973 996 953 1019 c 1,59,-1
 1019 1099 l 1,18,19
1248 228 m 2,60,61
 1248 165 1248 165 1214 85 c 0,62,63
 1184 16 1184 16 1164 6 c 0,64,65
 1150 2 1150 2 1135.5 0 c 128,-1,66
 1121 -2 1121 -2 1100 -2 c 2,67,-1
 1088 -3 l 2,68,69
 1045 -3 1045 -3 1004 13 c 0,70,71
 953 32 953 32 918 72 c 0,72,73
 896 97 896 97 886 123.5 c 128,-1,74
 876 150 876 150 871 189 c 1,75,76
 862 153 862 153 851.5 128 c 128,-1,77
 841 103 841 103 816 72 c 0,78,79
 781 27 781 27 753 10 c 0,80,81
 732 -2 732 -2 697 -2 c 0,82,83
 661 -2 661 -2 637.5 4 c 128,-1,84
 614 10 614 10 595 29 c 0,85,86
 559 62 559 62 531 125 c 128,-1,87
 503 188 503 188 486 299 c 1,88,89
 463 268 463 268 458 261 c 0,90,91
 449 249 449 249 427 223 c 0,92,93
 378 165 378 165 353 144 c 1,94,-1
 309 137 l 1,95,-1
 238 134 l 2,96,97
 172 134 172 134 115 143 c 128,-1,98
 58 152 58 152 41 170 c 1,99,100
 41 189 41 189 73 234 c 0,101,102
 98 268 98 268 144 320 c 1,103,-1
 176 343 l 2,104,105
 206 362 206 362 237 374 c 2,106,-1
 318 402 l 1,107,-1
 480 453 l 1,108,-1
 480 601 l 1,109,-1
 523 689 l 1,110,-1
 533 683 l 1,111,112
 525 624 525 624 525 536 c 0,113,114
 525 441 525 441 535.5 367 c 128,-1,115
 546 293 546 293 574 236 c 0,116,117
 592 198 592 198 617 173 c 0,118,119
 653 139 653 139 693 139 c 0,120,121
 717 139 717 139 735 145 c 128,-1,122
 753 151 753 151 779.5 168.5 c 128,-1,123
 806 186 806 186 833.5 228.5 c 128,-1,124
 861 271 861 271 869 322 c 1,125,126
 869 356 869 356 867 413 c 128,-1,127
 865 470 865 470 865 494 c 0,128,129
 865 534 865 534 862.5 556 c 128,-1,130
 860 578 860 578 853 611 c 0,131,132
 850 628 850 628 841 654 c 0,133,134
 835 680 835 680 828 695 c 1,135,-1
 882 791 l 1,136,137
 890 785 890 785 903 729 c 0,138,139
 908 708 908 708 912 681 c 128,-1,140
 916 654 916 654 916 638 c 2,141,-1
 922 560 l 1,142,-1
 927 484 l 1,143,-1
 930 361 l 2,144,145
 930 327 930 327 932 309 c 128,-1,146
 934 291 934 291 939 265 c 128,-1,147
 944 239 944 239 960 207 c 0,148,149
 977 177 977 177 1000 162 c 1,150,-1
 1038 145 l 2,151,152
 1071 134 1071 134 1106 134 c 2,153,-1
 1145 137 l 2,154,155
 1168 140 1168 140 1180 145 c 0,156,157
 1195 148 1195 148 1196 156 c 2,158,-1
 1198 174 l 1,159,-1
 1199 205 l 2,160,161
 1199 227 1199 227 1197 256 c 0,162,163
 1192 329 1192 329 1192 358 c 0,164,165
 1192 401 1192 401 1188 431 c 128,-1,166
 1184 461 1184 461 1175 505 c 0,167,168
 1166 565 1166 565 1149 609 c 0,169,170
 1134 656 1134 656 1117 674 c 1,171,-1
 1177 773 l 1,172,173
 1192 746 1192 746 1209 674 c 1,174,-1
 1230 556 l 2,175,176
 1238 507 1238 507 1241 483 c 128,-1,177
 1244 459 1244 459 1244 425 c 2,178,-1
 1248 295 l 1,179,-1
 1248 228 l 2,60,61
486 318 m 1,180,-1
 482 419 l 1,181,-1
 482 433 l 1,182,183
 451 402 451 402 406 365 c 0,184,185
 381 347 381 347 310 327 c 0,186,187
 188 294 188 294 185 283 c 1,188,189
 188 274 188 274 240 267 c 0,190,191
 266 264 266 264 292.5 262 c 128,-1,192
 319 260 319 260 347 260 c 0,193,194
 414 260 414 260 433 271 c 0,195,196
 460 283 460 283 486 318 c 1,180,-1
EndSplineSet
Ligature2: "'rlig' Required Ligatures in Arabic lookup 5 subtable" afii62817 afii62818 uniFC63 afii62828
Ligature2: "'rlig' Required Ligatures in Arabic lookup 5 subtable" afii62817 afii62818 afii57457 uni0670 afii62828
EndChar

StartChar: afii57415.001
Encoding: 1575 1575 162
Width: 269
GlyphClass: 2
Flags: W
AnchorPoint: "Anchor-3" 135 -345 basechar 0
AnchorPoint: "Anchor-2" 105 1020 basechar 0
LayerCount: 2
Fore
SplineSet
197 314 m 0,0,1
 197 267 197 267 192 239 c 2,2,-1
 183 178 l 2,3,4
 180 151 180 151 168 106 c 0,5,6
 153 46 153 46 129 -6 c 1,7,-1
 115 0 l 1,8,-1
 125 34 l 1,9,-1
 133 70 l 1,10,-1
 142 158 l 1,11,-1
 144 228 l 2,12,13
 144 280 144 280 124 401 c 0,14,15
 114 474 114 474 87 622 c 0,16,17
 66 745 66 745 66 763 c 0,18,19
 66 804 66 804 89 844 c 2,20,-1
 125 902 l 1,21,-1
 133 894 l 1,22,-1
 130 858 l 1,23,-1
 129 830 l 2,24,25
 129 826 129 826 133.5 794.5 c 128,-1,26
 138 763 138 763 146 715 c 2,27,-1
 179 502 l 2,28,29
 197 370 197 370 197 314 c 0,0,1
EndSplineSet
Substitution2: "'fina' Terminal Forms in Arabic lookup 2 subtable" afii62760
EndChar

StartChar: afii62760.001
Encoding: 65558 -1 163
Width: 478
GlyphClass: 2
Flags: W
LayerCount: 2
Fore
SplineSet
486 0 m 1,0,-1
 443 0 l 2,1,2
 400 0 400 0 352 19 c 0,3,4
 291 42 291 42 257.5 80.5 c 128,-1,5
 224 119 224 119 214.5 161 c 128,-1,6
 205 203 205 203 205 276 c 2,7,-1
 205 314 l 2,8,9
 205 424 205 424 187 534 c 1,10,-1
 161 657 l 2,11,12
 140 751 140 751 139 756 c 2,13,-1
 187 851 l 1,14,15
 192 847 192 847 203 800 c 0,16,17
 208 775 208 775 211 754 c 128,-1,18
 214 733 214 733 217 711 c 0,19,20
 248 437 248 437 254 305 c 0,21,22
 254 270 254 270 284 231 c 0,23,24
 309 200 309 200 340 180 c 0,25,26
 365 165 365 165 396 153 c 128,-1,27
 427 141 427 141 447 141 c 2,28,-1
 486 141 l 1,29,-1
 486 0 l 1,0,-1
EndSplineSet
EndChar

StartChar: afii57421
Encoding: 1581 1581 182
Width: 966
GlyphClass: 2
Flags: W
AnchorPoint: "Anchor-3" 390 -1320 basechar 0
AnchorPoint: "Anchor-2" 525 705 basechar 0
LayerCount: 2
Fore
SplineSet
1146 -654 m 1,0,-1
 1144 -681 l 1,1,-1
 827 -822 l 2,2,3
 728 -866 728 -866 707 -871 c 0,4,5
 665 -880 665 -880 611 -880 c 0,6,7
 492 -880 492 -880 365 -841 c 128,-1,8
 238 -802 238 -802 176 -740 c 0,9,10
 131 -695 131 -695 96 -622 c 0,11,12
 48 -520 48 -520 48 -400 c 0,13,14
 48 -339 48 -339 58 -283 c 128,-1,15
 68 -227 68 -227 94 -156 c 0,16,17
 145 -15 145 -15 240 86 c 0,18,19
 307 159 307 159 398 209 c 2,20,-1
 494 260 l 1,21,22
 451 275 451 275 384.5 287 c 128,-1,23
 318 299 318 299 260 299 c 0,24,25
 207 299 207 299 176 282 c 0,26,27
 133 261 133 261 98 199 c 1,28,-1
 84 205 l 1,29,30
 120 313 120 313 162 364 c 0,31,32
 222 435 222 435 318 435 c 2,33,-1
 348 435 l 1,34,-1
 367 431 l 1,35,-1
 516 408 l 2,36,37
 525 407 525 407 555 400.5 c 128,-1,38
 585 394 585 394 625 385 c 0,39,40
 641 382 641 382 676 379.5 c 128,-1,41
 711 377 711 377 736 377 c 2,42,-1
 876 377 l 1,43,-1
 964 377 l 1,44,-1
 898 250 l 1,45,46
 800 250 800 250 677 226 c 0,47,48
 583 208 583 208 531 187 c 0,49,50
 371 124 371 124 266 18 c 0,51,52
 188 -60 188 -60 143 -163 c 0,53,54
 125 -205 125 -205 100 -295 c 0,55,56
 94 -318 94 -318 94 -343 c 0,57,58
 94 -427 94 -427 152.5 -509.5 c 128,-1,59
 211 -592 211 -592 305 -638 c 0,60,61
 335 -652 335 -652 381.5 -665 c 128,-1,62
 428 -678 428 -678 485 -688 c 0,63,64
 602 -708 602 -708 734 -708 c 0,65,66
 842 -708 842 -708 942 -695 c 0,67,68
 993 -689 993 -689 1044 -679 c 128,-1,69
 1095 -669 1095 -669 1146 -654 c 1,0,-1
EndSplineSet
Substitution2: "'medi' Medial Forms in Arabic lookup 3 subtable" afii62775
Substitution2: "'fina' Terminal Forms in Arabic lookup 2 subtable" afii62776
Substitution2: "'init' Initial Forms in Arabic lookup 1 subtable" afii62774
EndChar

StartChar: afii62776
Encoding: 65186 65186 183
Width: 966
GlyphClass: 2
Flags: W
AnchorPoint: "Anchor-3" 360 -1320 basechar 0
AnchorPoint: "Anchor-2" 570 705 basechar 0
LayerCount: 2
Fore
SplineSet
697 226 m 1,0,1
 640 217 640 217 594 205 c 0,2,3
 551 196 551 196 531 187 c 0,4,5
 371 124 371 124 266 18 c 0,6,7
 188 -60 188 -60 143 -163 c 0,8,9
 125 -205 125 -205 100 -295 c 0,10,11
 94 -318 94 -318 94 -343 c 0,12,13
 94 -427 94 -427 152.5 -509.5 c 128,-1,14
 211 -592 211 -592 305 -638 c 0,15,16
 335 -652 335 -652 381.5 -665 c 128,-1,17
 428 -678 428 -678 485 -688 c 0,18,19
 602 -708 602 -708 734 -708 c 0,20,21
 842 -708 842 -708 942 -695 c 0,22,23
 993 -689 993 -689 1044 -679 c 128,-1,24
 1095 -669 1095 -669 1146 -654 c 1,25,-1
 1144 -681 l 1,26,-1
 827 -822 l 2,27,28
 728 -866 728 -866 707 -871 c 0,29,30
 665 -880 665 -880 611 -880 c 0,31,32
 492 -880 492 -880 365 -841 c 128,-1,33
 238 -802 238 -802 176 -740 c 0,34,35
 131 -695 131 -695 96 -622 c 0,36,37
 48 -520 48 -520 48 -400 c 0,38,39
 48 -339 48 -339 58 -283 c 128,-1,40
 68 -227 68 -227 94 -156 c 0,41,42
 145 -15 145 -15 240 86 c 0,43,44
 307 159 307 159 398 209 c 2,45,-1
 494 260 l 1,46,47
 451 275 451 275 384.5 287 c 128,-1,48
 318 299 318 299 260 299 c 0,49,50
 207 299 207 299 176 282 c 0,51,52
 133 261 133 261 98 199 c 1,53,-1
 84 205 l 1,54,55
 120 313 120 313 162 364 c 0,56,57
 222 435 222 435 318 435 c 2,58,-1
 348 435 l 1,59,-1
 367 431 l 1,60,-1
 516 408 l 2,61,62
 525 407 525 407 555 400.5 c 128,-1,63
 585 394 585 394 625 385 c 0,64,65
 641 382 641 382 676 379.5 c 128,-1,66
 711 377 711 377 736 377 c 2,67,-1
 876 377 l 1,68,-1
 964 377 l 1,69,-1
 898 250 l 1,70,71
 860 250 860 250 815 243 c 2,72,-1
 744 234 l 1,73,74
 744 198 744 198 792.5 169.5 c 128,-1,75
 841 141 841 141 914 141 c 2,76,-1
 970 141 l 1,77,-1
 970 0 l 1,78,-1
 898 0 l 2,79,80
 829 0 829 0 773 30 c 128,-1,81
 717 60 717 60 699 111 c 0,82,83
 690 135 690 135 690 174 c 0,84,85
 690 202 690 202 697 226 c 1,0,1
EndSplineSet
EndChar

StartChar: afii62774
Encoding: 65187 65187 184
Width: 1048
GlyphClass: 2
Flags: W
AnchorPoint: "Anchor-3" 375 -435 basechar 0
AnchorPoint: "Anchor-2" 435 735 basechar 0
LayerCount: 2
Fore
SplineSet
1066 305 m 1,0,-1
 998 174 l 1,1,2
 957 182 957 182 909 186 c 2,3,-1
 819 191 l 1,4,5
 744 191 744 191 685 182 c 128,-1,6
 626 173 626 173 595 160 c 0,7,8
 535 136 535 136 435 87 c 0,9,10
 349 46 349 46 290 26 c 0,11,12
 206 0 206 0 119 0 c 2,13,-1
 -8 0 l 1,14,-1
 -8 141 l 1,15,-1
 119 141 l 2,16,17
 245 141 245 141 404 195 c 0,18,19
 548 243 548 243 560 275 c 1,20,21
 520 301 520 301 432.5 329 c 128,-1,22
 345 357 345 357 274 357 c 0,23,24
 243 357 243 357 213 351 c 0,25,26
 141 336 141 336 97.5 301.5 c 128,-1,27
 54 267 54 267 10 195 c 1,28,-1
 -4 201 l 1,29,30
 52 334 52 334 128 407 c 0,31,32
 219 490 219 490 344 490 c 0,33,34
 425 490 425 490 499 464 c 0,35,36
 515 459 515 459 633 407 c 0,37,38
 717 370 717 370 787 355 c 2,39,-1
 919 327 l 1,40,-1
 1066 305 l 1,0,-1
EndSplineSet
EndChar

StartChar: afii62775
Encoding: 65188 65188 185
Width: 1074
GlyphClass: 2
Flags: W
AnchorPoint: "Anchor-3" 450 -540 basechar 0
AnchorPoint: "Anchor-2" 420 750 basechar 0
LayerCount: 2
Fore
SplineSet
1068 344 m 1,0,-1
 1011 207 l 1,1,-1
 958 211 l 1,2,-1
 924 212 l 1,3,-1
 884 211 l 1,4,-1
 845 211 l 1,5,6
 854 181 854 181 884 163 c 0,7,8
 923 141 923 141 994 141 c 2,9,-1
 1080 141 l 1,10,-1
 1080 0 l 1,11,-1
 974 0 l 2,12,13
 894 0 894 0 841 39 c 0,14,15
 803 68 803 68 785 117 c 1,16,-1
 779 155 l 1,17,-1
 777 203 l 1,18,19
 725 197 725 197 673 182 c 0,20,21
 635 172 635 172 609 158 c 2,22,-1
 451 78 l 2,23,24
 412 60 412 60 371.5 45 c 128,-1,25
 331 30 331 30 291 19 c 0,26,27
 253 10 253 10 211.5 5 c 128,-1,28
 170 0 170 0 121 0 c 2,29,-1
 -8 0 l 1,30,-1
 -8 141 l 1,31,-1
 121 141 l 2,32,33
 250 141 250 141 404.5 190 c 128,-1,34
 559 239 559 239 568 271 c 1,35,36
 503 304 503 304 438 325 c 0,37,38
 390 341 390 341 348.5 349 c 128,-1,39
 307 357 307 357 269 357 c 0,40,41
 242 357 242 357 215 351 c 0,42,43
 143 336 143 336 99.5 301.5 c 128,-1,44
 56 267 56 267 12 195 c 1,45,-1
 -2 201 l 1,46,47
 54 334 54 334 130 407 c 0,48,49
 221 490 221 490 346 490 c 0,50,51
 432 490 432 490 521 458 c 0,52,53
 637 417 637 417 708 393 c 0,54,55
 771 372 771 372 785 369 c 2,56,-1
 926 351 l 2,57,58
 960 348 960 348 995 346 c 128,-1,59
 1030 344 1030 344 1068 344 c 1,0,-1
EndSplineSet
EndChar

StartChar: afii57423
Encoding: 1583 1583 190
Width: 666
GlyphClass: 2
Flags: W
AnchorPoint: "Anchor-3" 255 -480 basechar 0
AnchorPoint: "Anchor-2" 285 825 basechar 0
LayerCount: 2
Fore
SplineSet
650 182 m 0,0,1
 650 171 650 171 632 110.5 c 128,-1,2
 614 50 614 50 605 39 c 0,3,4
 581 16 581 16 517.5 2.5 c 128,-1,5
 454 -11 454 -11 378 -11 c 0,6,7
 300 -11 300 -11 237 1 c 128,-1,8
 174 13 174 13 158 35 c 0,9,10
 123 85 123 85 123 139 c 0,11,12
 123 187 123 187 152 273 c 1,13,-1
 162 271 l 1,14,-1
 157 244 l 1,15,-1
 155 219 l 2,16,17
 155 207 155 207 159 191 c 128,-1,18
 163 175 163 175 219 151 c 0,19,20
 273 131 273 131 334 123 c 0,21,22
 353 123 353 123 362 121 c 2,23,-1
 380 121 l 1,24,-1
 394 121 l 1,25,-1
 407 121 l 2,26,27
 428 121 428 121 450.5 122 c 128,-1,28
 473 123 473 123 494 126 c 0,29,30
 550 132 550 132 574 141 c 1,31,32
 550 231 550 231 504 311 c 0,33,34
 445 415 445 415 377 439 c 1,35,-1
 352 445 l 1,36,-1
 327 447 l 1,37,-1
 292 444 l 1,38,-1
 267 439 l 1,39,-1
 263 456 l 1,40,-1
 262 480 l 2,41,42
 260 496 260 496 269 524.5 c 128,-1,43
 278 553 278 553 297 578 c 1,44,45
 316 586 316 586 344 586 c 0,46,47
 370 586 370 586 390.5 582 c 128,-1,48
 411 578 411 578 437 566 c 0,49,50
 503 538 503 538 557 443 c 0,51,52
 596 374 596 374 627 278 c 0,53,54
 650 201 650 201 650 182 c 0,0,1
EndSplineSet
Substitution2: "'fina' Terminal Forms in Arabic lookup 2 subtable" afii62780
PairPos2: "'kern' Horizontal Kerning in Arabic lookup 0 subtable" afii57410 dx=0 dy=0 dh=0 dv=0 dx=0 dy=0 dh=-200 dv=0
PairPos2: "'kern' Horizontal Kerning in Arabic lookup 0 subtable" afii57434 dx=0 dy=0 dh=0 dv=0 dx=0 dy=0 dh=-100 dv=0
PairPos2: "'kern' Horizontal Kerning in Arabic lookup 0 subtable" afii57433 dx=0 dy=0 dh=0 dv=0 dx=0 dy=0 dh=-100 dv=0
PairPos2: "'kern' Horizontal Kerning in Arabic lookup 0 subtable" afii62965 dx=0 dy=0 dh=0 dv=0 dx=0 dy=0 dh=-200 dv=0
PairPos2: "'kern' Horizontal Kerning in Arabic lookup 0 subtable" afii57509 dx=0 dy=0 dh=0 dv=0 dx=0 dy=0 dh=-200 dv=0
PairPos2: "'kern' Horizontal Kerning in Arabic lookup 0 subtable" afii52305 dx=0 dy=0 dh=0 dv=0 dx=0 dy=0 dh=-200 dv=0
PairPos2: "'kern' Horizontal Kerning in Arabic lookup 0 subtable" afii57567 dx=0 dy=0 dh=0 dv=0 dx=0 dy=0 dh=-200 dv=0
EndChar

StartChar: afii62780
Encoding: 65194 65194 191
Width: 1050
GlyphClass: 2
Flags: W
AnchorPoint: "Anchor-3" 360 -480 basechar 0
AnchorPoint: "Anchor-2" 720 960 basechar 0
LayerCount: 2
Fore
SplineSet
1065 0 m 1,0,-1
 989 0 l 2,1,2
 943 0 943 0 900 34 c 0,3,4
 887 44 887 44 851 86 c 1,5,-1
 823 125 l 1,6,-1
 784 185 l 2,7,8
 778 194 778 194 771 194 c 0,9,10
 765 194 765 194 757 189 c 0,11,12
 709 121 709 121 608 61 c 0,13,14
 482 -14 482 -14 355 -14 c 0,15,16
 229 -14 229 -14 177 86 c 0,17,18
 142 154 142 154 142 271 c 0,19,20
 142 349 142 349 168 433 c 0,21,22
 186 493 186 493 216 554 c 1,23,-1
 226 543 l 1,24,25
 208 507 208 507 192 441.5 c 128,-1,26
 176 376 176 376 176 329 c 2,27,-1
 177 305 l 1,28,29
 186 215 186 215 260 174 c 0,30,31
 314 144 314 144 398 144 c 0,32,33
 511 144 511 144 620 206 c 0,34,35
 705 253 705 253 751 314 c 1,36,-1
 752 325 l 1,37,-1
 741 497 l 1,38,-1
 737 636 l 1,39,-1
 729 677 l 1,40,-1
 722 720 l 1,41,42
 726 733 726 733 732.5 749 c 128,-1,43
 739 765 739 765 750 789 c 0,44,45
 768 831 768 831 773 836 c 1,46,47
 781 830 781 830 782 814 c 0,48,49
 782 795 782 795 784 785 c 2,50,-1
 787 665 l 1,51,-1
 796 492 l 2,52,53
 796 426 796 426 805 372 c 128,-1,54
 814 318 814 318 839 273 c 0,55,56
 867 216 867 216 916 178.5 c 128,-1,57
 965 141 965 141 1022 141 c 2,58,-1
 1065 141 l 1,59,-1
 1065 0 l 1,0,-1
EndSplineSet
PairPos2: "'kern' Horizontal Kerning in Arabic lookup 0 subtable" afii57410 dx=0 dy=0 dh=0 dv=0 dx=0 dy=0 dh=-200 dv=0
PairPos2: "'kern' Horizontal Kerning in Arabic lookup 0 subtable" afii57434 dx=0 dy=0 dh=0 dv=0 dx=0 dy=0 dh=-100 dv=0
PairPos2: "'kern' Horizontal Kerning in Arabic lookup 0 subtable" afii57433 dx=0 dy=0 dh=0 dv=0 dx=0 dy=0 dh=-100 dv=0
PairPos2: "'kern' Horizontal Kerning in Arabic lookup 0 subtable" afii62965 dx=0 dy=0 dh=0 dv=0 dx=0 dy=0 dh=-200 dv=0
PairPos2: "'kern' Horizontal Kerning in Arabic lookup 0 subtable" afii57509 dx=0 dy=0 dh=0 dv=0 dx=0 dy=0 dh=-200 dv=0
PairPos2: "'kern' Horizontal Kerning in Arabic lookup 0 subtable" afii52305 dx=0 dy=0 dh=0 dv=0 dx=0 dy=0 dh=-200 dv=0
PairPos2: "'kern' Horizontal Kerning in Arabic lookup 0 subtable" afii57567 dx=0 dy=0 dh=0 dv=0 dx=0 dy=0 dh=-200 dv=0
EndChar

StartChar: afii57425
Encoding: 1585 1585 194
Width: 750
GlyphClass: 2
Flags: W
AnchorPoint: "Anchor-3" 240 -885 basechar 0
AnchorPoint: "Anchor-2" 480 720 basechar 0
LayerCount: 2
Fore
SplineSet
732 217 m 0,0,1
 732 151 732 151 723 93.5 c 128,-1,2
 714 36 714 36 694 -19 c 0,3,4
 667 -99 667 -99 612 -170 c 0,5,6
 578 -216 578 -216 541 -246 c 0,7,8
 495 -290 495 -290 405 -345 c 0,9,10
 323 -395 323 -395 283 -408 c 1,11,12
 235 -396 235 -396 146 -350 c 0,13,14
 87 -319 87 -319 6 -270 c 2,15,-1
 -59 -230 l 1,16,-1
 -53 -219 l 1,17,18
 -25 -232 -25 -232 1 -243 c 0,19,20
 41 -260 41 -260 74 -272 c 0,21,22
 136 -292 136 -292 182 -292 c 2,23,-1
 197 -292 l 1,24,-1
 207 -291 l 2,25,26
 239 -288 239 -288 311 -256 c 0,27,28
 409 -214 409 -214 485 -157 c 0,29,30
 586 -83 586 -83 638 6 c 1,31,-1
 660 56 l 2,32,33
 671 87 671 87 671 115 c 0,34,35
 671 138 671 138 666 152 c 0,36,37
 663 167 663 167 650 187 c 0,38,39
 617 243 617 243 602 259 c 2,40,-1
 529 338 l 1,41,-1
 586 515 l 1,42,43
 619 487 619 487 643 454 c 2,44,-1
 681 400 l 2,45,46
 703 369 703 369 716 333 c 0,47,48
 732 282 732 282 732 217 c 0,0,1
EndSplineSet
Substitution2: "'fina' Terminal Forms in Arabic lookup 2 subtable" afii62782
PairPos2: "'kern' Horizontal Kerning in Arabic lookup 1 subtable" afii57470 dx=0 dy=0 dh=0 dv=0 dx=0 dy=0 dh=-100 dv=0
PairPos2: "'kern' Horizontal Kerning in Arabic lookup 1 subtable" afii57415 dx=0 dy=0 dh=0 dv=0 dx=0 dy=0 dh=-150 dv=0
PairPos2: "'kern' Horizontal Kerning in Arabic lookup 1 subtable" afii62840 dx=0 dy=0 dh=0 dv=0 dx=0 dy=0 dh=-280 dv=0
PairPos2: "'kern' Horizontal Kerning in Arabic lookup 1 subtable" afii62838 dx=0 dy=0 dh=0 dv=0 dx=0 dy=0 dh=-280 dv=0
PairPos2: "'kern' Horizontal Kerning in Arabic lookup 1 subtable" afii62836 dx=0 dy=0 dh=0 dv=0 dx=0 dy=0 dh=-280 dv=0
PairPos2: "'kern' Horizontal Kerning in Arabic lookup 1 subtable" afii62834 dx=0 dy=0 dh=0 dv=0 dx=0 dy=0 dh=-280 dv=0
PairPos2: "'kern' Horizontal Kerning in Arabic lookup 1 subtable" afii57415.001 dx=0 dy=0 dh=0 dv=0 dx=0 dy=0 dh=-150 dv=0
PairPos2: "'kern' Horizontal Kerning in Arabic lookup 1 subtable" afii52400 dx=0 dy=0 dh=0 dv=0 dx=0 dy=0 dh=-150 dv=0
PairPos2: "'kern' Horizontal Kerning in Arabic lookup 0 subtable" afii57415 dx=0 dy=0 dh=0 dv=0 dx=0 dy=0 dh=-50 dv=0
PairPos2: "'kern' Horizontal Kerning in Arabic lookup 0 subtable" uni0675 dx=0 dy=0 dh=0 dv=0 dx=0 dy=0 dh=-50 dv=0
PairPos2: "'kern' Horizontal Kerning in Arabic lookup 0 subtable" uni0672 dx=0 dy=0 dh=0 dv=0 dx=0 dy=0 dh=-50 dv=0
PairPos2: "'kern' Horizontal Kerning in Arabic lookup 0 subtable" afii62831 dx=0 dy=0 dh=0 dv=0 dx=0 dy=0 dh=150 dv=0
PairPos2: "'kern' Horizontal Kerning in Arabic lookup 0 subtable" afii57444 dx=0 dy=0 dh=0 dv=0 dx=0 dy=0 dh=100 dv=0
PairPos2: "'kern' Horizontal Kerning in Arabic lookup 0 subtable" afii57410 dx=0 dy=0 dh=0 dv=0 dx=0 dy=0 dh=-450 dv=0
PairPos2: "'kern' Horizontal Kerning in Arabic lookup 0 subtable" afii57434 dx=0 dy=0 dh=0 dv=0 dx=0 dy=0 dh=-100 dv=0
PairPos2: "'kern' Horizontal Kerning in Arabic lookup 0 subtable" afii57433 dx=0 dy=0 dh=0 dv=0 dx=0 dy=0 dh=-100 dv=0
PairPos2: "'kern' Horizontal Kerning in Arabic lookup 0 subtable" afii62761 dx=0 dy=0 dh=0 dv=0 dx=0 dy=0 dh=150 dv=0
PairPos2: "'kern' Horizontal Kerning in Arabic lookup 0 subtable" afii57413 dx=0 dy=0 dh=0 dv=0 dx=0 dy=0 dh=200 dv=0
PairPos2: "'kern' Horizontal Kerning in Arabic lookup 0 subtable" afii57411 dx=0 dy=0 dh=0 dv=0 dx=0 dy=0 dh=-50 dv=0
PairPos2: "'kern' Horizontal Kerning in Arabic lookup 0 subtable" afii62965 dx=0 dy=0 dh=0 dv=0 dx=0 dy=0 dh=-450 dv=0
PairPos2: "'kern' Horizontal Kerning in Arabic lookup 0 subtable" afii57509 dx=0 dy=0 dh=0 dv=0 dx=0 dy=0 dh=-450 dv=0
PairPos2: "'kern' Horizontal Kerning in Arabic lookup 0 subtable" afii52305 dx=0 dy=0 dh=0 dv=0 dx=0 dy=0 dh=-450 dv=0
PairPos2: "'kern' Horizontal Kerning in Arabic lookup 0 subtable" afii57567 dx=0 dy=0 dh=0 dv=0 dx=0 dy=0 dh=-450 dv=0
PairPos2: "'kern' Horizontal Kerning in Arabic lookup 0 subtable" afii62956 dx=0 dy=0 dh=0 dv=0 dx=0 dy=0 dh=150 dv=0
EndChar

StartChar: afii62782
Encoding: 65198 65198 195
Width: 836
GlyphClass: 2
Flags: W
AnchorPoint: "Anchor-3" 225 -855 basechar 0
AnchorPoint: "Anchor-2" 360 570 basechar 0
LayerCount: 2
Fore
SplineSet
851 0 m 1,0,-1
 777 0 l 2,1,2
 754 0 754 0 721 12 c 2,3,-1
 652 43 l 1,4,-1
 631 39 l 1,5,6
 631 -17 631 -17 625 -53 c 0,7,8
 616 -108 616 -108 588 -156 c 0,9,10
 556 -212 556 -212 439 -310 c 128,-1,11
 322 -408 322 -408 295 -408 c 0,12,13
 212 -408 212 -408 96 -316 c 0,14,15
 5 -244 5 -244 -45 -172 c 1,16,-1
 -33 -164 l 1,17,18
 12 -221 12 -221 66 -260 c 0,19,20
 128 -305 128 -305 176 -305 c 0,21,22
 200 -305 200 -305 235 -292.5 c 128,-1,23
 270 -280 270 -280 305 -256 c 1,24,25
 379 -215 379 -215 493 -102 c 0,26,27
 599 4 599 4 599 27 c 0,28,29
 599 51 599 51 569 102 c 2,30,-1
 539 152 l 1,31,-1
 493 227 l 2,32,33
 474 262 474 262 474 269 c 2,34,-1
 486 330 l 2,35,36
 498 390 498 390 510 402 c 1,37,38
 538 364 538 364 578 298 c 2,39,-1
 611 240 l 2,40,41
 625 218 625 218 685 183 c 0,42,43
 754 141 754 141 802 141 c 2,44,-1
 851 141 l 1,45,-1
 851 0 l 1,0,-1
EndSplineSet
PairPos2: "'kern' Horizontal Kerning in Arabic lookup 1 subtable" afii57470 dx=0 dy=0 dh=0 dv=0 dx=0 dy=0 dh=-100 dv=0
PairPos2: "'kern' Horizontal Kerning in Arabic lookup 1 subtable" afii57415 dx=0 dy=0 dh=0 dv=0 dx=0 dy=0 dh=-150 dv=0
PairPos2: "'kern' Horizontal Kerning in Arabic lookup 1 subtable" afii62840 dx=0 dy=0 dh=0 dv=0 dx=0 dy=0 dh=-280 dv=0
PairPos2: "'kern' Horizontal Kerning in Arabic lookup 1 subtable" afii62838 dx=0 dy=0 dh=0 dv=0 dx=0 dy=0 dh=-280 dv=0
PairPos2: "'kern' Horizontal Kerning in Arabic lookup 1 subtable" afii62836 dx=0 dy=0 dh=0 dv=0 dx=0 dy=0 dh=-280 dv=0
PairPos2: "'kern' Horizontal Kerning in Arabic lookup 1 subtable" afii62834 dx=0 dy=0 dh=0 dv=0 dx=0 dy=0 dh=-280 dv=0
PairPos2: "'kern' Horizontal Kerning in Arabic lookup 1 subtable" afii57415.001 dx=0 dy=0 dh=0 dv=0 dx=0 dy=0 dh=-150 dv=0
PairPos2: "'kern' Horizontal Kerning in Arabic lookup 1 subtable" afii52400 dx=0 dy=0 dh=0 dv=0 dx=0 dy=0 dh=-150 dv=0
PairPos2: "'kern' Horizontal Kerning in Arabic lookup 0 subtable" afii57415 dx=0 dy=0 dh=0 dv=0 dx=0 dy=0 dh=-100 dv=0
PairPos2: "'kern' Horizontal Kerning in Arabic lookup 0 subtable" afii62831 dx=0 dy=0 dh=0 dv=0 dx=0 dy=0 dh=120 dv=0
PairPos2: "'kern' Horizontal Kerning in Arabic lookup 0 subtable" afii57450 dx=0 dy=0 dh=0 dv=0 dx=0 dy=0 dh=50 dv=0
PairPos2: "'kern' Horizontal Kerning in Arabic lookup 0 subtable" afii57449 dx=0 dy=0 dh=0 dv=0 dx=0 dy=0 dh=50 dv=0
PairPos2: "'kern' Horizontal Kerning in Arabic lookup 0 subtable" afii62817 dx=0 dy=0 dh=0 dv=0 dx=0 dy=0 dh=-70 dv=0
PairPos2: "'kern' Horizontal Kerning in Arabic lookup 0 subtable" afii57444 dx=0 dy=0 dh=0 dv=0 dx=0 dy=0 dh=40 dv=0
PairPos2: "'kern' Horizontal Kerning in Arabic lookup 0 subtable" afii57410 dx=0 dy=0 dh=0 dv=0 dx=0 dy=0 dh=-350 dv=0
PairPos2: "'kern' Horizontal Kerning in Arabic lookup 0 subtable" afii57443 dx=0 dy=0 dh=0 dv=0 dx=0 dy=0 dh=-70 dv=0
PairPos2: "'kern' Horizontal Kerning in Arabic lookup 0 subtable" afii57434 dx=0 dy=0 dh=0 dv=0 dx=0 dy=0 dh=-80 dv=0
PairPos2: "'kern' Horizontal Kerning in Arabic lookup 0 subtable" afii57433 dx=0 dy=0 dh=0 dv=0 dx=0 dy=0 dh=-80 dv=0
PairPos2: "'kern' Horizontal Kerning in Arabic lookup 0 subtable" afii62761 dx=0 dy=0 dh=0 dv=0 dx=0 dy=0 dh=120 dv=0
PairPos2: "'kern' Horizontal Kerning in Arabic lookup 0 subtable" afii57414 dx=0 dy=0 dh=0 dv=0 dx=0 dy=0 dh=50 dv=0
PairPos2: "'kern' Horizontal Kerning in Arabic lookup 0 subtable" afii57413 dx=0 dy=0 dh=0 dv=0 dx=0 dy=0 dh=120 dv=0
PairPos2: "'kern' Horizontal Kerning in Arabic lookup 0 subtable" afii57555 dx=0 dy=0 dh=0 dv=0 dx=0 dy=0 dh=50 dv=0
PairPos2: "'kern' Horizontal Kerning in Arabic lookup 0 subtable" afii62965 dx=0 dy=0 dh=0 dv=0 dx=0 dy=0 dh=-350 dv=0
PairPos2: "'kern' Horizontal Kerning in Arabic lookup 0 subtable" afii57509 dx=0 dy=0 dh=0 dv=0 dx=0 dy=0 dh=-350 dv=0
PairPos2: "'kern' Horizontal Kerning in Arabic lookup 0 subtable" afii52305 dx=0 dy=0 dh=0 dv=0 dx=0 dy=0 dh=-350 dv=0
PairPos2: "'kern' Horizontal Kerning in Arabic lookup 0 subtable" afii57567 dx=0 dy=0 dh=0 dv=0 dx=0 dy=0 dh=-350 dv=0
PairPos2: "'kern' Horizontal Kerning in Arabic lookup 0 subtable" afii62956 dx=0 dy=0 dh=0 dv=0 dx=0 dy=0 dh=120 dv=0
EndChar

StartChar: afii57427
Encoding: 1587 1587 198
Width: 1283
GlyphClass: 2
Flags: W
AnchorPoint: "Anchor-3" 330 -780 basechar 0
AnchorPoint: "Anchor-2" 720 675 basechar 0
LayerCount: 2
Fore
SplineSet
1269 209 m 0,0,1
 1258 127 1258 127 1217 40 c 0,2,3
 1205 11 1205 11 1177 -33 c 1,4,5
 1133 -33 1133 -33 1083 -6 c 1,6,-1
 998 57 l 1,7,8
 969 30 969 30 876 16 c 0,9,10
 845 12 845 12 816 10 c 128,-1,11
 787 8 787 8 750 8 c 0,12,13
 737 8 737 8 724 21 c 1,14,15
 724 -45 724 -45 714.5 -97.5 c 128,-1,16
 705 -150 705 -150 685 -191 c 0,17,18
 648 -257 648 -257 534 -303 c 0,19,20
 479 -325 479 -325 423 -337 c 128,-1,21
 367 -349 367 -349 314 -349 c 0,22,23
 196 -349 196 -349 121 -304 c 0,24,25
 36 -252 36 -252 16 -139 c 1,26,-1
 15 -125 l 1,27,-1
 15 -116 l 2,28,29
 15 -47 15 -47 58 95 c 0,30,31
 70 135 70 135 84 176.5 c 128,-1,32
 98 218 98 218 129 305 c 1,33,-1
 146 299 l 1,34,-1
 90 128 l 2,35,36
 53 11 53 11 53 -14 c 0,37,38
 53 -107 53 -107 121 -156 c 0,39,40
 170 -190 170 -190 281 -211 c 1,41,-1
 318 -215 l 1,42,-1
 340 -216 l 1,43,44
 452 -216 452 -216 562 -167.5 c 128,-1,45
 672 -119 672 -119 681 -64 c 1,46,-1
 682 -46 l 2,47,48
 682 8 682 8 642 103 c 0,49,50
 623 148 623 148 576 238 c 1,51,52
 576 272 576 272 595 317 c 0,53,54
 610 355 610 355 623 365 c 1,55,56
 643 327 643 327 672 257 c 0,57,58
 693 202 693 202 711 144 c 0,59,60
 714 142 714 142 718 140 c 128,-1,61
 722 138 722 138 738 135.5 c 128,-1,62
 754 133 754 133 788 133 c 0,63,64
 867 133 867 133 923 147 c 0,65,66
 1000 165 1000 165 1027 201 c 0,67,68
 1032 209 1032 209 1052 273 c 2,69,-1
 1082 383 l 1,70,-1
 1097 375 l 1,71,-1
 1071 272 l 2,72,73
 1046 168 1046 168 1048 156 c 1,74,75
 1057 140 1057 140 1096 113 c 0,76,77
 1134 90 1134 90 1151 85 c 2,78,-1
 1175 83 l 2,79,80
 1192 83 1192 83 1197.5 101 c 128,-1,81
 1203 119 1203 119 1203 141 c 0,82,83
 1203 171 1203 171 1194 206 c 2,84,-1
 1169 285 l 1,85,86
 1187 318 1187 318 1205 342 c 0,87,88
 1235 386 1235 386 1255 402 c 1,89,90
 1259 384 1259 384 1266 325 c 2,91,-1
 1271 240 l 1,92,-1
 1271 228 l 2,93,94
 1271 221 1271 221 1269 209 c 0,0,1
EndSplineSet
Substitution2: "'medi' Medial Forms in Arabic lookup 3 subtable" afii62785
Substitution2: "'fina' Terminal Forms in Arabic lookup 2 subtable" afii62786
Substitution2: "'init' Initial Forms in Arabic lookup 1 subtable" afii62784
EndChar

StartChar: afii62786
Encoding: 65202 65202 199
Width: 1632
GlyphClass: 2
Flags: W
AnchorPoint: "Anchor-3" 540 -765 basechar 0
AnchorPoint: "Anchor-2" 465 570 basechar 0
LayerCount: 2
Fore
SplineSet
744 41 m 1,0,1
 744 -26 744 -26 734 -87.5 c 128,-1,2
 724 -149 724 -149 703 -191 c 0,3,4
 668 -254 668 -254 549 -304 c 0,5,6
 439 -349 439 -349 332 -349 c 0,7,8
 214 -349 214 -349 140 -304 c 0,9,10
 55 -252 55 -252 35 -139 c 1,11,-1
 34 -125 l 1,12,-1
 34 -116 l 2,13,14
 34 -47 34 -47 77 95 c 0,15,16
 89 135 89 135 103 176.5 c 128,-1,17
 117 218 117 218 148 305 c 1,18,-1
 164 299 l 1,19,-1
 108 128 l 2,20,21
 69 5 69 5 72 -14 c 0,22,23
 72 -107 72 -107 139 -156 c 0,24,25
 188 -190 188 -190 299 -211 c 1,26,-1
 336 -215 l 1,27,-1
 358 -216 l 1,28,29
 470 -216 470 -216 580 -167.5 c 128,-1,30
 690 -119 690 -119 699 -64 c 1,31,-1
 700 -46 l 2,32,33
 700 8 700 8 660 103 c 0,34,35
 652 123 652 123 643 141 c 0,36,37
 623 183 623 183 595 238 c 1,38,39
 595 276 595 276 612 315.5 c 128,-1,40
 629 355 629 355 642 365 c 1,41,-1
 700 267 l 2,42,43
 707 254 707 254 717 232.5 c 128,-1,44
 727 211 727 211 732 197 c 1,45,46
 761 159 761 159 847 138 c 0,47,48
 915 123 915 123 1007 123 c 0,49,50
 1092 123 1092 123 1154 135 c 0,51,52
 1261 156 1261 156 1300 211 c 0,53,54
 1303 214 1303 214 1355 396 c 1,55,-1
 1369 385 l 1,56,-1
 1345 283 l 1,57,-1
 1320 166 l 1,58,-1
 1341 126 l 2,59,60
 1350 110 1350 110 1374 80 c 0,61,62
 1377 72 1377 72 1386 70 c 0,63,64
 1395 70 1395 70 1398 86 c 2,65,-1
 1474 369 l 1,66,-1
 1486 361 l 1,67,-1
 1451 209 l 1,68,69
 1461 173 1461 173 1517 153 c 0,70,71
 1553 141 1553 141 1591 141 c 2,72,-1
 1642 141 l 1,73,-1
 1642 0 l 1,74,-1
 1568 0 l 2,75,76
 1510 0 1510 0 1475 30 c 0,77,78
 1452 51 1452 51 1425 109 c 1,79,-1
 1392 -30 l 1,80,-1
 1374 -103 l 1,81,82
 1353 -91 1353 -91 1325 -38 c 2,83,-1
 1273 68 l 1,84,85
 1241 38 1241 38 1160 19 c 128,-1,86
 1079 0 1079 0 996 0 c 0,87,88
 908 0 908 0 842.5 12 c 128,-1,89
 777 24 777 24 744 41 c 1,0,1
EndSplineSet
EndChar

StartChar: afii62784
Encoding: 65203 65203 200
Width: 1082
GlyphClass: 2
Flags: W
AnchorPoint: "Anchor-3" 435 -585 basechar 0
AnchorPoint: "Anchor-2" 600 690 basechar 0
LayerCount: 2
Fore
SplineSet
1068 262 m 0,0,1
 1056 180 1056 180 1016 93 c 0,2,3
 1003 62 1003 62 976 21 c 1,4,5
 932 21 932 21 882 48 c 1,6,-1
 797 111 l 1,7,8
 761 76 761 76 640 57 c 2,9,-1
 515 41 l 1,10,-1
 463 37 l 2,11,12
 411 37 411 37 411 69 c 2,13,-1
 412 80 l 1,14,15
 376 59 376 59 274 32 c 0,16,17
 148 0 148 0 49 0 c 2,18,-1
 -4 0 l 1,19,-1
 -4 141 l 1,20,-1
 45 141 l 2,21,22
 165 141 165 141 291 168.5 c 128,-1,23
 417 196 417 196 474 234 c 0,24,25
 523 268 523 268 553 335 c 2,26,-1
 603 451 l 1,27,-1
 613 443 l 1,28,-1
 574 331 l 1,29,-1
 530 205 l 1,30,-1
 528 194 l 2,31,32
 528 188 528 188 535 187 c 2,33,-1
 568 187 l 2,34,35
 657 187 657 187 708 196 c 0,36,37
 793 211 793 211 826 254 c 1,38,-1
 851 326 l 1,39,-1
 882 437 l 1,40,-1
 896 428 l 1,41,-1
 870 325 l 2,42,43
 847 224 847 224 847 209 c 1,44,45
 855 194 855 194 895 167 c 0,46,47
 935 142 935 142 951 139 c 2,48,-1
 962 136 l 1,49,-1
 974 136 l 1,50,-1
 989 139 l 2,51,52
 995 142 995 142 996 152 c 0,53,54
 1002 173 1002 173 1002 194 c 0,55,56
 1002 223 1002 223 993 258 c 2,57,-1
 968 338 l 1,58,59
 986 371 986 371 1004 395 c 0,60,61
 1034 439 1034 439 1054 455 c 1,62,63
 1058 437 1058 437 1065 378 c 2,64,-1
 1070 293 l 1,65,-1
 1070 281 l 2,66,67
 1070 274 1070 274 1068 262 c 0,0,1
EndSplineSet
EndChar

StartChar: afii62785
Encoding: 65204 65204 201
Width: 982
GlyphClass: 2
Flags: W
AnchorPoint: "Anchor-3" 405 -525 basechar 0
AnchorPoint: "Anchor-2" 525 675 basechar 0
LayerCount: 2
Fore
SplineSet
992 0 m 1,0,-1
 916 0 l 2,1,2
 860 0 860 0 825 30 c 0,3,4
 802 50 802 50 775 109 c 1,5,-1
 742 -30 l 1,6,-1
 724 -103 l 1,7,8
 702 -91 702 -91 676 -38 c 2,9,-1
 623 68 l 1,10,11
 591 37 591 37 508 19.5 c 128,-1,12
 425 2 425 2 338 2 c 2,13,-1
 312 2 l 2,14,15
 268 2 268 2 257 7 c 128,-1,16
 246 12 246 12 234 37 c 1,17,18
 207 21 207 21 165 10 c 0,19,20
 120 0 120 0 66 0 c 2,21,-1
 -6 0 l 1,22,-1
 -6 141 l 1,23,-1
 41 141 l 2,24,25
 105 141 105 141 153 147 c 0,26,27
 250 159 250 159 298 193.5 c 128,-1,28
 346 228 346 228 375 294 c 2,29,-1
 426 408 l 1,30,-1
 441 402 l 1,31,-1
 355 164 l 2,32,33
 352 156 352 156 354 149 c 0,34,35
 355 145 355 145 361 144 c 2,36,-1
 394 144 l 2,37,38
 483 144 483 144 534 153 c 0,39,40
 619 168 619 168 650 211 c 1,41,42
 658 229 658 229 705 396 c 1,43,-1
 720 385 l 1,44,-1
 695 283 l 1,45,-1
 670 166 l 1,46,-1
 692 126 l 2,47,48
 699 114 699 114 706 103.5 c 128,-1,49
 713 93 713 93 724 80 c 0,50,51
 727 72 727 72 736 70 c 0,52,53
 745 70 745 70 748 86 c 2,54,-1
 824 369 l 1,55,-1
 836 361 l 1,56,-1
 802 209 l 1,57,58
 811 172 811 172 867 153 c 0,59,60
 903 141 903 141 941 141 c 2,61,-1
 992 141 l 1,62,-1
 992 0 l 1,0,-1
EndSplineSet
EndChar

StartChar: afii57429
Encoding: 1589 1589 206
Width: 1611
GlyphClass: 2
Flags: W
AnchorPoint: "Anchor-3" 690 -675 basechar 0
AnchorPoint: "Anchor-2" 780 735 basechar 0
LayerCount: 2
Fore
SplineSet
1593 344 m 0,0,1
 1593 308 1593 308 1554.5 236 c 128,-1,2
 1516 164 1516 164 1474 117 c 0,3,4
 1404 44 1404 44 1244 2 c 0,5,6
 1235 -1 1235 -1 1216 -3 c 128,-1,7
 1197 -5 1197 -5 1183 -5 c 2,8,-1
 1085 -7 l 1,9,-1
 1064 -7 l 1,10,-1
 1045 -7 l 1,11,-1
 1028 -7 l 1,12,-1
 1014 -7 l 1,13,-1
 1001 -7 l 1,14,-1
 963 -6 l 1,15,-1
 925 -6 l 1,16,-1
 914 -6 l 1,17,18
 904 -50 904 -50 885 -101 c 2,19,-1
 867 -152 l 1,20,-1
 851 -154 l 1,21,-1
 859 -103 l 2,22,23
 868 -49 868 -49 869 -44 c 0,24,25
 876 -17 876 -17 879 -4 c 1,26,-1
 856 -4 l 2,27,28
 845 -4 845 -4 835 -4 c 0,29,30
 827 -2 827 -2 824 -2 c 0,31,32
 807 -2 807 -2 793 2 c 128,-1,33
 779 6 779 6 776.5 7 c 128,-1,34
 774 8 774 8 753 17.5 c 128,-1,35
 732 27 732 27 726 33 c 1,36,37
 726 -36 726 -36 715 -90 c 0,38,39
 706 -147 706 -147 685 -191 c 0,40,41
 648 -257 648 -257 534 -303 c 0,42,43
 479 -325 479 -325 423 -337 c 128,-1,44
 367 -349 367 -349 314 -349 c 0,45,46
 196 -349 196 -349 121 -304 c 0,47,48
 36 -252 36 -252 16 -139 c 1,49,-1
 15 -125 l 1,50,-1
 15 -116 l 2,51,52
 15 -47 15 -47 58 95 c 0,53,54
 70 135 70 135 84 176.5 c 128,-1,55
 98 218 98 218 129 305 c 1,56,-1
 146 299 l 1,57,-1
 90 128 l 2,58,59
 53 11 53 11 53 -14 c 0,60,61
 53 -107 53 -107 121 -156 c 0,62,63
 170 -190 170 -190 281 -211 c 1,64,-1
 318 -215 l 1,65,-1
 340 -216 l 1,66,67
 452 -216 452 -216 562 -167.5 c 128,-1,68
 672 -119 672 -119 681 -64 c 1,69,-1
 682 -46 l 2,70,71
 682 8 682 8 642 103 c 0,72,73
 623 148 623 148 576 238 c 1,74,75
 576 272 576 272 595 317 c 0,76,77
 610 355 610 355 623 365 c 1,78,-1
 668 287 l 2,79,80
 693 240 693 240 709 195 c 1,81,82
 709 183 709 183 789 170.5 c 128,-1,83
 869 158 869 158 911 158 c 2,84,-1
 920 158 l 1,85,-1
 988 217 l 1,86,-1
 1195 372 l 2,87,88
 1303 451 1303 451 1361 488 c 0,89,90
 1390 504 1390 504 1421 504 c 0,91,92
 1484 504 1484 504 1538.5 454 c 128,-1,93
 1593 404 1593 404 1593 344 c 0,0,1
1509 252 m 0,94,95
 1511 263 1511 263 1491 297 c 0,96,97
 1467 336 1467 336 1435 359 c 0,98,99
 1414 374 1414 374 1387.5 382.5 c 128,-1,100
 1361 391 1361 391 1334 391 c 0,101,102
 1298 391 1298 391 1275 375 c 2,103,-1
 1165 299 l 2,104,105
 1146 286 1146 286 1128 273 c 0,106,107
 1099 252 1099 252 1069 228 c 2,108,-1
 970 154 l 1,109,-1
 997 152 l 1,110,-1
 1059 151 l 2,111,112
 1079 151 1079 151 1111.5 152 c 128,-1,113
 1144 153 1144 153 1156 153 c 0,114,115
 1175 153 1175 153 1190.5 155 c 128,-1,116
 1206 157 1206 157 1257 164 c 0,117,118
 1350 176 1350 176 1428 204.5 c 128,-1,119
 1506 233 1506 233 1509 252 c 0,94,95
EndSplineSet
Substitution2: "'medi' Medial Forms in Arabic lookup 3 subtable" afii62791
Substitution2: "'fina' Terminal Forms in Arabic lookup 2 subtable" afii62792
Substitution2: "'init' Initial Forms in Arabic lookup 1 subtable" afii62790
EndChar

StartChar: afii62792
Encoding: 65210 65210 207
Width: 1601
GlyphClass: 2
Flags: W
AnchorPoint: "Anchor-3" 630 -705 basechar 0
AnchorPoint: "Anchor-2" 510 615 basechar 0
LayerCount: 2
Fore
SplineSet
1509 295 m 0,0,1
 1511 305 1511 305 1487 337 c 0,2,3
 1460 375 1460 375 1427 394 c 0,4,5
 1411 403 1411 403 1385 410 c 128,-1,6
 1359 417 1359 417 1335 417 c 0,7,8
 1291 417 1291 417 1265 398 c 0,9,10
 1206 350 1206 350 1151 301 c 2,11,-1
 980 150 l 1,12,-1
 992 150 l 2,13,14
 1042 150 1042 150 1112 157 c 1,15,16
 1154 157 1154 157 1207 168 c 0,17,18
 1220 171 1220 171 1267 182 c 0,19,20
 1359 206 1359 206 1434 241.5 c 128,-1,21
 1509 277 1509 277 1509 295 c 0,0,1
994 221 m 2,22,23
 1083 305 1083 305 1188 393 c 0,24,25
 1227 426 1227 426 1273 463 c 0,26,27
 1310 493 1310 493 1341 517 c 0,28,29
 1373 538 1373 538 1409 538 c 0,30,31
 1470 538 1470 538 1521.5 494.5 c 128,-1,32
 1573 451 1573 451 1585 387 c 0,33,34
 1589 360 1589 360 1552.5 285 c 128,-1,35
 1516 210 1516 210 1476 156 c 1,36,-1
 1461 144 l 1,37,-1
 1441 131 l 1,38,-1
 1483 133 l 1,39,-1
 1572 141 l 1,40,-1
 1609 141 l 1,41,-1
 1609 0 l 1,42,-1
 845 0 l 2,43,44
 804 0 804 0 772 9 c 128,-1,45
 740 18 740 18 726 33 c 1,46,47
 726 -36 726 -36 715 -90 c 0,48,49
 706 -147 706 -147 685 -191 c 0,50,51
 648 -257 648 -257 534 -303 c 0,52,53
 479 -325 479 -325 423 -337 c 128,-1,54
 367 -349 367 -349 314 -349 c 0,55,56
 196 -349 196 -349 121 -304 c 0,57,58
 36 -252 36 -252 16 -139 c 1,59,-1
 15 -125 l 1,60,-1
 15 -116 l 2,61,62
 15 -47 15 -47 58 95 c 0,63,64
 70 135 70 135 84 176.5 c 128,-1,65
 98 218 98 218 129 305 c 1,66,-1
 146 299 l 1,67,-1
 90 128 l 2,68,69
 53 11 53 11 53 -14 c 0,70,71
 53 -107 53 -107 121 -156 c 0,72,73
 170 -190 170 -190 281 -211 c 1,74,-1
 318 -215 l 1,75,-1
 340 -216 l 1,76,77
 452 -216 452 -216 562 -167.5 c 128,-1,78
 672 -119 672 -119 681 -64 c 1,79,-1
 682 -46 l 2,80,81
 682 8 682 8 642 103 c 0,82,83
 623 148 623 148 576 238 c 1,84,85
 576 272 576 272 595 317 c 0,86,87
 610 355 610 355 623 365 c 1,88,-1
 668 287 l 2,89,90
 693 240 693 240 709 195 c 0,91,92
 721 172 721 172 788 159 c 0,93,94
 811 155 811 155 840 152 c 128,-1,95
 869 149 869 149 896 149 c 2,96,-1
 916 150 l 1,97,-1
 994 221 l 2,22,23
EndSplineSet
EndChar

StartChar: afii62790
Encoding: 65211 65211 208
Width: 1458
GlyphClass: 2
Flags: W
AnchorPoint: "Anchor-3" 495 -510 basechar 0
AnchorPoint: "Anchor-2" 675 780 basechar 0
LayerCount: 2
Fore
SplineSet
1427 428 m 0,0,1
 1433 398 1433 398 1395 323 c 0,2,3
 1377 286 1377 286 1358 254.5 c 128,-1,4
 1339 223 1339 223 1318 197 c 0,5,6
 1290 163 1290 163 1234 129 c 0,7,8
 1186 102 1186 102 1105 72 c 0,9,10
 1059 57 1059 57 962.5 42 c 128,-1,11
 866 27 866 27 783 27 c 1,12,13
 780 9 780 9 776 -12 c 128,-1,14
 772 -33 772 -33 766 -53 c 2,15,-1
 748 -123 l 1,16,-1
 732 -127 l 1,17,18
 732 -105 732 -105 734 -96 c 2,19,-1
 746 25 l 1,20,-1
 647 25 l 1,21,-1
 626 25 l 1,22,-1
 608 25 l 1,23,-1
 592 25 l 1,24,-1
 579 25 l 1,25,-1
 568 25 l 2,26,27
 549 25 549 25 530.5 26 c 128,-1,28
 512 27 512 27 496 30 c 2,29,-1
 439 35 l 2,30,31
 410 41 410 41 410 66 c 2,32,-1
 412 80 l 1,33,34
 376 59 376 59 274 32 c 0,35,36
 148 0 148 0 49 0 c 2,37,-1
 -4 0 l 1,38,-1
 -4 141 l 1,39,-1
 45 141 l 2,40,41
 165 141 165 141 291 168.5 c 128,-1,42
 417 196 417 196 474 234 c 0,43,44
 523 268 523 268 553 335 c 2,45,-1
 603 451 l 1,46,-1
 613 443 l 1,47,-1
 574 331 l 1,48,-1
 530 205 l 1,49,-1
 528 195 l 2,50,51
 528 189 528 189 539 185 c 2,52,-1
 583 181 l 1,53,-1
 651 179 l 1,54,-1
 681 179 l 2,55,56
 695 179 695 179 709 179 c 0,57,58
 720 181 720 181 725 181 c 0,59,60
 740 181 740 181 752 183 c 128,-1,61
 764 185 764 185 771 187 c 2,62,-1
 834 254 l 1,63,-1
 965 370 l 1,64,-1
 1088 480 l 2,65,66
 1114 503 1114 503 1138 522 c 0,67,68
 1168 546 1168 546 1183 558 c 0,69,70
 1215 579 1215 579 1251 579 c 0,71,72
 1312 579 1312 579 1363.5 535.5 c 128,-1,73
 1415 492 1415 492 1427 428 c 0,0,1
1351 336 m 0,74,75
 1353 346 1353 346 1329 378 c 0,76,77
 1302 416 1302 416 1269 435 c 0,78,79
 1253 444 1253 444 1227 451 c 128,-1,80
 1201 458 1201 458 1177 458 c 0,81,82
 1133 458 1133 458 1107 439 c 0,83,84
 1046 391 1046 391 993 342 c 2,85,-1
 822 191 l 1,86,-1
 834 191 l 2,87,88
 884 191 884 191 954 198 c 1,89,90
 996 198 996 198 1049 209 c 0,91,92
 1062 212 1062 212 1109 223 c 0,93,94
 1201 247 1201 247 1276 282.5 c 128,-1,95
 1351 318 1351 318 1351 336 c 0,74,75
EndSplineSet
EndChar

StartChar: afii62791
Encoding: 65212 65212 209
Width: 1308
GlyphClass: 2
Flags: W
AnchorPoint: "Anchor-3" 450 -600 basechar 0
AnchorPoint: "Anchor-2" 600 675 basechar 0
LayerCount: 2
Fore
SplineSet
1314 0 m 1,0,-1
 590 0 l 1,1,-1
 560 -84 l 1,2,-1
 535 -160 l 1,3,-1
 519 -162 l 1,4,-1
 524 -128 l 2,5,6
 536 -48 536 -48 549 0 c 1,7,-1
 338 0 l 1,8,-1
 322 0 l 2,9,10
 295 0 295 0 284 3.5 c 128,-1,11
 273 7 273 7 273 23 c 0,12,13
 273 34 273 34 275 39 c 1,14,15
 244 21 244 21 197 10.5 c 128,-1,16
 150 0 150 0 49 0 c 2,17,-1
 -4 0 l 1,18,-1
 -4 141 l 1,19,-1
 45 141 l 2,20,21
 97 141 97 141 128.5 142 c 128,-1,22
 160 143 160 143 187 144 c 0,23,24
 228 144 228 144 263 156.5 c 128,-1,25
 298 169 298 169 336 193 c 0,26,27
 378 222 378 222 404 269 c 1,28,-1
 465 410 l 1,29,-1
 476 402 l 1,30,-1
 437 290 l 1,31,-1
 393 164 l 1,32,-1
 391 154 l 2,33,34
 391 149 391 149 398 146 c 0,35,36
 423 141 423 141 511 141 c 2,37,-1
 594 142 l 2,38,39
 607 142 607 142 618 144 c 128,-1,40
 629 146 629 146 636 148 c 2,41,-1
 697 213 l 1,42,-1
 828 329 l 1,43,-1
 951 439 l 2,44,45
 970 455 970 455 989 472 c 0,46,47
 1015 494 1015 494 1046 517 c 0,48,49
 1078 538 1078 538 1114 538 c 0,50,51
 1172 538 1172 538 1225.5 493 c 128,-1,52
 1279 448 1279 448 1289 387 c 0,53,54
 1295 358 1295 358 1258 282 c 128,-1,55
 1221 206 1221 206 1181 156 c 1,56,-1
 1166 144 l 1,57,-1
 1146 131 l 1,58,-1
 1187 133 l 1,59,-1
 1277 141 l 1,60,-1
 1314 141 l 1,61,-1
 1314 0 l 1,0,-1
1214 295 m 0,62,63
 1216 305 1216 305 1192 337 c 0,64,65
 1165 375 1165 375 1132 394 c 0,66,67
 1089 417 1089 417 1040 417 c 0,68,69
 996 417 996 417 970 398 c 0,70,71
 911 350 911 350 856 301 c 2,72,-1
 685 150 l 1,73,-1
 697 150 l 2,74,75
 745 150 745 150 816 157 c 1,76,77
 857 157 857 157 911 168 c 0,78,79
 930 172 930 172 972 182 c 0,80,81
 1064 206 1064 206 1139 241.5 c 128,-1,82
 1214 277 1214 277 1214 295 c 0,62,63
EndSplineSet
EndChar

StartChar: afii57431
Encoding: 1591 1591 214
Width: 853
GlyphClass: 2
Flags: W
AnchorPoint: "Anchor-3" 375 -480 basechar 0
AnchorPoint: "Anchor-2" 555 900 basechar 0
LayerCount: 2
Fore
SplineSet
849 344 m 0,0,1
 849 310 849 310 810.5 236.5 c 128,-1,2
 772 163 772 163 729 117 c 128,-1,3
 686 71 686 71 629 41 c 0,4,5
 555 2 555 2 478 2 c 2,6,-1
 423 2 l 1,7,-1
 395 2 l 2,8,9
 385 2 385 2 376 2 c 0,10,11
 364 4 364 4 360 4 c 2,12,-1
 309 14 l 1,13,-1
 253 30 l 1,14,-1
 187 51 l 1,15,-1
 135 -96 l 1,16,-1
 119 -98 l 1,17,-1
 129 -40 l 2,18,19
 133 -16 133 -16 138.5 12 c 128,-1,20
 144 40 144 40 152 66 c 1,21,22
 102 83 102 83 60 102 c 0,23,24
 44 109 44 109 28 117 c 0,25,26
 1 130 1 130 -25 146 c 1,27,-1
 -16 160 l 1,28,-1
 178 158 l 1,29,-1
 194 173 l 1,30,-1
 226 203 l 1,31,-1
 226 252 l 1,32,-1
 226 283 l 1,33,-1
 216 352 l 1,34,-1
 195 476 l 1,35,-1
 166 705 l 1,36,-1
 105 753 l 2,37,38
 71 783 71 783 62 826 c 1,39,40
 62 848 62 848 80 910.5 c 128,-1,41
 98 973 98 973 123 1021 c 1,42,-1
 135 1017 l 1,43,44
 126 1003 126 1003 122 985 c 2,45,-1
 119 949 l 2,46,47
 113 898 113 898 185 859 c 1,48,49
 271 826 271 826 285 818 c 1,50,-1
 252 689 l 1,51,-1
 237 691 l 2,52,53
 231 691 231 691 226 695 c 1,54,55
 220 692 220 692 217 683 c 0,56,57
 217 676 217 676 215 672 c 2,58,-1
 247 482 l 2,59,60
 262 389 262 389 262 346 c 0,61,62
 262 326 262 326 261 308 c 128,-1,63
 260 290 260 290 257 274 c 0,64,65
 254 242 254 242 244 217 c 1,66,-1
 383 321 l 1,67,-1
 515 419 l 2,68,69
 574 461 574 461 617 488 c 0,70,71
 646 504 646 504 676 504 c 0,72,73
 740 504 740 504 794.5 454.5 c 128,-1,74
 849 405 849 405 849 344 c 0,0,1
765 252 m 0,75,76
 767 263 767 263 747 297 c 0,77,78
 723 336 723 336 691 359 c 0,79,80
 670 374 670 374 643.5 382.5 c 128,-1,81
 617 391 617 391 590 391 c 0,82,83
 554 391 554 391 531 375 c 2,84,-1
 421 299 l 2,85,86
 402 286 402 286 384 273 c 0,87,88
 355 252 355 252 325 228 c 2,89,-1
 226 154 l 1,90,-1
 254 152 l 1,91,-1
 316 151 l 2,92,93
 336 151 336 151 368.5 152 c 128,-1,94
 401 153 401 153 413 153 c 0,95,96
 432 153 432 153 465 157.5 c 128,-1,97
 498 162 498 162 510 164 c 0,98,99
 555 170 555 170 599 180 c 128,-1,100
 643 190 643 190 683 205 c 0,101,102
 762 233 762 233 765 252 c 0,75,76
EndSplineSet
Substitution2: "'medi' Medial Forms in Arabic lookup 3 subtable" afii62797
Substitution2: "'fina' Terminal Forms in Arabic lookup 2 subtable" afii62798
Substitution2: "'init' Initial Forms in Arabic lookup 1 subtable" afii62796
EndChar

StartChar: afii62798
Encoding: 65218 65218 215
Width: 853
GlyphClass: 2
Flags: W
AnchorPoint: "Anchor-3" 405 -495 basechar 0
AnchorPoint: "Anchor-2" 630 870 basechar 0
LayerCount: 2
Fore
SplineSet
863 0 m 1,0,-1
 818 0 l 1,1,-1
 735 -1 l 1,2,-1
 635 -2 l 1,3,-1
 464 1 l 2,4,5
 406 1 406 1 324 18 c 0,6,7
 254 30 254 30 164 63 c 0,8,9
 60 99 60 99 -25 146 c 1,10,-1
 -16 160 l 1,11,-1
 160 156 l 1,12,-1
 226 203 l 1,13,-1
 226 252 l 1,14,-1
 226 283 l 1,15,-1
 216 352 l 1,16,-1
 195 476 l 1,17,-1
 166 705 l 1,18,-1
 105 753 l 2,19,20
 71 783 71 783 62 826 c 1,21,22
 62 848 62 848 80 910.5 c 128,-1,23
 98 973 98 973 123 1021 c 1,24,-1
 135 1017 l 1,25,26
 126 1003 126 1003 122 985 c 2,27,-1
 119 949 l 2,28,29
 113 898 113 898 185 859 c 1,30,31
 271 826 271 826 285 818 c 1,32,-1
 252 689 l 1,33,-1
 237 691 l 2,34,35
 231 691 231 691 226 695 c 1,36,37
 220 692 220 692 217 683 c 0,38,39
 217 676 217 676 215 672 c 2,40,-1
 247 482 l 2,41,42
 262 389 262 389 262 346 c 0,43,44
 262 326 262 326 261 308 c 128,-1,45
 260 290 260 290 257 274 c 0,46,47
 254 242 254 242 244 217 c 1,48,-1
 383 321 l 1,49,-1
 515 419 l 2,50,51
 574 461 574 461 617 488 c 0,52,53
 646 504 646 504 676 504 c 0,54,55
 740 504 740 504 794.5 454.5 c 128,-1,56
 849 405 849 405 849 344 c 0,57,58
 849 320 849 320 828 284 c 2,59,-1
 742 162 l 1,60,-1
 720 148 l 1,61,-1
 695 131 l 1,62,-1
 756 135 l 1,63,-1
 818 141 l 1,64,-1
 863 141 l 1,65,-1
 863 0 l 1,0,-1
765 252 m 0,66,67
 767 263 767 263 747 297 c 0,68,69
 723 336 723 336 691 359 c 0,70,71
 670 374 670 374 643.5 382.5 c 128,-1,72
 617 391 617 391 590 391 c 0,73,74
 554 391 554 391 531 375 c 2,75,-1
 421 299 l 2,76,77
 402 286 402 286 384 273 c 0,78,79
 355 252 355 252 325 228 c 2,80,-1
 226 154 l 1,81,-1
 254 152 l 1,82,-1
 316 151 l 2,83,84
 336 151 336 151 368.5 152 c 128,-1,85
 401 153 401 153 413 153 c 0,86,87
 432 153 432 153 465 157.5 c 128,-1,88
 498 162 498 162 510 164 c 0,89,90
 555 170 555 170 599 180 c 128,-1,91
 643 190 643 190 683 205 c 0,92,93
 762 233 762 233 765 252 c 0,66,67
EndSplineSet
EndChar

StartChar: afii62796
Encoding: 65219 65219 216
Width: 853
GlyphClass: 2
Flags: W
AnchorPoint: "Anchor-3" 330 -480 basechar 0
AnchorPoint: "Anchor-2" 540 870 basechar 0
LayerCount: 2
Fore
SplineSet
849 344 m 0,0,1
 849 310 849 310 810.5 236.5 c 128,-1,2
 772 163 772 163 732.5 121 c 128,-1,3
 693 79 693 79 553.5 39.5 c 128,-1,4
 414 0 414 0 285 0 c 2,5,-1
 139 0 l 1,6,-1
 109 -84 l 1,7,-1
 84 -160 l 1,8,-1
 68 -162 l 1,9,-1
 73 -128 l 2,10,11
 85 -48 85 -48 98 0 c 1,12,-1
 -8 0 l 1,13,-1
 -8 141 l 1,14,-1
 150 141 l 1,15,-1
 226 203 l 1,16,-1
 226 252 l 1,17,-1
 226 283 l 1,18,-1
 216 352 l 1,19,-1
 195 476 l 1,20,-1
 166 705 l 1,21,-1
 105 753 l 2,22,23
 71 783 71 783 62 826 c 1,24,25
 62 848 62 848 80 910.5 c 128,-1,26
 98 973 98 973 123 1021 c 1,27,-1
 135 1017 l 1,28,29
 126 1003 126 1003 122 985 c 2,30,-1
 119 949 l 2,31,32
 113 898 113 898 185 859 c 1,33,34
 271 826 271 826 285 818 c 1,35,-1
 252 689 l 1,36,-1
 237 691 l 2,37,38
 231 691 231 691 226 695 c 1,39,40
 220 692 220 692 217 683 c 0,41,42
 217 676 217 676 215 672 c 2,43,-1
 247 482 l 2,44,45
 262 389 262 389 262 346 c 0,46,47
 262 326 262 326 261 308 c 128,-1,48
 260 290 260 290 257 274 c 0,49,50
 254 242 254 242 244 217 c 1,51,-1
 383 321 l 1,52,-1
 515 419 l 2,53,54
 574 461 574 461 617 488 c 0,55,56
 646 504 646 504 676 504 c 0,57,58
 740 504 740 504 794.5 454.5 c 128,-1,59
 849 405 849 405 849 344 c 0,0,1
765 252 m 0,60,61
 767 263 767 263 747 297 c 0,62,63
 723 336 723 336 691 359 c 0,64,65
 670 374 670 374 643.5 382.5 c 128,-1,66
 617 391 617 391 590 391 c 0,67,68
 554 391 554 391 531 375 c 0,69,70
 486 345 486 345 455 323 c 0,71,72
 419 297 419 297 368 259 c 2,73,-1
 217 146 l 1,74,-1
 231 145 l 1,75,-1
 248 145 l 1,76,-1
 371 148 l 2,77,78
 403 148 403 148 425.5 150.5 c 128,-1,79
 448 153 448 153 517 164 c 0,80,81
 559 170 559 170 601 180 c 128,-1,82
 643 190 643 190 683 205 c 0,83,84
 762 233 762 233 765 252 c 0,60,61
EndSplineSet
EndChar

StartChar: afii62797
Encoding: 65220 65220 217
Width: 853
GlyphClass: 2
Flags: W
AnchorPoint: "Anchor-3" 360 -510 basechar 0
AnchorPoint: "Anchor-2" 600 810 basechar 0
LayerCount: 2
Fore
SplineSet
863 0 m 1,0,-1
 139 0 l 1,1,-1
 109 -84 l 1,2,-1
 84 -160 l 1,3,-1
 68 -162 l 1,4,-1
 73 -128 l 2,5,6
 85 -48 85 -48 98 0 c 1,7,-1
 -8 0 l 1,8,-1
 -8 141 l 1,9,-1
 150 141 l 1,10,-1
 226 203 l 1,11,-1
 226 252 l 1,12,-1
 226 283 l 1,13,-1
 216 352 l 1,14,-1
 195 476 l 1,15,-1
 166 705 l 1,16,-1
 105 753 l 2,17,18
 71 783 71 783 62 826 c 1,19,20
 62 848 62 848 80 910.5 c 128,-1,21
 98 973 98 973 123 1021 c 1,22,-1
 135 1017 l 1,23,24
 126 1003 126 1003 122 985 c 2,25,-1
 119 949 l 2,26,27
 113 898 113 898 185 859 c 1,28,29
 271 826 271 826 285 818 c 1,30,-1
 252 689 l 1,31,-1
 237 691 l 2,32,33
 231 691 231 691 226 695 c 1,34,35
 220 692 220 692 217 683 c 0,36,37
 217 676 217 676 215 672 c 2,38,-1
 247 482 l 2,39,40
 262 389 262 389 262 346 c 0,41,42
 262 326 262 326 261 308 c 128,-1,43
 260 290 260 290 257 274 c 0,44,45
 254 242 254 242 244 217 c 1,46,-1
 383 321 l 1,47,-1
 515 419 l 2,48,49
 574 461 574 461 617 488 c 0,50,51
 646 504 646 504 676 504 c 0,52,53
 740 504 740 504 794.5 454.5 c 128,-1,54
 849 405 849 405 849 344 c 0,55,56
 849 320 849 320 828 284 c 2,57,-1
 742 162 l 1,58,-1
 720 148 l 1,59,-1
 695 131 l 1,60,-1
 756 135 l 1,61,-1
 818 141 l 1,62,-1
 863 141 l 1,63,-1
 863 0 l 1,0,-1
765 252 m 0,64,65
 767 263 767 263 747 297 c 0,66,67
 723 336 723 336 691 359 c 0,68,69
 670 374 670 374 643.5 382.5 c 128,-1,70
 617 391 617 391 590 391 c 0,71,72
 554 391 554 391 531 375 c 0,73,74
 486 345 486 345 455 323 c 0,75,76
 419 297 419 297 368 259 c 2,77,-1
 217 146 l 1,78,-1
 231 145 l 1,79,-1
 248 145 l 1,80,-1
 371 148 l 2,81,82
 403 148 403 148 425.5 150.5 c 128,-1,83
 448 153 448 153 517 164 c 0,84,85
 559 170 559 170 601 180 c 128,-1,86
 643 190 643 190 683 205 c 0,87,88
 762 233 762 233 765 252 c 0,64,65
EndSplineSet
EndChar

StartChar: afii57433
Encoding: 1593 1593 222
Width: 966
GlyphClass: 2
Flags: W
AnchorPoint: "Anchor-3" 420 -1275 basechar 0
AnchorPoint: "Anchor-2" 420 765 basechar 0
LayerCount: 2
Fore
SplineSet
1146 -654 m 1,0,-1
 1144 -681 l 1,1,-1
 827 -822 l 2,2,3
 728 -866 728 -866 707 -871 c 0,4,5
 665 -880 665 -880 611 -880 c 0,6,7
 492 -880 492 -880 365 -841 c 128,-1,8
 238 -802 238 -802 176 -740 c 0,9,10
 132 -696 132 -696 99 -622 c 0,11,12
 55 -522 55 -522 55 -408 c 0,13,14
 55 -355 55 -355 64 -298.5 c 128,-1,15
 73 -242 73 -242 94.5 -184.5 c 128,-1,16
 116 -127 116 -127 161 -55 c 0,17,18
 195 -2 195 -2 235 49 c 2,19,-1
 271 92 l 1,20,-1
 280 106 l 1,21,-1
 277 111 l 1,22,-1
 237 147 l 2,23,24
 196 182 196 182 189 203 c 2,25,-1
 179 230 l 2,26,27
 175 248 175 248 174 252 c 0,28,29
 174 263 174 263 174 268 c 2,30,-1
 175 290 l 1,31,-1
 178 310 l 1,32,33
 198 397 198 397 245.5 462.5 c 128,-1,34
 293 528 293 528 349 549 c 0,35,36
 375 556 375 556 423 556 c 0,37,38
 492 556 492 556 531 541 c 0,39,40
 549 537 549 537 561.5 532.5 c 128,-1,41
 574 528 574 528 595 518 c 0,42,43
 630 503 630 503 644 490 c 1,44,-1
 644 469 l 1,45,46
 612 475 612 475 528 475 c 0,47,48
 507 475 507 475 489.5 475 c 128,-1,49
 472 475 472 475 451 473 c 0,50,51
 420 473 420 473 396 465 c 0,52,53
 357 452 357 452 326.5 435 c 128,-1,54
 296 418 296 418 270 394 c 0,55,56
 229 359 229 359 223 330 c 1,57,58
 226 311 226 311 257 282 c 0,59,60
 294 247 294 247 341.5 230.5 c 128,-1,61
 389 214 389 214 446 214 c 0,62,63
 477 214 477 214 511 218 c 128,-1,64
 545 222 545 222 581 231 c 128,-1,65
 617 240 617 240 644 247 c 0,66,67
 679 257 679 257 698 263 c 0,68,69
 755 282 755 282 797 303 c 1,70,71
 797 284 797 284 787 230 c 0,72,73
 783 205 783 205 779 187 c 128,-1,74
 775 169 775 169 773 166 c 2,75,-1
 665 127 l 2,76,77
 585 100 585 100 574 96 c 0,78,79
 541 84 541 84 494 66 c 0,80,81
 394 30 394 30 365 8 c 0,82,83
 244 -77 244 -77 225 -94 c 0,84,85
 141 -175 141 -175 113 -297 c 1,86,-1
 109 -318 l 1,87,-1
 108 -349 l 2,88,89
 108 -438 108 -438 168 -522 c 0,90,91
 223 -598 223 -598 305 -638 c 0,92,93
 335 -652 335 -652 381.5 -665 c 128,-1,94
 428 -678 428 -678 485 -688 c 0,95,96
 602 -708 602 -708 734 -708 c 0,97,98
 842 -708 842 -708 942 -695 c 0,99,100
 993 -689 993 -689 1044 -679 c 128,-1,101
 1095 -669 1095 -669 1146 -654 c 1,0,-1
EndSplineSet
Substitution2: "'medi' Medial Forms in Arabic lookup 3 subtable" afii62803
Substitution2: "'fina' Terminal Forms in Arabic lookup 2 subtable" afii62804
Substitution2: "'init' Initial Forms in Arabic lookup 1 subtable" afii62802
EndChar

StartChar: afii62804
Encoding: 65226 65226 223
Width: 793
GlyphClass: 2
Flags: W
AnchorPoint: "Anchor-3" 420 -1320 basechar 0
AnchorPoint: "Anchor-2" 435 705 basechar 0
LayerCount: 2
Fore
SplineSet
100 -295 m 0,0,1
 94 -318 94 -318 94 -343 c 0,2,3
 94 -427 94 -427 152.5 -509.5 c 128,-1,4
 211 -592 211 -592 305 -638 c 0,5,6
 335 -652 335 -652 381.5 -665 c 128,-1,7
 428 -678 428 -678 485 -688 c 0,8,9
 602 -708 602 -708 734 -708 c 0,10,11
 842 -708 842 -708 942 -695 c 0,12,13
 993 -689 993 -689 1044 -679 c 128,-1,14
 1095 -669 1095 -669 1146 -654 c 1,15,-1
 1144 -681 l 1,16,-1
 827 -822 l 2,17,18
 728 -866 728 -866 707 -871 c 0,19,20
 665 -880 665 -880 611 -880 c 0,21,22
 492 -880 492 -880 365 -841 c 128,-1,23
 238 -802 238 -802 176 -740 c 0,24,25
 131 -695 131 -695 96 -622 c 0,26,27
 48 -520 48 -520 48 -400 c 0,28,29
 48 -339 48 -339 58 -283 c 128,-1,30
 68 -227 68 -227 94 -156 c 0,31,32
 139 -29 139 -29 218 63 c 0,33,34
 246 96 246 96 277 124 c 128,-1,35
 308 152 308 152 347 179 c 2,36,-1
 428 226 l 1,37,38
 410 279 410 279 355 309 c 0,39,40
 327 324 327 324 299.5 331 c 128,-1,41
 272 338 272 338 237 338 c 0,42,43
 211 338 211 338 195 334 c 1,44,45
 189 349 189 349 214 424.5 c 128,-1,46
 239 500 239 500 260 510 c 1,47,-1
 334 519 l 2,48,49
 377 524 377 524 410 524 c 0,50,51
 444 524 444 524 475 520 c 128,-1,52
 506 516 506 516 534 507 c 0,53,54
 590 492 590 492 624 451 c 128,-1,55
 658 410 658 410 658 358 c 0,56,57
 658 311 658 311 632 268 c 0,58,59
 608 223 608 223 560 187 c 1,60,61
 564 161 564 161 611 150 c 0,62,63
 658 141 658 141 750 141 c 2,64,-1
 800 141 l 1,65,-1
 800 0 l 1,66,-1
 711 0 l 2,67,68
 587 0 587 0 525.5 36.5 c 128,-1,69
 464 73 464 73 449 148 c 1,70,71
 327 90 327 90 244 -5 c 0,72,73
 182 -76 182 -76 141 -170 c 0,74,75
 124 -211 124 -211 100 -295 c 0,0,1
EndSplineSet
EndChar

StartChar: afii62802
Encoding: 65227 65227 224
Width: 632
GlyphClass: 2
Flags: W
AnchorPoint: "Anchor-3" 210 -450 basechar 0
AnchorPoint: "Anchor-2" 225 780 basechar 0
LayerCount: 2
Fore
SplineSet
613 180 m 1,0,1
 611 167 611 167 586 113.5 c 128,-1,2
 561 60 561 60 554 53 c 1,3,-1
 427 34 l 1,4,-1
 246 12 l 2,5,6
 133 0 133 0 88 0 c 2,7,-1
 -6 0 l 1,8,-1
 -6 141 l 1,9,-1
 23 141 l 2,10,11
 35 141 35 141 35 156 c 1,12,-1
 11 201 l 2,13,14
 1 221 1 221 -2 240 c 2,15,-1
 -4 265 l 2,16,17
 -4 289 -4 289 1 305 c 0,18,19
 3 310 3 310 8 322.5 c 128,-1,20
 13 335 13 335 18 344 c 0,21,22
 59 426 59 426 122 479.5 c 128,-1,23
 185 533 185 533 244 533 c 0,24,25
 272 533 272 533 329.5 517 c 128,-1,26
 387 501 387 501 418 480 c 0,27,28
 446 463 446 463 476 438 c 0,29,30
 502 416 502 416 510 402 c 1,31,-1
 508 381 l 1,32,33
 487 393 487 393 395.5 417 c 128,-1,34
 304 441 304 441 267 441 c 0,35,36
 192 441 192 441 127 408 c 0,37,38
 76 381 76 381 66 355 c 0,39,40
 63 337 63 337 85 300 c 0,41,42
 111 257 111 257 153.5 227.5 c 128,-1,43
 196 198 196 198 255.5 182 c 128,-1,44
 315 166 315 166 390 166 c 2,45,-1
 421 166 l 2,46,47
 446 166 446 166 482 167 c 128,-1,48
 518 168 518 168 528 168 c 0,49,50
 549 168 549 168 568 171 c 0,51,52
 598 177 598 177 613 180 c 1,0,1
EndSplineSet
EndChar

StartChar: afii62803
Encoding: 65228 65228 225
Width: 644
GlyphClass: 2
Flags: W
AnchorPoint: "Anchor-3" 270 -495 basechar 0
AnchorPoint: "Anchor-2" 315 750 basechar 0
LayerCount: 2
Fore
SplineSet
652 0 m 1,0,-1
 566 0 l 2,1,2
 496 0 496 0 439 25.5 c 128,-1,3
 382 51 382 51 355 103 c 1,4,5
 299 58 299 58 248 35 c 0,6,7
 166 0 166 0 51 0 c 2,8,-1
 -10 0 l 1,9,-1
 -10 141 l 1,10,-1
 31 141 l 2,11,12
 134 141 134 141 211.5 166 c 128,-1,13
 289 191 289 191 322 242 c 1,14,15
 306 285 306 285 250.5 311.5 c 128,-1,16
 195 338 195 338 136 338 c 0,17,18
 111 338 111 338 96 334 c 1,19,20
 90 349 90 349 115 424.5 c 128,-1,21
 140 500 140 500 162 510 c 1,22,-1
 235 519 l 2,23,24
 278 524 278 524 311 524 c 0,25,26
 345 524 345 524 376.5 520 c 128,-1,27
 408 516 408 516 436 507 c 0,28,29
 491 492 491 492 527 449 c 0,30,31
 559 411 559 411 559 358 c 0,32,33
 559 313 559 313 534 268 c 128,-1,34
 509 223 509 223 461 187 c 1,35,36
 465 163 465 163 525 150 c 0,37,38
 567 141 567 141 603 141 c 2,39,-1
 652 141 l 1,40,-1
 652 0 l 1,0,-1
EndSplineSet
EndChar

StartChar: afii57443
Encoding: 1603 1603 238
Width: 927
GlyphClass: 2
Flags: W
AnchorPoint: "Anchor-3" 420 -435 basechar 0
AnchorPoint: "Anchor-2" 405 1005 basechar 0
LayerCount: 2
Fore
SplineSet
88 86 m 0,0,1
 70 110 70 110 56 157 c 0,2,3
 45 203 45 203 41 246 c 1,4,-1
 55 252 l 1,5,6
 64 230 64 230 84 212 c 0,7,8
 111 184 111 184 156 162 c 0,9,10
 183 149 183 149 234 144 c 0,11,12
 274 144 274 144 306.5 143 c 128,-1,13
 339 142 339 142 369 141 c 2,14,-1
 756 141 l 1,15,16
 776 156 776 156 793.5 206 c 128,-1,17
 811 256 811 256 811 330 c 0,18,19
 811 359 811 359 810 375 c 128,-1,20
 809 391 809 391 804 424 c 2,21,-1
 779 652 l 1,22,23
 722 694 722 694 703 716 c 0,24,25
 681 743 681 743 672 781 c 1,26,27
 672 800 672 800 690.5 862.5 c 128,-1,28
 709 925 709 925 734 976 c 1,29,-1
 746 972 l 1,30,31
 737 958 737 958 733 940 c 2,32,-1
 730 904 l 2,33,34
 726 862 726 862 804 818 c 1,35,36
 894 778 894 778 910 769 c 1,37,-1
 879 625 l 1,38,-1
 863 628 l 1,39,-1
 849 633 l 1,40,41
 844 630 844 630 843 622 c 2,42,-1
 843 609 l 1,43,-1
 868 486 l 2,44,45
 880 417 880 417 880 364 c 0,46,47
 880 293 880 293 859 219 c 1,48,49
 841 171 841 171 811 108 c 0,50,51
 768 23 768 23 740 0 c 1,52,-1
 355 0 l 2,53,54
 254 0 254 0 198 15 c 0,55,56
 128 33 128 33 88 86 c 0,0,1
463 742 m 1,57,-1
 488 730 l 1,58,-1
 433 670 l 2,59,60
 398 630 398 630 398 608 c 2,61,-1
 398 602 l 1,62,-1
 401 592 l 2,63,64
 402 588 402 588 418 587 c 0,65,66
 432 587 432 587 477 603 c 128,-1,67
 522 619 522 619 537 619 c 0,68,69
 547 619 547 619 549 617 c 0,70,71
 568 606 568 606 580 588 c 128,-1,72
 592 570 592 570 592 548 c 0,73,74
 592 529 592 529 587 511.5 c 128,-1,75
 582 494 582 494 568 459 c 0,76,77
 544 405 544 405 471 365 c 0,78,79
 433 345 433 345 398 335 c 128,-1,80
 363 325 363 325 324 325 c 0,81,82
 303 325 303 325 289 327 c 128,-1,83
 275 329 275 329 260 336 c 1,84,-1
 262 349 l 1,85,86
 333 349 333 349 412.5 388 c 128,-1,87
 492 427 492 427 498 465 c 0,88,89
 500 479 500 479 492.5 485.5 c 128,-1,90
 485 492 485 492 469 494 c 0,91,92
 456 494 456 494 447 488 c 128,-1,93
 438 482 438 482 416.5 475 c 128,-1,94
 395 468 395 468 376 468 c 0,95,96
 356 468 356 468 343.5 474.5 c 128,-1,97
 331 481 331 481 325 496 c 0,98,99
 323 504 323 504 322 511 c 128,-1,100
 321 518 321 518 320 526 c 0,101,102
 320 551 320 551 335 587 c 0,103,104
 347 614 347 614 371 650 c 0,105,106
 391 681 391 681 421 708 c 0,107,108
 441 728 441 728 463 742 c 1,57,-1
EndSplineSet
Substitution2: "'medi' Medial Forms in Arabic lookup 3 subtable" afii52306
Substitution2: "'fina' Terminal Forms in Arabic lookup 2 subtable" afii62816
Substitution2: "'init' Initial Forms in Arabic lookup 1 subtable" afii52305
EndChar

StartChar: afii62816
Encoding: 65242 65242 239
Width: 1248
GlyphClass: 2
Flags: W
AnchorPoint: "Anchor-3" 420 -480 basechar 0
AnchorPoint: "Anchor-2" 495 870 basechar 0
LayerCount: 2
Fore
SplineSet
492 0 m 2,0,1
 280 0 280 0 218 12 c 0,2,3
 146 27 146 27 80 90 c 0,4,5
 42 126 42 126 26 183.5 c 128,-1,6
 10 241 10 241 10 312 c 0,7,8
 10 357 10 357 32 416 c 0,9,10
 49 462 49 462 68 490 c 1,11,-1
 84 482 l 1,12,13
 72 455 72 455 63 422 c 0,14,15
 51 378 51 378 51 347 c 2,16,-1
 53 328 l 2,17,18
 62 267 62 267 92 228.5 c 128,-1,19
 122 190 122 190 180 162 c 0,20,21
 192 156 192 156 223 150.5 c 128,-1,22
 254 145 254 145 295 145 c 2,23,-1
 500 141 l 1,24,-1
 797 141 l 2,25,26
 811 141 811 141 823 143 c 128,-1,27
 835 145 835 145 851.5 151.5 c 128,-1,28
 868 158 868 158 883 165 c 128,-1,29
 898 172 898 172 911 181 c 0,30,31
 937 198 937 198 964.5 240.5 c 128,-1,32
 992 283 992 283 1000 334 c 1,33,34
 1000 380 1000 380 999 404 c 0,35,36
 994 525 994 525 994 532 c 0,37,38
 994 585 994 585 990.5 619.5 c 128,-1,39
 987 654 987 654 980 681 c 2,40,-1
 969 724 l 2,41,42
 964 748 964 748 955 765 c 1,43,-1
 1009 861 l 1,44,45
 1015 857 1015 857 1028 802 c 0,46,47
 1033 781 1033 781 1037 757.5 c 128,-1,48
 1041 734 1041 734 1045 706 c 2,49,-1
 1052 632 l 1,50,-1
 1054 554 l 2,51,52
 1054 532 1054 532 1056.5 478.5 c 128,-1,53
 1059 425 1059 425 1059 403 c 0,54,55
 1059 357 1059 357 1061.5 331 c 128,-1,56
 1064 305 1064 305 1069.5 277 c 128,-1,57
 1075 249 1075 249 1091.5 218.5 c 128,-1,58
 1108 188 1108 188 1132 174 c 0,59,60
 1169 153 1169 153 1182 149 c 128,-1,61
 1195 145 1195 145 1207 143 c 128,-1,62
 1219 141 1219 141 1236 141 c 2,63,-1
 1255 141 l 1,64,-1
 1255 0 l 1,65,-1
 1232 0 l 2,66,67
 1192 0 1192 0 1145 19 c 0,68,69
 1087 44 1087 44 1052 84 c 0,70,71
 1031 106 1031 106 1017 136 c 0,72,73
 1006 165 1006 165 1002 201 c 1,74,75
 993 165 993 165 982.5 140 c 128,-1,76
 972 115 972 115 947 84 c 0,77,78
 912 40 912 40 872 17 c 0,79,80
 840 0 840 0 802 0 c 2,81,-1
 492 0 l 2,0,1
582 746 m 1,82,-1
 607 734 l 1,83,-1
 552 674 l 2,84,85
 517 634 517 634 517 612 c 2,86,-1
 517 606 l 1,87,-1
 520 596 l 2,88,89
 521 592 521 592 537 591 c 0,90,91
 551 591 551 591 596 607 c 128,-1,92
 641 623 641 623 656 623 c 0,93,94
 666 623 666 623 668 621 c 0,95,96
 687 610 687 610 699 592 c 128,-1,97
 711 574 711 574 711 552 c 0,98,99
 711 533 711 533 706 515.5 c 128,-1,100
 701 498 701 498 687 463 c 0,101,102
 663 409 663 409 590 369 c 0,103,104
 552 349 552 349 517 339 c 128,-1,105
 482 329 482 329 443 329 c 0,106,107
 422 329 422 329 408 331 c 128,-1,108
 394 333 394 333 379 340 c 1,109,-1
 381 353 l 1,110,111
 452 353 452 353 531.5 392 c 128,-1,112
 611 431 611 431 617 469 c 0,113,114
 619 483 619 483 611.5 489.5 c 128,-1,115
 604 496 604 496 588 498 c 0,116,117
 575 498 575 498 566 492 c 128,-1,118
 557 486 557 486 535.5 479 c 128,-1,119
 514 472 514 472 495 472 c 0,120,121
 475 472 475 472 462.5 478.5 c 128,-1,122
 450 485 450 485 445.5 497.5 c 128,-1,123
 441 510 441 510 439 531 c 0,124,125
 439 559 439 559 453 588 c 0,126,127
 467 621 467 621 488.5 653 c 128,-1,128
 510 685 510 685 540 712 c 0,129,130
 560 732 560 732 582 746 c 1,82,-1
EndSplineSet
EndChar

StartChar: afii57444
Encoding: 1604 1604 242
Width: 793
GlyphClass: 2
Flags: W
AnchorPoint: "Anchor-3" 315 -750 basechar 0
AnchorPoint: "Anchor-2" 525 1020 basechar 0
LayerCount: 2
Fore
SplineSet
787 699 m 1,0,-1
 754 570 l 1,1,-1
 739 572 l 2,2,3
 733 572 733 572 728 576 c 1,4,-1
 719 563 l 1,5,-1
 715 554 l 1,6,-1
 742 410 l 2,7,8
 765 281 765 281 765 234 c 2,9,-1
 766 187 l 1,10,-1
 767 132 l 2,11,12
 767 10 767 10 749 -65 c 0,13,14
 740 -105 740 -105 729 -137 c 128,-1,15
 718 -169 718 -169 699 -205 c 0,16,17
 664 -268 664 -268 545 -318 c 0,18,19
 435 -363 435 -363 328 -363 c 0,20,21
 208 -363 208 -363 136 -319 c 0,22,23
 49 -268 49 -268 31 -154 c 1,24,-1
 29 -129 l 1,25,26
 29 -61 29 -61 73 81 c 0,27,28
 93 148 93 148 144 293 c 1,29,-1
 160 285 l 1,30,-1
 104 114 l 2,31,32
 65 -9 65 -9 68 -29 c 0,33,34
 68 -122 68 -122 135 -170 c 0,35,36
 183 -203 183 -203 295 -226 c 1,37,-1
 348 -230 l 1,38,39
 455 -230 455 -230 565.5 -178.5 c 128,-1,40
 676 -127 676 -127 697 -74 c 2,41,-1
 710 -36 l 1,42,-1
 720 12 l 1,43,44
 717 44 717 44 714.5 139 c 128,-1,45
 712 234 712 234 708 277 c 128,-1,46
 704 320 704 320 685 471 c 0,47,48
 682 496 682 496 678 526.5 c 128,-1,49
 674 557 674 557 668 586 c 1,50,-1
 607 634 l 2,51,52
 573 664 573 664 564 707 c 1,53,54
 564 729 564 729 582 791.5 c 128,-1,55
 600 854 600 854 625 902 c 1,56,-1
 638 898 l 1,57,58
 633 888 633 888 629.5 879 c 128,-1,59
 626 870 626 870 624 865 c 2,60,-1
 621 830 l 2,61,62
 615 778 615 778 687 739 c 1,63,-1
 787 699 l 1,0,-1
EndSplineSet
Substitution2: "'medi' Medial Forms in Arabic lookup 3 subtable" afii62818
Substitution2: "'fina' Terminal Forms in Arabic lookup 2 subtable" afii62819
Substitution2: "'init' Initial Forms in Arabic lookup 1 subtable" afii62817
EndChar

StartChar: afii62817
Encoding: 65247 65247 243
Width: 250
GlyphClass: 2
Flags: W
AnchorPoint: "Anchor-3" 120 -435 basechar 0
AnchorPoint: "Anchor-2" 60 1050 basechar 0
LayerCount: 2
Fore
SplineSet
252 699 m 1,0,-1
 219 570 l 1,1,-1
 204 572 l 2,2,3
 198 572 198 572 193 576 c 1,4,-1
 186 566 l 1,5,-1
 182 554 l 1,6,7
 195 475 195 475 197 460 c 0,8,9
 204 419 204 419 214 365 c 0,10,11
 230 266 230 266 230 228 c 0,12,13
 230 160 230 160 202 89 c 128,-1,14
 174 18 174 18 154 8 c 1,15,16
 125 0 125 0 88 0 c 2,17,-1
 -6 0 l 1,18,-1
 -6 141 l 1,19,-1
 144 141 l 2,20,21
 157 141 157 141 173 147 c 128,-1,22
 189 153 189 153 193 164 c 1,23,-1
 183 233 l 1,24,-1
 162 357 l 1,25,-1
 150 471 l 2,26,27
 147 496 147 496 143 526.5 c 128,-1,28
 139 557 139 557 133 586 c 1,29,-1
 72 634 l 2,30,31
 38 664 38 664 29 707 c 1,32,33
 29 729 29 729 47 791.5 c 128,-1,34
 65 854 65 854 90 902 c 1,35,-1
 103 898 l 1,36,37
 98 888 98 888 94.5 879 c 128,-1,38
 91 870 91 870 89 865 c 2,39,-1
 86 830 l 2,40,41
 80 778 80 778 152 739 c 1,42,-1
 252 699 l 1,0,-1
EndSplineSet
EndChar

StartChar: afii62818
Encoding: 65248 65248 244
Width: 469
GlyphClass: 2
Flags: W
AnchorPoint: "Anchor-3" 210 -450 basechar 0
AnchorPoint: "Anchor-2" 165 990 basechar 0
LayerCount: 2
Fore
SplineSet
476 0 m 1,0,-1
 453 0 l 2,1,2
 413 0 413 0 366 19 c 0,3,4
 308 44 308 44 273 84 c 0,5,6
 252 106 252 106 238 136 c 0,7,8
 227 165 227 165 223 201 c 1,9,10
 214 165 214 165 203.5 140 c 128,-1,11
 193 115 193 115 168 84 c 0,12,13
 133 40 133 40 93 17 c 0,14,15
 61 0 61 0 23 0 c 2,16,-1
 -6 0 l 1,17,-1
 -6 141 l 1,18,-1
 18 141 l 2,19,20
 32 141 32 141 44 143 c 128,-1,21
 56 145 56 145 72.5 151.5 c 128,-1,22
 89 158 89 158 104 165 c 128,-1,23
 119 172 119 172 132 181 c 0,24,25
 158 198 158 198 185.5 240.5 c 128,-1,26
 213 283 213 283 221 334 c 1,27,28
 221 380 221 380 220 404 c 0,29,30
 215 525 215 525 215 532 c 0,31,32
 215 585 215 585 211.5 619.5 c 128,-1,33
 208 654 208 654 201 681 c 2,34,-1
 190 724 l 2,35,36
 185 748 185 748 176 765 c 1,37,-1
 230 861 l 1,38,39
 236 857 236 857 249 802 c 0,40,41
 254 781 254 781 258 757.5 c 128,-1,42
 262 734 262 734 266 706 c 2,43,-1
 273 632 l 1,44,-1
 275 554 l 2,45,46
 275 532 275 532 277.5 478.5 c 128,-1,47
 280 425 280 425 280 403 c 0,48,49
 280 357 280 357 282.5 331 c 128,-1,50
 285 305 285 305 290.5 277 c 128,-1,51
 296 249 296 249 312.5 218.5 c 128,-1,52
 329 188 329 188 353 174 c 0,53,54
 390 153 390 153 403 149 c 128,-1,55
 416 145 416 145 428 143 c 128,-1,56
 440 141 440 141 457 141 c 2,57,-1
 476 141 l 1,58,-1
 476 0 l 1,0,-1
EndSplineSet
EndChar

StartChar: afii57445
Encoding: 1605 1605 245
Width: 592
GlyphClass: 2
Flags: W
AnchorPoint: "Anchor-3" 405 -465 basechar 0
AnchorPoint: "Anchor-2" 240 645 basechar 0
LayerCount: 2
Fore
SplineSet
554 86 m 1,0,-1
 515 70 l 1,1,2
 484 96 484 96 408 124 c 0,3,4
 344 147 344 147 306 152 c 2,5,-1
 241 159 l 1,6,-1
 198 162 l 2,7,8
 177 162 177 162 166 161 c 128,-1,9
 155 160 155 160 136.5 154.5 c 128,-1,10
 118 149 118 149 109 133 c 1,11,12
 160 31 160 31 175 -4 c 0,13,14
 205 -72 205 -72 205 -144 c 2,15,-1
 205 -161 l 1,16,-1
 205 -176 l 1,17,-1
 205 -188 l 2,18,19
 205 -233 205 -233 200 -256 c 0,20,21
 196 -296 196 -296 176 -353 c 1,22,-1
 156 -310 l 1,23,-1
 156 -259 l 1,24,-1
 156 -219 l 2,25,26
 156 -189 156 -189 145 -154 c 0,27,28
 138 -124 138 -124 88 8 c 0,29,30
 71 54 71 54 61 90.5 c 128,-1,31
 51 127 51 127 51 145 c 2,32,-1
 53 160 l 1,33,34
 68 226 68 226 115 267 c 1,35,-1
 163 274 l 1,36,-1
 230 279 l 2,37,38
 262 279 262 279 291 273 c 1,39,40
 291 291 291 291 248 316 c 0,41,42
 222 331 222 331 199 334 c 2,43,-1
 170 337 l 2,44,45
 134 337 134 337 92 316 c 1,46,-1
 72 344 l 1,47,48
 81 379 81 379 105 408 c 0,49,50
 142 451 142 451 195 451 c 0,51,52
 275 451 275 451 400 333 c 0,53,54
 535 207 535 207 554 86 c 1,0,-1
EndSplineSet
Substitution2: "'medi' Medial Forms in Arabic lookup 3 subtable" afii62821
Substitution2: "'fina' Terminal Forms in Arabic lookup 2 subtable" afii62822
Substitution2: "'init' Initial Forms in Arabic lookup 1 subtable" afii62820
EndChar

StartChar: afii62822
Encoding: 65250 65250 246
Width: 845
GlyphClass: 2
Flags: W
AnchorPoint: "Anchor-3" 420 -615 basechar 0
AnchorPoint: "Anchor-2" 405 720 basechar 0
LayerCount: 2
Fore
SplineSet
855 0 m 1,0,-1
 810 0 l 2,1,2
 779 0 779 0 755 4 c 128,-1,3
 731 8 731 8 697 20 c 0,4,5
 641 41 641 41 621 59 c 1,6,-1
 617 24 l 2,7,8
 617 13 617 13 613 10 c 0,9,10
 575 5 575 5 470 47 c 0,11,12
 356 92 356 92 344 133 c 1,13,-1
 342 153 l 1,14,15
 342 194 342 194 361 238 c 0,16,17
 384 293 384 293 426 322 c 1,18,-1
 424 330 l 1,19,-1
 409 331 l 1,20,-1
 396 331 l 2,21,22
 326 331 326 331 251.5 303.5 c 128,-1,23
 177 276 177 276 154 244 c 0,24,25
 147 235 147 235 142 217 c 2,26,-1
 138 181 l 1,27,28
 138 138 138 138 159 54 c 2,29,-1
 201 -115 l 2,30,31
 211 -156 211 -156 217 -193.5 c 128,-1,32
 223 -231 223 -231 223 -258 c 0,33,34
 223 -315 223 -315 199 -369 c 0,35,36
 194 -383 194 -383 139 -472 c 1,37,-1
 129 -439 l 1,38,39
 142 -387 142 -387 142 -338 c 0,40,41
 142 -274 142 -274 122 -187 c 0,42,43
 113 -143 113 -143 109 -121 c 0,44,45
 101 -82 101 -82 85.5 -12 c 128,-1,46
 70 58 70 58 70 108 c 0,47,48
 70 170 70 170 97 233 c 2,49,-1
 131 303 l 2,50,51
 165 374 165 374 267 416 c 0,52,53
 355 451 355 451 454 451 c 0,54,55
 506 451 506 451 538.5 441.5 c 128,-1,56
 571 432 571 432 585 411 c 0,57,58
 596 393 596 393 610 333 c 2,59,-1
 627 260 l 2,60,61
 643 199 643 199 713 166 c 0,62,63
 769 141 769 141 832 141 c 2,64,-1
 855 141 l 1,65,-1
 855 0 l 1,0,-1
554 180 m 1,66,67
 552 185 552 185 546.5 200.5 c 128,-1,68
 541 216 541 216 537 230 c 2,69,-1
 523 295 l 1,70,71
 516 308 516 308 497 308 c 0,72,73
 477 308 477 308 452.5 294 c 128,-1,74
 428 280 428 280 420 260 c 0,75,76
 414 240 414 240 481 205.5 c 128,-1,77
 548 171 548 171 554 180 c 1,66,67
EndSplineSet
EndChar

StartChar: afii62820
Encoding: 65251 65251 247
Width: 711
GlyphClass: 2
Flags: W
AnchorPoint: "Anchor-3" 240 -525 basechar 0
AnchorPoint: "Anchor-2" 270 705 basechar 0
LayerCount: 2
Fore
SplineSet
687 185 m 0,0,1
 690 158 690 158 658 95 c 2,2,-1
 609 2 l 2,3,4
 601 -7 601 -7 587 -7 c 2,5,-1
 576 -6 l 1,6,7
 507 11 507 11 408 45 c 2,8,-1
 252 102 l 2,9,10
 184 125 184 125 176 125 c 1,11,12
 147 75 147 75 113.5 37.5 c 128,-1,13
 80 0 80 0 47 0 c 2,14,-1
 -6 0 l 1,15,-1
 -6 141 l 1,16,-1
 21 141 l 2,17,18
 74 141 74 141 123 187 c 0,19,20
 157 219 157 219 209 285 c 2,21,-1
 291 391 l 2,22,23
 336 448 336 448 363 472 c 0,24,25
 409 507 409 507 464 507 c 0,26,27
 471 507 471 507 476.5 507 c 128,-1,28
 482 507 482 507 494 503 c 0,29,30
 508 500 508 500 519 490 c 0,31,32
 566 448 566 448 625 338 c 0,33,34
 677 237 677 237 687 185 c 0,0,1
558 199 m 0,35,36
 549 230 549 230 506 279 c 0,37,38
 449 345 449 345 387 355 c 0,39,40
 379 355 379 355 336.5 323 c 128,-1,41
 294 291 294 291 275 271 c 1,42,43
 290 261 290 261 392 217 c 0,44,45
 491 176 491 176 543 162 c 0,46,47
 547 165 547 165 553 178 c 0,48,49
 556 184 556 184 556.5 189.5 c 128,-1,50
 557 195 557 195 558 199 c 0,35,36
EndSplineSet
EndChar

StartChar: afii57446
Encoding: 1606 1606 248
Width: 773
GlyphClass: 2
Flags: W
AnchorPoint: "Anchor-3" 345 -585 basechar 0
AnchorPoint: "Anchor-2" 405 975 basechar 0
LayerCount: 2
Fore
SplineSet
496 769 m 1,0,-1
 420 650 l 1,1,-1
 287 728 l 1,2,-1
 363 843 l 1,3,-1
 496 769 l 1,0,-1
728 392 m 2,4,5
 732 382 732 382 736.5 363 c 128,-1,6
 741 344 741 344 746 311.5 c 128,-1,7
 751 279 751 279 751 231 c 0,8,9
 751 166 751 166 741.5 115 c 128,-1,10
 732 64 732 64 711 23 c 0,11,12
 675 -43 675 -43 560 -89 c 0,13,14
 505 -111 505 -111 449 -123 c 128,-1,15
 393 -135 393 -135 340 -135 c 0,16,17
 220 -135 220 -135 148 -91 c 0,18,19
 63 -40 63 -40 43 74 c 1,20,-1
 42 87 l 1,21,-1
 42 97 l 2,22,23
 42 164 42 164 85 308 c 0,24,25
 97 349 97 349 109.5 386.5 c 128,-1,26
 122 424 122 424 156 521 c 1,27,-1
 172 510 l 1,28,-1
 133 391 l 2,29,30
 80 229 80 229 80 199 c 0,31,32
 80 106 80 106 147 58 c 0,33,34
 193 25 193 25 305 2 c 1,35,-1
 342 -2 l 1,36,-1
 365 -3 l 1,37,38
 477 -3 477 -3 587.5 45 c 128,-1,39
 698 93 698 93 707 150 c 1,40,-1
 708 170 l 2,41,42
 708 224 708 224 669 317 c 0,43,44
 654 353 654 353 603 451 c 1,45,46
 603 485 603 485 622 530 c 0,47,48
 637 568 637 568 650 578 c 1,49,50
 669 543 669 543 689 492 c 2,51,-1
 728 392 l 2,4,5
EndSplineSet
Substitution2: "'medi' Medial Forms in Arabic lookup 3 subtable" afii62824
Substitution2: "'fina' Terminal Forms in Arabic lookup 2 subtable" afii62825
Substitution2: "'init' Initial Forms in Arabic lookup 1 subtable" afii62823
EndChar

StartChar: afii62825
Encoding: 65254 65254 249
Width: 882
GlyphClass: 2
Flags: W
AnchorPoint: "Anchor-3" 345 -750 basechar 0
AnchorPoint: "Anchor-2" 375 825 basechar 0
LayerCount: 2
Fore
SplineSet
496 590 m 1,0,-1
 420 474 l 1,1,-1
 287 554 l 1,2,-1
 363 668 l 1,3,-1
 496 590 l 1,0,-1
888 0 m 1,4,-1
 826 0 l 2,5,6
 802 0 802 0 781 9.5 c 128,-1,7
 760 19 760 19 744 35 c 1,8,9
 744 7 744 7 741 -18 c 128,-1,10
 738 -43 738 -43 730 -71 c 0,11,12
 718 -125 718 -125 693 -164 c 0,13,14
 659 -228 659 -228 549 -273 c 0,15,16
 446 -314 446 -314 340 -314 c 0,17,18
 222 -314 222 -314 148 -269 c 0,19,20
 62 -216 62 -216 43 -103 c 1,21,-1
 42 -80 l 2,22,23
 42 -32 42 -32 63 52 c 0,24,25
 79 121 79 121 110 210 c 2,26,-1
 156 344 l 1,27,-1
 172 336 l 1,28,-1
 133 215 l 2,29,30
 80 52 80 52 80 23 c 0,31,32
 80 -72 80 -72 147 -120 c 0,33,34
 195 -153 195 -153 305 -174 c 1,35,-1
 330 -177 l 1,36,-1
 368 -179 l 1,37,38
 479 -179 479 -179 588.5 -130.5 c 128,-1,39
 698 -82 698 -82 707 -29 c 1,40,-1
 708 -9 l 2,41,42
 708 47 708 47 669 140 c 0,43,44
 651 185 651 185 603 275 c 1,45,46
 603 309 603 309 622 354 c 0,47,48
 637 392 637 392 650 402 c 1,49,50
 669 368 669 368 689 317 c 2,51,-1
 728 215 l 2,52,53
 740 178 740 178 784 158 c 0,54,55
 803 149 803 149 818.5 145 c 128,-1,56
 834 141 834 141 855 141 c 2,57,-1
 888 141 l 1,58,-1
 888 0 l 1,4,-1
EndSplineSet
EndChar

StartChar: afii62828
Encoding: 65258 65258 253
Width: 728
GlyphClass: 2
Flags: W
AnchorPoint: "Anchor-3" 360 -465 basechar 0
AnchorPoint: "Anchor-2" 300 840 basechar 0
LayerCount: 2
Fore
SplineSet
736 0 m 1,0,-1
 685 0 l 2,1,2
 664 0 664 0 632 12 c 128,-1,3
 600 24 600 24 582 41 c 0,4,5
 534 83 534 83 506 169 c 0,6,7
 488 224 488 224 476 312 c 1,8,9
 460 287 460 287 416 236 c 0,10,11
 367 177 367 177 342 156 c 1,12,-1
 298 149 l 1,13,-1
 227 146 l 2,14,15
 153 146 153 146 101 154.5 c 128,-1,16
 49 163 49 163 31 182 c 1,17,18
 31 201 31 201 63 246 c 0,19,20
 89 283 89 283 133 332 c 1,21,-1
 165 355 l 2,22,23
 196 374 196 374 227 386 c 2,24,-1
 308 414 l 1,25,-1
 469 465 l 1,26,-1
 469 613 l 1,27,-1
 510 701 l 1,28,-1
 523 695 l 1,29,30
 514 647 514 647 514 554 c 0,31,32
 514 458 514 458 524.5 382.5 c 128,-1,33
 535 307 535 307 564 248 c 0,34,35
 579 216 579 216 621.5 178.5 c 128,-1,36
 664 141 664 141 703 141 c 2,37,-1
 736 141 l 1,38,-1
 736 0 l 1,0,-1
476 330 m 1,39,-1
 476 341 l 2,40,41
 476 348 476 348 474 360 c 0,42,43
 474 377 474 377 472 383 c 2,44,-1
 472 445 l 1,45,-1
 435 410 l 1,46,-1
 396 377 l 2,47,48
 370 358 370 358 231 322 c 0,49,50
 177 309 177 309 174 295 c 1,51,52
 178 287 178 287 231 279 c 0,53,54
 257 276 257 276 283.5 274 c 128,-1,55
 310 272 310 272 339 272 c 2,56,-1
 362 272 l 2,57,58
 370 272 370 272 378 272 c 0,59,60
 387 274 387 274 391 274 c 0,61,62
 408 274 408 274 422 283 c 0,63,64
 453 297 453 297 476 330 c 1,39,-1
EndSplineSet
EndChar

StartChar: afii57448
Encoding: 1608 1608 254
Width: 722
GlyphClass: 2
Flags: W
AnchorPoint: "Anchor-3" 255 -750 basechar 0
AnchorPoint: "Anchor-2" 495 720 basechar 0
LayerCount: 2
Fore
SplineSet
703 217 m 0,0,1
 703 151 703 151 694 93.5 c 128,-1,2
 685 36 685 36 665 -19 c 0,3,4
 649 -63 649 -63 630.5 -98.5 c 128,-1,5
 612 -134 612 -134 585 -170 c 0,6,7
 555 -211 555 -211 513 -246 c 0,8,9
 465 -291 465 -291 376 -345 c 0,10,11
 294 -395 294 -395 254 -408 c 1,12,13
 207 -396 207 -396 118 -348 c 0,14,15
 54 -314 54 -314 -23 -264 c 2,16,-1
 -88 -221 l 1,17,-1
 -82 -211 l 1,18,-1
 18 -256 l 2,19,20
 102 -292 102 -292 157 -292 c 2,21,-1
 190 -290 l 2,22,23
 205 -290 205 -290 282 -256 c 0,24,25
 376 -215 376 -215 455 -157 c 0,26,27
 554 -83 554 -83 607 6 c 0,28,29
 621 26 621 26 632 52 c 0,30,31
 647 85 647 85 647 112 c 0,32,33
 647 132 647 132 639 148 c 0,34,35
 633 165 633 165 615 180 c 1,36,37
 603 166 603 166 586 124 c 0,38,39
 579 105 579 105 568 92 c 0,40,41
 548 70 548 70 518.5 58.5 c 128,-1,42
 489 47 489 47 457 47 c 0,43,44
 427 47 427 47 403 54.5 c 128,-1,45
 379 62 379 62 354.5 79.5 c 128,-1,46
 330 97 330 97 317 126 c 0,47,48
 306 156 306 156 306 193 c 0,49,50
 306 273 306 273 354 378 c 0,51,52
 399 473 399 473 451 521 c 0,53,54
 467 535 467 535 488 535 c 0,55,56
 528 535 528 535 579 488 c 0,57,58
 600 470 600 470 615 449 c 0,59,60
 665 385 665 385 684 336.5 c 128,-1,61
 703 288 703 288 703 217 c 0,0,1
588 238 m 1,62,-1
 587 254 l 2,63,64
 586 258 586 258 584.5 261.5 c 128,-1,65
 583 265 583 265 576 275 c 0,66,67
 556 313 556 313 509 339 c 128,-1,68
 462 365 462 365 439 361 c 0,69,70
 369 349 369 349 369 283 c 0,71,72
 369 259 369 259 407 238 c 0,73,74
 445 219 445 219 495 219 c 0,75,76
 541 219 541 219 588 238 c 1,62,-1
EndSplineSet
Substitution2: "'fina' Terminal Forms in Arabic lookup 2 subtable" afii62829
PairPos2: "'kern' Horizontal Kerning in Arabic lookup 1 subtable" afii62840 dx=0 dy=0 dh=0 dv=0 dx=0 dy=0 dh=-100 dv=0
PairPos2: "'kern' Horizontal Kerning in Arabic lookup 1 subtable" afii62838 dx=0 dy=0 dh=0 dv=0 dx=0 dy=0 dh=-100 dv=0
PairPos2: "'kern' Horizontal Kerning in Arabic lookup 1 subtable" afii62836 dx=0 dy=0 dh=0 dv=0 dx=0 dy=0 dh=-100 dv=0
PairPos2: "'kern' Horizontal Kerning in Arabic lookup 1 subtable" afii62834 dx=0 dy=0 dh=0 dv=0 dx=0 dy=0 dh=-100 dv=0
PairPos2: "'kern' Horizontal Kerning in Arabic lookup 1 subtable" afii52400 dx=0 dy=0 dh=0 dv=0 dx=0 dy=0 dh=-100 dv=0
PairPos2: "'kern' Horizontal Kerning in Arabic lookup 0 subtable" afii62831 dx=0 dy=0 dh=0 dv=0 dx=0 dy=0 dh=170 dv=0
PairPos2: "'kern' Horizontal Kerning in Arabic lookup 0 subtable" afii57450 dx=0 dy=0 dh=0 dv=0 dx=0 dy=0 dh=40 dv=0
PairPos2: "'kern' Horizontal Kerning in Arabic lookup 0 subtable" afii57449 dx=0 dy=0 dh=0 dv=0 dx=0 dy=0 dh=40 dv=0
PairPos2: "'kern' Horizontal Kerning in Arabic lookup 0 subtable" afii57444 dx=0 dy=0 dh=0 dv=0 dx=0 dy=0 dh=80 dv=0
PairPos2: "'kern' Horizontal Kerning in Arabic lookup 0 subtable" afii57410 dx=0 dy=0 dh=0 dv=0 dx=0 dy=0 dh=-270 dv=0
PairPos2: "'kern' Horizontal Kerning in Arabic lookup 0 subtable" afii62761 dx=0 dy=0 dh=0 dv=0 dx=0 dy=0 dh=170 dv=0
PairPos2: "'kern' Horizontal Kerning in Arabic lookup 0 subtable" afii57414 dx=0 dy=0 dh=0 dv=0 dx=0 dy=0 dh=40 dv=0
PairPos2: "'kern' Horizontal Kerning in Arabic lookup 0 subtable" afii57413 dx=0 dy=0 dh=0 dv=0 dx=0 dy=0 dh=130 dv=0
PairPos2: "'kern' Horizontal Kerning in Arabic lookup 0 subtable" afii57555 dx=0 dy=0 dh=0 dv=0 dx=0 dy=0 dh=40 dv=0
PairPos2: "'kern' Horizontal Kerning in Arabic lookup 0 subtable" afii62965 dx=0 dy=0 dh=0 dv=0 dx=0 dy=0 dh=-270 dv=0
PairPos2: "'kern' Horizontal Kerning in Arabic lookup 0 subtable" afii57509 dx=0 dy=0 dh=0 dv=0 dx=0 dy=0 dh=-270 dv=0
PairPos2: "'kern' Horizontal Kerning in Arabic lookup 0 subtable" afii52305 dx=0 dy=0 dh=0 dv=0 dx=0 dy=0 dh=-270 dv=0
PairPos2: "'kern' Horizontal Kerning in Arabic lookup 0 subtable" afii57567 dx=0 dy=0 dh=0 dv=0 dx=0 dy=0 dh=-270 dv=0
PairPos2: "'kern' Horizontal Kerning in Arabic lookup 0 subtable" afii62956 dx=0 dy=0 dh=0 dv=0 dx=0 dy=0 dh=170 dv=0
EndChar

StartChar: afii62829
Encoding: 65262 65262 255
Width: 832
GlyphClass: 2
Flags: W
AnchorPoint: "Anchor-3" 195 -840 basechar 0
AnchorPoint: "Anchor-2" 600 675 basechar 0
LayerCount: 2
Fore
SplineSet
851 0 m 1,0,-1
 726 0 l 1,1,2
 695 -82 695 -82 648 -149 c 0,3,4
 607 -209 607 -209 564 -246 c 0,5,6
 542 -267 542 -267 507 -292.5 c 128,-1,7
 472 -318 472 -318 427 -345 c 0,8,9
 345 -395 345 -395 305 -408 c 1,10,11
 255 -396 255 -396 147 -344 c 0,12,13
 113 -328 113 -328 67.5 -305 c 128,-1,14
 22 -282 22 -282 -33 -252 c 2,15,-1
 -119 -205 l 1,16,-1
 -113 -195 l 1,17,18
 -21 -237 -21 -237 57 -261 c 0,19,20
 105 -276 105 -276 144.5 -284 c 128,-1,21
 184 -292 184 -292 213 -292 c 2,22,-1
 242 -290 l 2,23,24
 258 -290 258 -290 344 -250 c 0,25,26
 442 -205 442 -205 524 -145 c 0,27,28
 624 -71 624 -71 654 2 c 1,29,30
 609 2 609 2 568.5 12.5 c 128,-1,31
 528 23 528 23 482 49 c 0,32,33
 452 66 452 66 436 96 c 0,34,35
 422 127 422 127 422 166 c 0,36,37
 422 237 422 237 459.5 316.5 c 128,-1,38
 497 396 497 396 545 441 c 0,39,40
 572 465 572 465 617 465 c 0,41,42
 649 465 649 465 666 449 c 0,43,44
 716 405 716 405 737 338 c 0,45,46
 748 305 748 305 761 203 c 1,47,-1
 762 186 l 1,48,-1
 763 172 l 1,49,-1
 763 153 l 1,50,-1
 761 141 l 1,51,-1
 851 141 l 1,52,-1
 851 0 l 1,0,-1
685 144 m 1,53,-1
 686 157 l 1,54,-1
 686 167 l 2,55,56
 686 190 686 190 681 205 c 0,57,58
 669 259 669 259 622 298 c 0,59,60
 582 332 582 332 558 328 c 0,61,62
 524 320 524 320 504 297 c 128,-1,63
 484 274 484 274 484 240 c 0,64,65
 487 207 487 207 543 180 c 128,-1,66
 599 153 599 153 685 144 c 1,53,-1
EndSplineSet
PairPos2: "'kern' Horizontal Kerning in Arabic lookup 1 subtable" afii62840 dx=0 dy=0 dh=0 dv=0 dx=0 dy=0 dh=-100 dv=0
PairPos2: "'kern' Horizontal Kerning in Arabic lookup 1 subtable" afii62838 dx=0 dy=0 dh=0 dv=0 dx=0 dy=0 dh=-100 dv=0
PairPos2: "'kern' Horizontal Kerning in Arabic lookup 1 subtable" afii62836 dx=0 dy=0 dh=0 dv=0 dx=0 dy=0 dh=-100 dv=0
PairPos2: "'kern' Horizontal Kerning in Arabic lookup 1 subtable" afii62834 dx=0 dy=0 dh=0 dv=0 dx=0 dy=0 dh=-100 dv=0
PairPos2: "'kern' Horizontal Kerning in Arabic lookup 1 subtable" afii52400 dx=0 dy=0 dh=0 dv=0 dx=0 dy=0 dh=-100 dv=0
PairPos2: "'kern' Horizontal Kerning in Arabic lookup 0 subtable" afii62831 dx=0 dy=0 dh=0 dv=0 dx=0 dy=0 dh=200 dv=0
PairPos2: "'kern' Horizontal Kerning in Arabic lookup 0 subtable" afii57450 dx=0 dy=0 dh=0 dv=0 dx=0 dy=0 dh=70 dv=0
PairPos2: "'kern' Horizontal Kerning in Arabic lookup 0 subtable" afii57449 dx=0 dy=0 dh=0 dv=0 dx=0 dy=0 dh=70 dv=0
PairPos2: "'kern' Horizontal Kerning in Arabic lookup 0 subtable" afii57448 dx=0 dy=0 dh=0 dv=0 dx=0 dy=0 dh=70 dv=0
PairPos2: "'kern' Horizontal Kerning in Arabic lookup 0 subtable" afii57444 dx=0 dy=0 dh=0 dv=0 dx=0 dy=0 dh=70 dv=0
PairPos2: "'kern' Horizontal Kerning in Arabic lookup 0 subtable" afii57410 dx=0 dy=0 dh=0 dv=0 dx=0 dy=0 dh=-270 dv=0
PairPos2: "'kern' Horizontal Kerning in Arabic lookup 0 subtable" afii57434 dx=0 dy=0 dh=0 dv=0 dx=0 dy=0 dh=-100 dv=0
PairPos2: "'kern' Horizontal Kerning in Arabic lookup 0 subtable" afii57433 dx=0 dy=0 dh=0 dv=0 dx=0 dy=0 dh=-100 dv=0
PairPos2: "'kern' Horizontal Kerning in Arabic lookup 0 subtable" afii57426 dx=0 dy=0 dh=0 dv=0 dx=0 dy=0 dh=70 dv=0
PairPos2: "'kern' Horizontal Kerning in Arabic lookup 0 subtable" afii57425 dx=0 dy=0 dh=0 dv=0 dx=0 dy=0 dh=70 dv=0
PairPos2: "'kern' Horizontal Kerning in Arabic lookup 0 subtable" afii62761 dx=0 dy=0 dh=0 dv=0 dx=0 dy=0 dh=200 dv=0
PairPos2: "'kern' Horizontal Kerning in Arabic lookup 0 subtable" afii57414 dx=0 dy=0 dh=0 dv=0 dx=0 dy=0 dh=70 dv=0
PairPos2: "'kern' Horizontal Kerning in Arabic lookup 0 subtable" afii57413 dx=0 dy=0 dh=0 dv=0 dx=0 dy=0 dh=170 dv=0
PairPos2: "'kern' Horizontal Kerning in Arabic lookup 0 subtable" afii57555 dx=0 dy=0 dh=0 dv=0 dx=0 dy=0 dh=70 dv=0
PairPos2: "'kern' Horizontal Kerning in Arabic lookup 0 subtable" afii62965 dx=0 dy=0 dh=0 dv=0 dx=0 dy=0 dh=-270 dv=0
PairPos2: "'kern' Horizontal Kerning in Arabic lookup 0 subtable" afii57509 dx=0 dy=0 dh=0 dv=0 dx=0 dy=0 dh=-270 dv=0
PairPos2: "'kern' Horizontal Kerning in Arabic lookup 0 subtable" afii52305 dx=0 dy=0 dh=0 dv=0 dx=0 dy=0 dh=-270 dv=0
PairPos2: "'kern' Horizontal Kerning in Arabic lookup 0 subtable" afii57567 dx=0 dy=0 dh=0 dv=0 dx=0 dy=0 dh=-270 dv=0
PairPos2: "'kern' Horizontal Kerning in Arabic lookup 0 subtable" afii62956 dx=0 dy=0 dh=0 dv=0 dx=0 dy=0 dh=200 dv=0
EndChar

StartChar: afii62840
Encoding: 65275 65275 268
Width: 861
GlyphClass: 3
Flags: W
AnchorPoint: "Anchor-1" 615 -420 baselig 0
AnchorPoint: "Anchor-0" 615 1110 baselig 0
AnchorPoint: "Anchor-1" 255 -435 baselig 1
AnchorPoint: "Anchor-0" 135 1125 baselig 1
LayerCount: 2
Fore
SplineSet
810 810 m 1,0,-1
 762 683 l 1,1,-1
 723 699 l 1,2,-1
 713 690 l 1,3,-1
 709 679 l 1,4,5
 709 625 709 625 690 546.5 c 128,-1,6
 671 468 671 468 644 398 c 1,7,8
 665 350 665 350 677 314 c 128,-1,9
 689 278 689 278 689 264 c 0,10,11
 689 138 689 138 671.5 78.5 c 128,-1,12
 654 19 654 19 625 6 c 1,13,-1
 599 1 l 1,14,-1
 548 0 l 1,15,-1
 480 1 l 1,16,-1
 410 2 l 2,17,18
 373 2 373 2 352 16.5 c 128,-1,19
 331 31 331 31 313 62 c 0,20,21
 301 86 301 86 301 128 c 0,22,23
 301 160 301 160 304.5 184 c 128,-1,24
 308 208 308 208 320 252 c 1,25,-1
 332 252 l 1,26,-1
 331 233 l 2,27,28
 331 195 331 195 349 176 c 128,-1,29
 367 157 367 157 398 152 c 1,30,31
 443 180 443 180 488 225 c 0,32,33
 539 276 539 276 580 340 c 1,34,-1
 541 406 l 2,35,36
 508 459 508 459 430 544 c 0,37,38
 358 624 358 624 290.5 685 c 128,-1,39
 223 746 223 746 211 738 c 0,40,41
 206 732 206 732 202 704 c 2,42,-1
 197 664 l 1,43,-1
 192 662 l 2,44,45
 188 660 188 660 188 658 c 1,46,47
 159 712 159 712 157 716 c 0,48,49
 142 738 142 738 135 748 c 0,50,51
 98 807 98 807 98 828 c 0,52,53
 98 842 98 842 114 893 c 128,-1,54
 130 944 130 944 137 949 c 1,55,56
 225 904 225 904 302 839 c 0,57,58
 367 785 367 785 436 707 c 0,59,60
 488 648 488 648 545 568 c 0,61,62
 556 553 556 553 568 535 c 128,-1,63
 580 517 580 517 590 500 c 2,64,-1
 627 431 l 1,65,66
 648 485 648 485 660 538.5 c 128,-1,67
 672 592 672 592 672 652 c 0,68,69
 672 687 672 687 666 726 c 1,70,-1
 613 772 l 2,71,72
 588 795 588 795 588 836 c 0,73,74
 588 853 588 853 611 911 c 0,75,76
 625 946 625 946 638 973.5 c 128,-1,77
 651 1001 651 1001 666 1025 c 1,78,-1
 678 1021 l 1,79,-1
 665 996 l 1,80,-1
 657 963 l 1,81,-1
 654 937 l 1,82,83
 654 893 654 893 720 854 c 1,84,-1
 810 810 l 1,0,-1
654 146 m 1,85,86
 632 220 632 220 628 228 c 0,87,88
 616 264 616 264 598 299 c 1,89,-1
 580 267 l 1,90,-1
 559 240 l 2,91,92
 552 229 552 229 542.5 218 c 128,-1,93
 533 207 533 207 518 192 c 2,94,-1
 465 139 l 1,95,-1
 507 133 l 1,96,-1
 566 131 l 1,97,-1
 625 134 l 2,98,99
 646 137 646 137 654 146 c 1,85,86
EndSplineSet
Ligature2: "'rlig' Required Ligatures in Arabic lookup 6 subtable" afii62817 afii62760
Substitution2: "'fina' Terminal Forms in Arabic lookup 2 subtable" afii62841
PairPos2: "'kern' Horizontal Kerning in Arabic lookup 0 subtable" afii57410 dx=0 dy=0 dh=0 dv=0 dx=0 dy=0 dh=100 dv=0
PairPos2: "'kern' Horizontal Kerning in Arabic lookup 0 subtable" afii57434 dx=0 dy=0 dh=0 dv=0 dx=0 dy=0 dh=-200 dv=0
PairPos2: "'kern' Horizontal Kerning in Arabic lookup 0 subtable" afii57433 dx=0 dy=0 dh=0 dv=0 dx=0 dy=0 dh=-200 dv=0
PairPos2: "'kern' Horizontal Kerning in Arabic lookup 0 subtable" afii57424 dx=0 dy=0 dh=0 dv=0 dx=0 dy=0 dh=-100 dv=0
PairPos2: "'kern' Horizontal Kerning in Arabic lookup 0 subtable" afii57423 dx=0 dy=0 dh=0 dv=0 dx=0 dy=0 dh=-100 dv=0
PairPos2: "'kern' Horizontal Kerning in Arabic lookup 0 subtable" afii62965 dx=0 dy=0 dh=0 dv=0 dx=0 dy=0 dh=100 dv=0
PairPos2: "'kern' Horizontal Kerning in Arabic lookup 0 subtable" afii57509 dx=0 dy=0 dh=0 dv=0 dx=0 dy=0 dh=100 dv=0
PairPos2: "'kern' Horizontal Kerning in Arabic lookup 0 subtable" afii52305 dx=0 dy=0 dh=0 dv=0 dx=0 dy=0 dh=100 dv=0
PairPos2: "'kern' Horizontal Kerning in Arabic lookup 0 subtable" afii57567 dx=0 dy=0 dh=0 dv=0 dx=0 dy=0 dh=100 dv=0
EndChar

StartChar: afii62841
Encoding: 65276 65276 269
Width: 1367
GlyphClass: 3
Flags: W
AnchorPoint: "Anchor-1" 885 -465 baselig 0
AnchorPoint: "Anchor-0" 975 990 baselig 0
AnchorPoint: "Anchor-1" 420 -450 baselig 1
AnchorPoint: "Anchor-0" 390 1005 baselig 1
LayerCount: 2
Fore
SplineSet
1371 0 m 1,0,-1
 1334 0 l 2,1,2
 1307 0 1307 0 1267.5 15 c 128,-1,3
 1228 30 1228 30 1205 55 c 0,4,5
 1149 111 1149 111 1121 221 c 0,6,7
 1107 277 1107 277 1101 314 c 0,8,9
 1091 373 1091 373 1091 435 c 1,10,-1
 1076 644 l 1,11,12
 1001 328 1001 328 909 193 c 0,13,14
 807 44 807 44 604 -14 c 0,15,16
 547 -31 547 -31 436.5 -41.5 c 128,-1,17
 326 -52 326 -52 232 -52 c 0,18,19
 123 -52 123 -52 80 -41 c 1,20,-1
 90 -25 l 1,21,22
 278 4 278 4 434 58 c 0,23,24
 565 102 565 102 676 166 c 1,25,-1
 679 219 l 1,26,27
 679 355 679 355 608 475 c 0,28,29
 545 582 545 582 520 566 c 1,30,-1
 510 539 l 1,31,-1
 502 500 l 1,32,-1
 496 495 l 2,33,34
 490 491 490 491 485 492 c 1,35,-1
 424 634 l 2,36,37
 401 691 401 691 399 701 c 0,38,39
 399 706 399 706 405 721.5 c 128,-1,40
 411 737 411 737 425 769 c 0,41,42
 451 828 451 828 457 832 c 1,43,44
 504 814 504 814 583 726 c 0,45,46
 673 626 673 626 715 525 c 0,47,48
 720 512 720 512 722 504.5 c 128,-1,49
 724 497 724 497 729 467.5 c 128,-1,50
 734 438 734 438 734 396 c 0,51,52
 734 337 734 337 724.5 282.5 c 128,-1,53
 715 228 715 228 693 176 c 1,54,55
 768 221 768 221 809 256.5 c 128,-1,56
 850 292 850 292 889.5 342.5 c 128,-1,57
 929 393 929 393 992 553.5 c 128,-1,58
 1055 714 1055 714 1062 781 c 0,59,60
 1062 819 1062 819 1079 847 c 0,61,62
 1090 867 1090 867 1107 882 c 1,63,64
 1114 868 1114 868 1120.5 833 c 128,-1,65
 1127 798 1127 798 1127 749 c 2,66,-1
 1133 538 l 2,67,68
 1133 489 1133 489 1136.5 451 c 128,-1,69
 1140 413 1140 413 1146 394 c 0,70,71
 1177 270 1177 270 1253 197 c 0,72,73
 1311 141 1311 141 1359 141 c 2,74,-1
 1371 141 l 1,75,-1
 1371 0 l 1,0,-1
EndSplineSet
Ligature2: "'rlig' Required Ligatures in Arabic lookup 6 subtable" afii62818 afii62760
PairPos2: "'kern' Horizontal Kerning in Arabic lookup 0 subtable" afii57410 dx=0 dy=0 dh=0 dv=0 dx=0 dy=0 dh=-150 dv=0
PairPos2: "'kern' Horizontal Kerning in Arabic lookup 0 subtable" afii62965 dx=0 dy=0 dh=0 dv=0 dx=0 dy=0 dh=-150 dv=0
PairPos2: "'kern' Horizontal Kerning in Arabic lookup 0 subtable" afii57509 dx=0 dy=0 dh=0 dv=0 dx=0 dy=0 dh=-150 dv=0
PairPos2: "'kern' Horizontal Kerning in Arabic lookup 0 subtable" afii52305 dx=0 dy=0 dh=0 dv=0 dx=0 dy=0 dh=-150 dv=0
PairPos2: "'kern' Horizontal Kerning in Arabic lookup 0 subtable" afii57567 dx=0 dy=0 dh=0 dv=0 dx=0 dy=0 dh=-150 dv=0
EndChar

StartChar: afii59759
Encoding: 3663 3663 276
Width: 1233
GlyphClass: 2
Flags: W
LayerCount: 2
Fore
SplineSet
616 983 m 0,0,1
 823 983 823 983 969.5 836.5 c 128,-1,2
 1116 690 1116 690 1116 483 c 0,3,4
 1116 277 1116 277 969.5 130.5 c 128,-1,5
 823 -16 823 -16 616 -16 c 0,6,7
 410 -16 410 -16 263.5 130.5 c 128,-1,8
 117 277 117 277 117 483 c 0,9,10
 117 690 117 690 263.5 836.5 c 128,-1,11
 410 983 410 983 616 983 c 0,0,1
616 147 m 0,12,13
 758 147 758 147 849 242 c 128,-1,14
 940 337 940 337 940 483 c 256,15,16
 940 629 940 629 849 724 c 128,-1,17
 758 819 758 819 616 819 c 0,18,19
 475 819 475 819 384 724 c 128,-1,20
 293 629 293 629 293 483 c 256,21,22
 293 337 293 337 384 242 c 128,-1,23
 475 147 475 147 616 147 c 0,12,13
616 598 m 0,24,25
 664 598 664 598 697.5 565 c 128,-1,26
 731 532 731 532 731 485 c 256,27,28
 731 438 731 438 697.5 404.5 c 128,-1,29
 664 371 664 371 616 371 c 0,30,31
 569 371 569 371 535.5 404.5 c 128,-1,32
 502 438 502 438 502 485 c 256,33,34
 502 532 502 532 535.5 565 c 128,-1,35
 569 598 569 598 616 598 c 0,24,25
EndSplineSet
EndChar

StartChar: afii59760
Encoding: 3664 3664 277
Width: 1233
GlyphClass: 2
Flags: W
LayerCount: 2
Fore
SplineSet
616 924 m 0,0,1
 834 924 834 924 975 794.5 c 128,-1,2
 1116 665 1116 665 1116 453 c 0,3,4
 1116 242 1116 242 975 113 c 128,-1,5
 834 -16 834 -16 616 -16 c 0,6,7
 399 -16 399 -16 258 113 c 128,-1,8
 117 242 117 242 117 453 c 0,9,10
 117 665 117 665 258 794.5 c 128,-1,11
 399 924 399 924 616 924 c 0,0,1
616 150 m 0,12,13
 765 150 765 150 852.5 231 c 128,-1,14
 940 312 940 312 940 453 c 256,15,16
 940 594 940 594 852 677 c 128,-1,17
 764 760 764 760 616 760 c 0,18,19
 469 760 469 760 381 677 c 128,-1,20
 293 594 293 594 293 453 c 0,21,22
 293 310 293 310 381.5 230 c 128,-1,23
 470 150 470 150 616 150 c 0,12,13
EndSplineSet
EndChar

StartChar: glyph279
Encoding: 65559 -1 279
Width: 0
GlyphClass: 2
Flags: W
LayerCount: 2
Fore
SplineSet
36 1831 m 1,0,-1
 36 863 l 1,1,-1
 -36 863 l 1,2,-1
 -36 1831 l 1,3,-1
 36 1831 l 1,0,-1
36 543 m 1,4,-1
 36 -423 l 1,5,-1
 -36 -423 l 1,6,-1
 -36 543 l 1,7,-1
 36 543 l 1,4,-1
EndSplineSet
EndChar

StartChar: glyph280
Encoding: 65560 -1 280
Width: 0
GlyphClass: 2
Flags: W
LayerCount: 2
Fore
SplineSet
-234 -423 m 1,0,-1
 -234 -352 l 1,1,-1
 -36 -352 l 1,2,-1
 -36 1760 l 1,3,-1
 -234 1760 l 1,4,-1
 -234 1831 l 1,5,-1
 234 1831 l 1,6,-1
 234 1760 l 1,7,-1
 36 1760 l 1,8,-1
 36 -352 l 1,9,-1
 234 -352 l 1,10,-1
 234 -423 l 1,11,-1
 -234 -423 l 1,0,-1
EndSplineSet
EndChar

StartChar: glyph281
Encoding: 65561 -1 281
Width: 0
GlyphClass: 2
Flags: W
LayerCount: 2
Fore
SplineSet
224 1646 m 1,0,-1
 36 1504 l 1,1,-1
 36 -423 l 1,2,-1
 -36 -423 l 1,3,-1
 -36 1831 l 1,4,-1
 224 1646 l 1,0,-1
EndSplineSet
EndChar

StartChar: glyph282
Encoding: 65562 -1 282
Width: 0
GlyphClass: 2
Flags: W
LayerCount: 2
Fore
SplineSet
36 1831 m 1,0,-1
 36 -423 l 1,1,-1
 -36 -423 l 1,2,-1
 -36 1504 l 1,3,-1
 -224 1646 l 1,4,-1
 36 1831 l 1,0,-1
EndSplineSet
EndChar

StartChar: glyph283
Encoding: 65563 -1 283
Width: 0
GlyphClass: 2
Flags: W
LayerCount: 2
Fore
SplineSet
36 1831 m 1,0,-1
 36 -352 l 1,1,-1
 234 -352 l 1,2,-1
 234 -423 l 1,3,-1
 -36 -423 l 1,4,-1
 -36 1831 l 1,5,-1
 36 1831 l 1,0,-1
EndSplineSet
EndChar

StartChar: glyph284
Encoding: 65564 -1 284
Width: 0
GlyphClass: 2
Flags: W
LayerCount: 2
Fore
SplineSet
224 1646 m 1,0,-1
 36 1504 l 1,1,-1
 36 -423 l 1,2,-1
 -36 -423 l 1,3,-1
 -36 1504 l 1,4,-1
 -224 1641 l 1,5,-1
 0 1831 l 1,6,-1
 224 1646 l 1,0,-1
EndSplineSet
EndChar

StartChar: uni0670
Encoding: 1648 1648 297
Width: 0
GlyphClass: 4
Flags: W
AnchorPoint: "Anchor-2" 0 0 mark 0
AnchorPoint: "Anchor-0" 0 0 mark 0
LayerCount: 2
Fore
SplineSet
-4 8 m 1,0,-1
 -25 24 l 1,1,-1
 -24 34 l 1,2,-1
 -23 53 l 2,3,4
 -23 97 -23 97 -32 133 c 0,5,6
 -45 186 -45 186 -80 225 c 1,7,-1
 -66 260 l 2,8,9
 -35 334 -35 334 -23 352 c 1,10,11
 -2 287 -2 287 11 223 c 0,12,13
 16 197 16 197 19 171 c 128,-1,14
 22 145 22 145 22 125 c 0,15,16
 22 79 22 79 12 48 c 2,17,-1
 -4 8 l 1,0,-1
EndSplineSet
EndChar

StartChar: glyph298
Encoding: 65565 -1 298
Width: 458
GlyphClass: 2
Flags: W
LayerCount: 2
Fore
SplineSet
338 1145 m 0,0,1
 338 1135 338 1135 326.5 1113.5 c 128,-1,2
 315 1092 315 1092 302.5 1078.5 c 128,-1,3
 290 1065 290 1065 273 1057 c 0,4,5
 251 1045 251 1045 229 1045 c 2,6,-1
 213 1045 l 1,7,-1
 204 1045 l 2,8,9
 201 1045 201 1045 199 1045 c 0,10,11
 195 1046 195 1046 194 1046 c 2,12,-1
 179 1049 l 1,13,-1
 163 1053 l 1,14,15
 118 1069 118 1069 106 1074 c 0,16,17
 101 1077 101 1077 96 1079 c 0,18,19
 89 1083 89 1083 81 1087 c 1,20,-1
 83 1091 l 1,21,-1
 140 1090 l 1,22,-1
 145 1095 l 1,23,-1
 201 1139 l 1,24,-1
 240 1168 l 2,25,26
 257 1180 257 1180 270 1188 c 0,27,28
 278 1192 278 1192 287 1192 c 0,29,30
 306 1192 306 1192 322 1178 c 128,-1,31
 338 1164 338 1164 338 1145 c 0,0,1
313 1118 m 0,32,33
 314 1122 314 1122 308 1131 c 0,34,35
 301 1143 301 1143 292 1150 c 0,36,37
 285 1154 285 1154 277.5 1156.5 c 128,-1,38
 270 1159 270 1159 261 1159 c 0,39,40
 251 1159 251 1159 244 1154 c 2,41,-1
 212 1132 l 2,42,43
 207 1128 207 1128 201 1124 c 0,44,45
 193 1118 193 1118 184 1111 c 2,46,-1
 155 1090 l 1,47,-1
 163 1089 l 1,48,-1
 181 1089 l 2,49,50
 187 1089 187 1089 196.5 1089.5 c 128,-1,51
 206 1090 206 1090 210 1090 c 0,52,53
 215 1090 215 1090 224.5 1091 c 128,-1,54
 234 1092 234 1092 238 1093 c 0,55,56
 251 1094 251 1094 264.5 1097.5 c 128,-1,57
 278 1101 278 1101 289 1104 c 0,58,59
 312 1113 312 1113 313 1118 c 0,32,33
EndSplineSet
EndChar

StartChar: glyph299
Encoding: 65566 -1 299
Width: 896
GlyphClass: 2
Flags: W
LayerCount: 2
Fore
SplineSet
853 344 m 2,0,-1
 856 287 l 2,1,2
 856 251 856 251 852 211 c 128,-1,3
 848 171 848 171 839 130 c 0,4,5
 831 86 831 86 821 51 c 128,-1,6
 811 16 811 16 795 -21 c 0,7,8
 780 -60 780 -60 655 -99 c 0,9,10
 591 -119 591 -119 533 -129 c 128,-1,11
 475 -139 475 -139 414 -139 c 0,12,13
 259 -139 259 -139 164 -60 c 0,14,15
 43 41 43 41 43 254 c 0,16,17
 43 320 43 320 67 397 c 0,18,19
 84 451 84 451 131 554 c 1,20,-1
 148 545 l 1,21,22
 118 474 118 474 103.5 417 c 128,-1,23
 89 360 89 360 89 313 c 2,24,-1
 92 258 l 1,25,26
 107 126 107 126 218 66 c 0,27,28
 299 21 299 21 424 21 c 2,29,-1
 452 21 l 1,30,-1
 478 23 l 1,31,32
 572 23 572 23 677 57.5 c 128,-1,33
 782 92 782 92 797 123 c 0,34,35
 802 133 802 133 802 149 c 0,36,37
 802 193 802 193 776.5 270 c 128,-1,38
 751 347 751 347 734 377 c 1,39,40
 721 362 721 362 708 329 c 0,41,42
 699 299 699 299 687 287 c 0,43,44
 645 240 645 240 573 240 c 0,45,46
 519 240 519 240 469 273 c 0,47,48
 446 289 446 289 434.5 319.5 c 128,-1,49
 423 350 423 350 423 385 c 0,50,51
 423 469 423 469 472 571 c 0,52,53
 517 668 517 668 570 713 c 0,54,55
 585 728 585 728 608 728 c 0,56,57
 639 728 639 728 681 696 c 0,58,59
 709 673 709 673 734 644 c 0,60,61
 778 583 778 583 813 500 c 0,62,63
 845 422 845 422 853 344 c 2,0,-1
707 431 m 1,64,-1
 706 449 l 2,65,66
 705 452 705 452 703.5 455.5 c 128,-1,67
 702 459 702 459 695 469 c 0,68,69
 674 505 674 505 626 532 c 128,-1,70
 578 559 578 559 556 556 c 0,71,72
 486 539 486 539 486 476 c 0,73,74
 486 453 486 453 525 431 c 0,75,76
 565 412 565 412 615 412 c 0,77,78
 660 412 660 412 707 431 c 1,64,-1
EndSplineSet
EndChar

StartChar: uni06DD
Encoding: 1757 1757 388
Width: 2300
GlyphClass: 2
Flags: W
LayerCount: 2
Fore
SplineSet
2250 715 m 256,0,1
 2250 469 2250 469 2146 249 c 0,2,3
 2046 35 2046 35 1867 -119 c 1,4,5
 1870 -133 1870 -133 1870 -148 c 0,6,7
 1870 -203 1870 -203 1831 -241.5 c 128,-1,8
 1792 -280 1792 -280 1737 -280 c 0,9,10
 1697 -280 1697 -280 1664 -258 c 1,11,12
 1424 -385 1424 -385 1149 -385 c 0,13,14
 876 -385 876 -385 636 -258 c 1,15,16
 603 -280 603 -280 563 -280 c 0,17,18
 508 -280 508 -280 469 -241.5 c 128,-1,19
 430 -203 430 -203 430 -148 c 0,20,21
 430 -133 430 -133 433 -119 c 1,22,23
 254 35 254 35 154 249 c 0,24,25
 50 469 50 469 50 715 c 256,26,27
 50 961 50 961 154 1181 c 0,28,29
 254 1394 254 1394 433 1548 c 1,30,31
 430 1562 430 1562 430 1577 c 0,32,33
 430 1632 430 1632 469 1670.5 c 128,-1,34
 508 1709 508 1709 563 1709 c 0,35,36
 603 1709 603 1709 636 1687 c 1,37,38
 876 1814 876 1814 1151 1814 c 0,39,40
 1424 1814 1424 1814 1664 1687 c 1,41,42
 1697 1709 1697 1709 1737 1709 c 0,43,44
 1792 1709 1792 1709 1831 1670.5 c 128,-1,45
 1870 1632 1870 1632 1870 1577 c 0,46,47
 1870 1562 1870 1562 1867 1548 c 1,48,49
 2046 1394 2046 1394 2146 1181 c 0,50,51
 2250 961 2250 961 2250 715 c 256,0,1
1816 1576 m 0,52,53
 1816 1609 1816 1609 1793 1632 c 128,-1,54
 1770 1655 1770 1655 1738 1655 c 256,55,56
 1706 1655 1706 1655 1682.5 1631.5 c 128,-1,57
 1659 1608 1659 1608 1659 1576 c 256,58,59
 1659 1544 1659 1544 1682 1521 c 128,-1,60
 1705 1498 1705 1498 1738 1498 c 0,61,62
 1770 1498 1770 1498 1793 1521 c 128,-1,63
 1816 1544 1816 1544 1816 1576 c 0,52,53
1602 1595 m 1,64,65
 1390 1704 1390 1704 1151 1704 c 0,66,67
 910 1704 910 1704 698 1595 c 1,68,-1
 1602 1595 l 1,64,65
641 1576 m 256,69,70
 641 1608 641 1608 617.5 1631.5 c 128,-1,71
 594 1655 594 1655 562 1655 c 256,72,73
 530 1655 530 1655 507 1632 c 128,-1,74
 484 1609 484 1609 484 1576 c 0,75,76
 484 1544 484 1544 507 1521 c 128,-1,77
 530 1498 530 1498 562 1498 c 0,78,79
 595 1498 595 1498 618 1521 c 128,-1,80
 641 1544 641 1544 641 1576 c 256,69,70
2140 714 m 0,81,82
 2140 933 2140 933 2048 1131 c 0,83,84
 1960 1321 1960 1321 1801 1460 c 1,85,86
 1772 1444 1772 1444 1737 1444 c 0,87,88
 1681 1444 1681 1444 1642 1485 c 1,89,-1
 658 1485 l 1,90,91
 619 1444 619 1444 563 1444 c 0,92,93
 528 1444 528 1444 499 1460 c 1,94,95
 340 1321 340 1321 252 1131 c 0,96,97
 160 933 160 933 160 714 c 0,98,99
 160 265 160 265 499 -31 c 1,100,101
 528 -15 528 -15 563 -15 c 0,102,103
 619 -15 619 -15 658 -56 c 1,104,-1
 1642 -56 l 1,105,106
 1681 -15 1681 -15 1737 -15 c 0,107,108
 1772 -15 1772 -15 1801 -31 c 1,109,110
 2140 265 2140 265 2140 714 c 0,81,82
1816 -147 m 0,111,112
 1816 -115 1816 -115 1793 -92 c 128,-1,113
 1770 -69 1770 -69 1738 -69 c 0,114,115
 1705 -69 1705 -69 1682 -92 c 128,-1,116
 1659 -115 1659 -115 1659 -147 c 256,117,118
 1659 -179 1659 -179 1682.5 -202.5 c 128,-1,119
 1706 -226 1706 -226 1738 -226 c 256,120,121
 1770 -226 1770 -226 1793 -203 c 128,-1,122
 1816 -180 1816 -180 1816 -147 c 0,111,112
1602 -166 m 1,123,-1
 698 -166 l 1,124,125
 910 -275 910 -275 1151 -275 c 0,126,127
 1390 -275 1390 -275 1602 -166 c 1,123,-1
641 -147 m 256,128,129
 641 -115 641 -115 618 -92 c 128,-1,130
 595 -69 595 -69 562 -69 c 0,131,132
 530 -69 530 -69 507 -92 c 128,-1,133
 484 -115 484 -115 484 -147 c 0,134,135
 484 -180 484 -180 507 -203 c 128,-1,136
 530 -226 530 -226 562 -226 c 256,137,138
 594 -226 594 -226 617.5 -202.5 c 128,-1,139
 641 -179 641 -179 641 -147 c 256,128,129
EndSplineSet
EndChar

StartChar: uni06DE
Encoding: 1758 1758 389
Width: 2221
GlyphClass: 2
Flags: W
LayerCount: 2
Fore
SplineSet
2171 750 m 1,0,-1
 1861 439 l 1,1,-1
 1861 0 l 1,2,-1
 1421 0 l 1,3,-1
 1111 -311 l 1,4,-1
 800 0 l 1,5,-1
 361 0 l 1,6,-1
 361 439 l 1,7,-1
 50 750 l 1,8,-1
 361 1061 l 1,9,-1
 361 1500 l 1,10,-1
 800 1500 l 1,11,-1
 1111 1811 l 1,12,-1
 1421 1500 l 1,13,-1
 1861 1500 l 1,14,-1
 1861 1061 l 1,15,-1
 2171 750 l 1,0,-1
436 364 m 1,16,-1
 436 75 l 1,17,-1
 725 75 l 1,18,-1
 436 364 l 1,16,-1
725 1425 m 1,19,-1
 436 1425 l 1,20,-1
 436 1136 l 1,21,-1
 725 1425 l 1,19,-1
1786 1136 m 1,22,-1
 1786 1425 l 1,23,-1
 1496 1425 l 1,24,-1
 1786 1136 l 1,22,-1
1786 75 m 1,25,-1
 1786 364 l 1,26,-1
 1496 75 l 1,27,-1
 1786 75 l 1,25,-1
906 0 m 1,28,-1
 1111 -205 l 1,29,-1
 1315 0 l 1,30,-1
 906 0 l 1,28,-1
361 955 m 1,31,-1
 156 750 l 1,32,-1
 361 545 l 1,33,-1
 361 955 l 1,31,-1
1315 1500 m 1,34,-1
 1111 1705 l 1,35,-1
 906 1500 l 1,36,-1
 1315 1500 l 1,34,-1
1786 1030 m 1,37,-1
 1390 1425 l 1,38,-1
 831 1425 l 1,39,-1
 436 1030 l 1,40,-1
 436 470 l 1,41,-1
 831 75 l 1,42,-1
 1390 75 l 1,43,-1
 1786 470 l 1,44,-1
 1786 1030 l 1,37,-1
2065 750 m 1,45,-1
 1861 955 l 1,46,-1
 1861 545 l 1,47,-1
 2065 750 l 1,45,-1
1328 750 m 256,48,49
 1328 660 1328 660 1264.5 596 c 128,-1,50
 1201 532 1201 532 1111 532 c 256,51,52
 1021 532 1021 532 957 596 c 128,-1,53
 893 660 893 660 893 750 c 256,54,55
 893 840 893 840 957 903.5 c 128,-1,56
 1021 967 1021 967 1111 967 c 256,57,58
 1201 967 1201 967 1264.5 903.5 c 128,-1,59
 1328 840 1328 840 1328 750 c 256,48,49
1253 750 m 256,60,61
 1253 809 1253 809 1211 850.5 c 128,-1,62
 1169 892 1169 892 1110 892 c 256,63,64
 1051 892 1051 892 1009 850.5 c 128,-1,65
 967 809 967 809 967 750 c 256,66,67
 967 691 967 691 1009 649 c 128,-1,68
 1051 607 1051 607 1110 607 c 256,69,70
 1169 607 1169 607 1211 649 c 128,-1,71
 1253 691 1253 691 1253 750 c 256,60,61
EndSplineSet
EndChar

StartChar: uni06DF
Encoding: 1759 1759 390
Width: 0
GlyphClass: 2
Flags: W
LayerCount: 2
Fore
SplineSet
75 1429 m 256,0,1
 75 1398 75 1398 53 1376 c 128,-1,2
 31 1354 31 1354 0 1354 c 256,3,4
 -31 1354 -31 1354 -53 1376 c 128,-1,5
 -75 1398 -75 1398 -75 1429 c 256,6,7
 -75 1460 -75 1460 -53 1482 c 128,-1,8
 -31 1504 -31 1504 0 1504 c 256,9,10
 31 1504 31 1504 53 1482 c 128,-1,11
 75 1460 75 1460 75 1429 c 256,0,1
EndSplineSet
EndChar

StartChar: uni06E9
Encoding: 1769 1769 391
Width: 1229
GlyphClass: 2
Flags: W
LayerCount: 2
Fore
SplineSet
1179 0 m 1,0,-1
 50 0 l 1,1,-1
 278 261 l 1,2,-1
 278 849 l 1,3,-1
 50 1108 l 1,4,-1
 614 1676 l 1,5,-1
 1179 1108 l 1,6,-1
 951 849 l 1,7,-1
 951 261 l 1,8,-1
 1179 0 l 1,0,-1
1101 1108 m 1,9,-1
 614 1598 l 1,10,-1
 128 1108 l 1,11,-1
 338 871 l 1,12,-1
 338 239 l 1,13,-1
 178 56 l 1,14,-1
 1051 56 l 1,15,-1
 891 239 l 1,16,-1
 891 871 l 1,17,-1
 1101 1108 l 1,9,-1
995 1108 m 1,18,-1
 845 937 l 1,19,-1
 845 131 l 1,20,-1
 384 131 l 1,21,-1
 384 937 l 1,22,-1
 234 1108 l 1,23,-1
 614 1489 l 1,24,-1
 995 1108 l 1,18,-1
922 1108 m 1,25,-1
 614 1416 l 1,26,-1
 307 1108 l 1,27,-1
 433 968 l 1,28,-1
 433 186 l 1,29,-1
 796 186 l 1,30,-1
 796 968 l 1,31,-1
 922 1108 l 1,25,-1
833 1108 m 1,32,-1
 745 1011 l 1,33,-1
 745 267 l 1,34,-1
 484 267 l 1,35,-1
 484 1011 l 1,36,-1
 396 1108 l 1,37,-1
 614 1331 l 1,38,-1
 833 1108 l 1,32,-1
780 1108 m 1,39,-1
 614 1278 l 1,40,-1
 449 1108 l 1,41,-1
 523 1027 l 1,42,-1
 523 309 l 1,43,-1
 705 309 l 1,44,-1
 705 1027 l 1,45,-1
 780 1108 l 1,39,-1
EndSplineSet
EndChar

StartChar: uni06EB
Encoding: 1771 1771 393
Width: 0
GlyphClass: 2
Flags: W
LayerCount: 2
Fore
SplineSet
168 1522 m 1,0,-1
 -1 1354 l 1,1,-1
 -168 1521 l 1,2,-1
 1 1689 l 1,3,-1
 168 1522 l 1,0,-1
104 1522 m 1,4,-1
 0 1626 l 1,5,-1
 -104 1521 l 1,6,-1
 0 1417 l 1,7,-1
 104 1522 l 1,4,-1
EndSplineSet
EndChar

StartChar: comma
Encoding: 44 44 402
Width: 625
Flags: W
LayerCount: 2
Fore
SplineSet
241 -238 m 1,0,1
 311 -176 311 -176 366.5 -95 c 128,-1,2
 422 -14 422 -14 410 59 c 1,3,-1
 366 61 l 2,4,5
 338 62 338 62 312 77 c 0,6,7
 265 102 265 102 251.5 155.5 c 128,-1,8
 238 209 238 209 263 258 c 0,9,10
 289 306 289 306 341.5 321 c 128,-1,11
 394 336 394 336 443 308 c 0,12,13
 535 259 535 259 536 138 c 0,14,15
 536 40 536 40 482 -61 c 0,16,17
 409 -194 409 -194 282 -263 c 1,18,-1
 241 -238 l 1,0,1
EndSplineSet
EndChar

StartChar: afii57407
Encoding: 1567 1567 403
Width: 531
GlyphClass: 2
Flags: W
LayerCount: 2
Fore
SplineSet
226 310 m 1,0,1
 234 327 234 327 239 342 c 128,-1,2
 244 357 244 357 248 375.5 c 128,-1,3
 252 394 252 394 254 409 c 128,-1,4
 256 424 256 424 256 441 c 2,5,-1
 256 459 l 1,6,-1
 254 476 l 2,7,8
 254 499 254 499 233 523 c 128,-1,9
 212 547 212 547 172 573 c 0,10,11
 94 623 94 623 94 711 c 0,12,13
 94 814 94 814 171 891 c 128,-1,14
 248 968 248 968 351 968 c 2,15,-1
 364 968 l 1,16,-1
 379 966 l 1,17,-1
 320 806 l 1,18,-1
 298 812 l 1,19,-1
 276 814 l 2,20,21
 248 814 248 814 227 802 c 0,22,23
 209 790 209 790 205 777 c 1,24,25
 260 725 260 725 307.5 661.5 c 128,-1,26
 355 598 355 598 355 525 c 0,27,28
 355 508 355 508 346.5 480.5 c 128,-1,29
 338 453 338 453 321.5 413.5 c 128,-1,30
 305 374 305 374 286 337 c 128,-1,31
 267 300 267 300 246 267 c 1,32,-1
 226 310 l 1,0,1
340 121 m 1,33,-1
 281 12 l 1,34,-1
 135 98 l 1,35,-1
 193 209 l 1,36,-1
 340 121 l 1,33,-1
EndSplineSet
EndChar

StartChar: afii57392
Encoding: 1776 1776 404
Width: 433
Flags: W
LayerCount: 2
Fore
SplineSet
379 406 m 1,0,-1
 258 230 l 1,1,-1
 78 379 l 1,2,-1
 207 562 l 1,3,-1
 379 406 l 1,0,-1
EndSplineSet
EndChar

StartChar: afii57393
Encoding: 1777 1777 405
Width: 441
Flags: W
LayerCount: 2
Fore
SplineSet
334 6 m 1,0,-1
 299 -21 l 1,1,2
 299 150 299 150 263.5 330.5 c 128,-1,3
 228 511 228 511 172 613 c 0,4,5
 162 630 162 630 153.5 643 c 128,-1,6
 145 656 145 656 134 670 c 2,7,-1
 90 722 l 1,8,-1
 124 811 l 2,9,10
 159 899 159 899 172 918 c 1,11,12
 241 837 241 837 281 724 c 0,13,14
 313 632 313 632 330 502 c 0,15,16
 342 403 342 403 342 282 c 2,17,-1
 339 150 l 1,18,-1
 334 6 l 1,0,-1
EndSplineSet
EndChar

StartChar: afii57394
Encoding: 1778 1778 406
Width: 599
Flags: W
LayerCount: 2
Fore
SplineSet
545 867 m 1,0,1
 545 742 545 742 471 664 c 0,2,3
 407 597 407 597 332 597 c 1,4,-1
 310 599 l 1,5,6
 322 543 322 543 330 457 c 0,7,8
 330 430 330 430 333.5 377 c 128,-1,9
 337 324 337 324 337 307 c 0,10,11
 337 286 337 286 335 230.5 c 128,-1,12
 333 175 333 175 333 166 c 2,13,-1
 326 6 l 1,14,-1
 291 -21 l 1,15,16
 291 150 291 150 255.5 330.5 c 128,-1,17
 220 511 220 511 164 613 c 0,18,19
 144 646 144 646 128 667.5 c 128,-1,20
 112 689 112 689 82 722 c 1,21,-1
 117 811 l 2,22,23
 153 903 153 903 164 918 c 1,24,25
 218 858 218 858 248 785 c 1,26,27
 286 763 286 763 330 763 c 2,28,-1
 341 763 l 1,29,-1
 361 765 l 2,30,31
 423 771 423 771 465.5 809.5 c 128,-1,32
 508 848 508 848 519 912 c 1,33,-1
 545 867 l 1,0,1
EndSplineSet
EndChar

StartChar: afii57395
Encoding: 1779 1779 407
Width: 726
Flags: W
LayerCount: 2
Fore
SplineSet
648 929 m 1,0,1
 663 903 663 903 663 865 c 0,2,3
 663 795 663 795 612 703 c 0,4,5
 567 624 567 624 549 619 c 2,6,-1
 536 618 l 2,7,8
 505 618 505 618 476 646 c 2,9,-1
 439 685 l 1,10,11
 423 655 423 655 372 627 c 0,12,13
 347 613 347 613 326 606 c 128,-1,14
 305 599 305 599 285 599 c 1,15,16
 294 556 294 556 300 521.5 c 128,-1,17
 306 487 306 487 306 453 c 0,18,19
 306 427 306 427 309.5 372.5 c 128,-1,20
 313 318 313 318 313 297 c 0,21,22
 313 271 313 271 310.5 212.5 c 128,-1,23
 308 154 308 154 308 133 c 2,24,-1
 303 6 l 1,25,-1
 267 -21 l 1,26,27
 267 152 267 152 231 331 c 0,28,29
 214 420 214 420 191 490.5 c 128,-1,30
 168 561 168 561 139 613 c 0,31,32
 130 632 130 632 113 654 c 2,33,-1
 59 722 l 1,34,-1
 92 811 l 2,35,36
 127 902 127 902 139 918 c 1,37,38
 190 860 190 860 226 785 c 1,39,40
 261 762 261 762 306 762 c 1,41,-1
 338 765 l 2,42,43
 394 774 394 774 424.5 810.5 c 128,-1,44
 455 847 455 847 467 912 c 1,45,-1
 484 900 l 1,46,47
 484 845 484 845 512 813 c 0,48,49
 537 785 537 785 568 785 c 0,50,51
 612 785 612 785 612 804 c 0,52,53
 612 811 612 811 607 820 c 2,54,-1
 588 857 l 1,55,-1
 648 929 l 1,0,1
EndSplineSet
EndChar

StartChar: afii62843
Encoding: 1780 1780 408
Width: 521
Flags: W
LayerCount: 2
Fore
SplineSet
451 -37 m 1,0,1
 340 -21 340 -21 253 14 c 0,2,3
 113 69 113 69 98 154 c 0,4,5
 95 182 95 182 154 271 c 0,6,7
 182 313 182 313 213.5 354 c 128,-1,8
 245 395 245 395 285 439 c 1,9,-1
 161 502 l 1,10,11
 95 541 95 541 88 599 c 0,12,13
 80 668 80 668 197 786 c 0,14,15
 307 896 307 896 369 906 c 1,16,-1
 324 728 l 1,17,-1
 243 709 l 2,18,19
 205 697 205 697 193 674 c 0,20,21
 187 663 187 663 245 627 c 2,22,-1
 398 543 l 1,23,-1
 349 420 l 1,24,25
 304 384 304 384 254 331 c 0,26,27
 193 267 193 267 193 246 c 0,28,29
 196 217 196 217 271 193 c 0,30,31
 323 177 323 177 398 168 c 1,32,-1
 451 -37 l 1,0,1
EndSplineSet
EndChar

StartChar: afii62844
Encoding: 1781 1781 409
Width: 670
Flags: W
LayerCount: 2
Fore
SplineSet
621 456 m 0,0,1
 621 424 621 424 562.5 299.5 c 128,-1,2
 504 175 504 175 492 166 c 0,3,4
 456 141 456 141 406 126 c 0,5,6
 354 113 354 113 306 113 c 0,7,8
 260 113 260 113 221.5 122 c 128,-1,9
 183 131 183 131 147.5 151.5 c 128,-1,10
 112 172 112 172 91 201 c 128,-1,11
 70 230 70 230 70 265 c 0,12,13
 70 282 70 282 76.5 315 c 128,-1,14
 83 348 83 348 99 400 c 0,15,16
 137 527 137 527 184 608 c 0,17,18
 244 715 244 715 305 715 c 2,19,-1
 326 716 l 1,20,21
 437 716 437 716 534 619 c 0,22,23
 621 532 621 532 621 456 c 0,0,1
527 342 m 2,24,-1
 530 362 l 1,25,26
 530 431 530 431 411 517 c 0,27,28
 300 598 300 598 269 586 c 0,29,30
 226 571 226 571 181 458 c 0,31,32
 146 367 146 367 146 340 c 0,33,34
 146 334 146 334 148 330 c 0,35,36
 157 309 157 309 221 293 c 0,37,38
 255 285 255 285 287.5 281 c 128,-1,39
 320 277 320 277 361 277 c 0,40,41
 426 277 426 277 472 292 c 128,-1,42
 518 307 518 307 527 342 c 2,24,-1
EndSplineSet
EndChar

StartChar: afii62845
Encoding: 1782 1782 410
Width: 748
Flags: W
LayerCount: 2
Fore
SplineSet
705 205 m 1,0,-1
 672 105 l 2,1,2
 635 -1 635 -1 619 -21 c 1,3,4
 528 104 528 104 486 246 c 0,5,6
 450 369 450 369 450 519 c 0,7,8
 450 534 450 534 451 563 c 128,-1,9
 452 592 452 592 452 605 c 2,10,-1
 461 709 l 1,11,12
 423 700 423 700 382 694 c 0,13,14
 345 690 345 690 330.5 689.5 c 128,-1,15
 316 689 316 689 307 689 c 0,16,17
 242 689 242 689 200 700.5 c 128,-1,18
 158 712 158 712 146 728 c 0,19,20
 142 731 142 731 112 841 c 2,21,-1
 82 951 l 1,22,-1
 100 966 l 1,23,24
 176 924 176 924 264 902 c 0,25,26
 337 885 337 885 406 885 c 0,27,28
 424 885 424 885 443 885 c 0,29,30
 469 888 469 888 485.5 889.5 c 128,-1,31
 502 891 502 891 524 894 c 0,32,33
 541 899 541 899 549 900 c 1,34,35
 525 732 525 732 525 622 c 0,36,37
 525 473 525 473 571 377 c 0,38,39
 607 298 607 298 705 205 c 1,0,-1
EndSplineSet
EndChar

StartChar: afii57399
Encoding: 1783 1783 411
Width: 867
Flags: W
LayerCount: 2
Fore
SplineSet
826 761 m 1,0,1
 718 673 718 673 630 490 c 0,2,3
 535 291 535 291 508 59 c 1,4,-1
 474 22 l 1,5,-1
 435 -23 l 1,6,7
 435 126 435 126 327 353 c 0,8,9
 213 593 213 593 45 761 c 1,10,-1
 78 843 l 2,11,12
 111 924 111 924 129 951 c 1,13,14
 170 902 170 902 196 868 c 0,15,16
 227 828 227 828 243 805 c 0,17,18
 316 699 316 699 371 587 c 0,19,20
 439 442 439 442 488 258 c 1,21,22
 527 436 527 436 620 650 c 0,23,24
 707 851 707 851 789 957 c 1,25,-1
 806 868 l 1,26,-1
 826 761 l 1,0,1
EndSplineSet
EndChar

StartChar: afii57400
Encoding: 1784 1784 412
Width: 867
Flags: W
LayerCount: 2
Fore
SplineSet
834 199 m 1,0,-1
 800 116 l 2,1,2
 781 71 781 71 768.5 45 c 128,-1,3
 756 19 756 19 748 8 c 1,4,5
 660 116 660 116 634 154 c 0,6,7
 562 256 562 256 507 372 c 0,8,9
 437 520 437 520 390 701 c 1,10,11
 349 515 349 515 260 312 c 128,-1,12
 171 109 171 109 88 2 c 1,13,-1
 71 92 l 1,14,-1
 51 199 l 1,15,16
 159 284 159 284 247 468 c 0,17,18
 343 669 343 669 367 900 c 1,19,-1
 443 982 l 1,20,21
 443 832 443 832 551 607 c 0,22,23
 667 365 667 365 834 199 c 1,0,-1
EndSplineSet
EndChar

StartChar: afii57401
Encoding: 1785 1785 413
Width: 748
Flags: W
LayerCount: 2
Fore
SplineSet
613 205 m 1,0,-1
 580 105 l 2,1,2
 543 -1 543 -1 527 -21 c 1,3,4
 435 105 435 105 392 259 c 0,5,6
 375 322 375 322 365 395.5 c 128,-1,7
 355 469 355 469 355 543 c 1,8,9
 312 530 312 530 234 498 c 2,10,-1
 121 453 l 1,11,12
 109 477 109 477 102 512 c 128,-1,13
 95 547 95 547 95 585 c 0,14,15
 95 705 95 705 153 817.5 c 128,-1,16
 211 930 211 930 275 930 c 0,17,18
 290 930 290 930 299 925 c 0,19,20
 363 897 363 897 397 813 c 0,21,22
 421 753 421 753 430 655 c 2,23,-1
 439 525 l 2,24,25
 449 424 449 424 496 346 c 0,26,27
 531 288 531 288 613 205 c 1,0,-1
320 677 m 1,28,29
 313 718 313 718 290 749 c 0,30,31
 269 781 269 781 242 781 c 0,32,33
 218 781 218 781 193.5 739.5 c 128,-1,34
 169 698 169 698 169 654 c 1,35,-1
 172 627 l 1,36,-1
 320 677 l 1,28,29
EndSplineSet
EndChar

StartChar: afii57392.001
Encoding: 1632 1632 414
Width: 433
Flags: W
LayerCount: 2
Fore
SplineSet
379 406 m 1,0,-1
 258 230 l 1,1,-1
 78 379 l 1,2,-1
 207 562 l 1,3,-1
 379 406 l 1,0,-1
EndSplineSet
EndChar

StartChar: afii57393.001
Encoding: 1633 1633 415
Width: 441
Flags: W
LayerCount: 2
Fore
SplineSet
334 6 m 1,0,-1
 299 -21 l 1,1,2
 299 150 299 150 263.5 330.5 c 128,-1,3
 228 511 228 511 172 613 c 0,4,5
 162 630 162 630 153.5 643 c 128,-1,6
 145 656 145 656 134 670 c 2,7,-1
 90 722 l 1,8,-1
 124 811 l 2,9,10
 159 899 159 899 172 918 c 1,11,12
 241 837 241 837 281 724 c 0,13,14
 313 632 313 632 330 502 c 0,15,16
 342 403 342 403 342 282 c 2,17,-1
 339 150 l 1,18,-1
 334 6 l 1,0,-1
EndSplineSet
EndChar

StartChar: afii57394.001
Encoding: 1634 1634 416
Width: 599
Flags: W
LayerCount: 2
Fore
SplineSet
545 867 m 1,0,1
 545 742 545 742 471 664 c 0,2,3
 407 597 407 597 332 597 c 1,4,-1
 310 599 l 1,5,6
 322 543 322 543 330 457 c 0,7,8
 330 430 330 430 333.5 377 c 128,-1,9
 337 324 337 324 337 307 c 0,10,11
 337 286 337 286 335 230.5 c 128,-1,12
 333 175 333 175 333 166 c 2,13,-1
 326 6 l 1,14,-1
 291 -21 l 1,15,16
 291 150 291 150 255.5 330.5 c 128,-1,17
 220 511 220 511 164 613 c 0,18,19
 144 646 144 646 128 667.5 c 128,-1,20
 112 689 112 689 82 722 c 1,21,-1
 117 811 l 2,22,23
 153 903 153 903 164 918 c 1,24,25
 218 858 218 858 248 785 c 1,26,27
 286 763 286 763 330 763 c 2,28,-1
 341 763 l 1,29,-1
 361 765 l 2,30,31
 423 771 423 771 465.5 809.5 c 128,-1,32
 508 848 508 848 519 912 c 1,33,-1
 545 867 l 1,0,1
EndSplineSet
EndChar

StartChar: afii57395.001
Encoding: 1635 1635 417
Width: 726
Flags: W
LayerCount: 2
Fore
SplineSet
648 929 m 1,0,1
 663 903 663 903 663 865 c 0,2,3
 663 795 663 795 612 703 c 0,4,5
 567 624 567 624 549 619 c 2,6,-1
 536 618 l 2,7,8
 505 618 505 618 476 646 c 2,9,-1
 439 685 l 1,10,11
 423 655 423 655 372 627 c 0,12,13
 347 613 347 613 326 606 c 128,-1,14
 305 599 305 599 285 599 c 1,15,16
 294 556 294 556 300 521.5 c 128,-1,17
 306 487 306 487 306 453 c 0,18,19
 306 427 306 427 309.5 372.5 c 128,-1,20
 313 318 313 318 313 297 c 0,21,22
 313 271 313 271 310.5 212.5 c 128,-1,23
 308 154 308 154 308 133 c 2,24,-1
 303 6 l 1,25,-1
 267 -21 l 1,26,27
 267 152 267 152 231 331 c 0,28,29
 214 420 214 420 191 490.5 c 128,-1,30
 168 561 168 561 139 613 c 0,31,32
 130 632 130 632 113 654 c 2,33,-1
 59 722 l 1,34,-1
 92 811 l 2,35,36
 127 902 127 902 139 918 c 1,37,38
 190 860 190 860 226 785 c 1,39,40
 261 762 261 762 306 762 c 1,41,-1
 338 765 l 2,42,43
 394 774 394 774 424.5 810.5 c 128,-1,44
 455 847 455 847 467 912 c 1,45,-1
 484 900 l 1,46,47
 484 845 484 845 512 813 c 0,48,49
 537 785 537 785 568 785 c 0,50,51
 612 785 612 785 612 804 c 0,52,53
 612 811 612 811 607 820 c 2,54,-1
 588 857 l 1,55,-1
 648 929 l 1,0,1
EndSplineSet
EndChar

StartChar: afii57396
Encoding: 1636 1636 418
Width: 521
Flags: W
LayerCount: 2
Fore
SplineSet
451 -37 m 1,0,1
 340 -21 340 -21 253 14 c 0,2,3
 113 69 113 69 98 154 c 0,4,5
 95 182 95 182 154 271 c 0,6,7
 182 313 182 313 213.5 354 c 128,-1,8
 245 395 245 395 285 439 c 1,9,-1
 161 502 l 1,10,11
 95 541 95 541 88 599 c 0,12,13
 80 668 80 668 197 786 c 0,14,15
 307 896 307 896 369 906 c 1,16,-1
 324 728 l 1,17,-1
 243 709 l 2,18,19
 205 697 205 697 193 674 c 0,20,21
 187 663 187 663 245 627 c 2,22,-1
 398 543 l 1,23,-1
 349 420 l 1,24,25
 304 384 304 384 254 331 c 0,26,27
 193 267 193 267 193 246 c 0,28,29
 196 217 196 217 271 193 c 0,30,31
 323 177 323 177 398 168 c 1,32,-1
 451 -37 l 1,0,1
EndSplineSet
EndChar

StartChar: afii57397
Encoding: 1637 1637 419
Width: 670
Flags: W
LayerCount: 2
Fore
SplineSet
621 456 m 0,0,1
 621 424 621 424 562.5 299.5 c 128,-1,2
 504 175 504 175 492 166 c 0,3,4
 456 141 456 141 406 126 c 0,5,6
 354 113 354 113 306 113 c 0,7,8
 260 113 260 113 221.5 122 c 128,-1,9
 183 131 183 131 147.5 151.5 c 128,-1,10
 112 172 112 172 91 201 c 128,-1,11
 70 230 70 230 70 265 c 0,12,13
 70 282 70 282 76.5 315 c 128,-1,14
 83 348 83 348 99 400 c 0,15,16
 137 527 137 527 184 608 c 0,17,18
 244 715 244 715 305 715 c 2,19,-1
 326 716 l 1,20,21
 437 716 437 716 534 619 c 0,22,23
 621 532 621 532 621 456 c 0,0,1
527 342 m 2,24,-1
 530 362 l 1,25,26
 530 431 530 431 411 517 c 0,27,28
 300 598 300 598 269 586 c 0,29,30
 226 571 226 571 181 458 c 0,31,32
 146 367 146 367 146 340 c 0,33,34
 146 334 146 334 148 330 c 0,35,36
 157 309 157 309 221 293 c 0,37,38
 255 285 255 285 287.5 281 c 128,-1,39
 320 277 320 277 361 277 c 0,40,41
 426 277 426 277 472 292 c 128,-1,42
 518 307 518 307 527 342 c 2,24,-1
EndSplineSet
EndChar

StartChar: afii57398
Encoding: 1638 1638 420
Width: 748
Flags: W
LayerCount: 2
Fore
SplineSet
705 205 m 1,0,-1
 672 105 l 2,1,2
 635 -1 635 -1 619 -21 c 1,3,4
 528 104 528 104 486 246 c 0,5,6
 450 369 450 369 450 519 c 0,7,8
 450 534 450 534 451 563 c 128,-1,9
 452 592 452 592 452 605 c 2,10,-1
 461 709 l 1,11,12
 423 700 423 700 382 694 c 0,13,14
 345 690 345 690 330.5 689.5 c 128,-1,15
 316 689 316 689 307 689 c 0,16,17
 242 689 242 689 200 700.5 c 128,-1,18
 158 712 158 712 146 728 c 0,19,20
 142 731 142 731 112 841 c 2,21,-1
 82 951 l 1,22,-1
 100 966 l 1,23,24
 176 924 176 924 264 902 c 0,25,26
 337 885 337 885 406 885 c 0,27,28
 424 885 424 885 443 885 c 0,29,30
 469 888 469 888 485.5 889.5 c 128,-1,31
 502 891 502 891 524 894 c 0,32,33
 541 899 541 899 549 900 c 1,34,35
 525 732 525 732 525 622 c 0,36,37
 525 473 525 473 571 377 c 0,38,39
 607 298 607 298 705 205 c 1,0,-1
EndSplineSet
EndChar

StartChar: afii57399.001
Encoding: 1639 1639 421
Width: 867
Flags: W
LayerCount: 2
Fore
SplineSet
826 761 m 1,0,1
 718 673 718 673 630 490 c 0,2,3
 535 291 535 291 508 59 c 1,4,-1
 474 22 l 1,5,-1
 435 -23 l 1,6,7
 435 126 435 126 327 353 c 0,8,9
 213 593 213 593 45 761 c 1,10,-1
 78 843 l 2,11,12
 111 924 111 924 129 951 c 1,13,14
 170 902 170 902 196 868 c 0,15,16
 227 828 227 828 243 805 c 0,17,18
 316 699 316 699 371 587 c 0,19,20
 439 442 439 442 488 258 c 1,21,22
 527 436 527 436 620 650 c 0,23,24
 707 851 707 851 789 957 c 1,25,-1
 806 868 l 1,26,-1
 826 761 l 1,0,1
EndSplineSet
EndChar

StartChar: afii57400.001
Encoding: 1640 1640 422
Width: 867
Flags: W
LayerCount: 2
Fore
SplineSet
834 199 m 1,0,-1
 800 116 l 2,1,2
 781 71 781 71 768.5 45 c 128,-1,3
 756 19 756 19 748 8 c 1,4,5
 660 116 660 116 634 154 c 0,6,7
 562 256 562 256 507 372 c 0,8,9
 437 520 437 520 390 701 c 1,10,11
 349 515 349 515 260 312 c 128,-1,12
 171 109 171 109 88 2 c 1,13,-1
 71 92 l 1,14,-1
 51 199 l 1,15,16
 159 284 159 284 247 468 c 0,17,18
 343 669 343 669 367 900 c 1,19,-1
 443 982 l 1,20,21
 443 832 443 832 551 607 c 0,22,23
 667 365 667 365 834 199 c 1,0,-1
EndSplineSet
EndChar

StartChar: afii57401.001
Encoding: 1641 1641 423
Width: 748
Flags: W
LayerCount: 2
Fore
SplineSet
613 205 m 1,0,-1
 580 105 l 2,1,2
 543 -1 543 -1 527 -21 c 1,3,4
 435 105 435 105 392 259 c 0,5,6
 375 322 375 322 365 395.5 c 128,-1,7
 355 469 355 469 355 543 c 1,8,9
 312 530 312 530 234 498 c 2,10,-1
 121 453 l 1,11,12
 109 477 109 477 102 512 c 128,-1,13
 95 547 95 547 95 585 c 0,14,15
 95 705 95 705 153 817.5 c 128,-1,16
 211 930 211 930 275 930 c 0,17,18
 290 930 290 930 299 925 c 0,19,20
 363 897 363 897 397 813 c 0,21,22
 421 753 421 753 430 655 c 2,23,-1
 439 525 l 2,24,25
 449 424 449 424 496 346 c 0,26,27
 531 288 531 288 613 205 c 1,0,-1
320 677 m 1,28,29
 313 718 313 718 290 749 c 0,30,31
 269 781 269 781 242 781 c 0,32,33
 218 781 218 781 193.5 739.5 c 128,-1,34
 169 698 169 698 169 654 c 1,35,-1
 172 627 l 1,36,-1
 320 677 l 1,28,29
EndSplineSet
EndChar

StartChar: guillemotleft
Encoding: 171 171 424
Width: 776
Flags: W
LayerCount: 2
Fore
SplineSet
586 530 m 1,0,1
 551 437 551 437 551 341 c 0,2,3
 551 224 551 224 634 78 c 1,4,-1
 634 79 l 1,5,6
 647 59 647 59 653 45.5 c 128,-1,7
 659 32 659 32 661 25 c 0,8,9
 661 4 661 4 644 4 c 0,10,11
 640 4 640 4 632 9 c 0,12,13
 544 68 544 68 491 151 c 1,14,-1
 491 149 l 1,15,16
 433 242 433 242 433 344 c 0,17,18
 434 388 434 388 446 431.5 c 128,-1,19
 458 475 458 475 482 519 c 0,20,21
 500 551 500 551 524 581.5 c 128,-1,22
 548 612 548 612 576 640 c 0,23,24
 623 685 623 685 640 685 c 0,25,26
 663 685 663 685 663 665 c 0,27,28
 663 656 663 656 658 649 c 0,29,30
 623 603 623 603 608 574.5 c 128,-1,31
 593 546 593 546 585 529 c 1,32,-1
 586 530 l 1,0,1
331 530 m 1,33,34
 296 437 296 437 296 341 c 0,35,36
 296 224 296 224 379 78 c 1,37,-1
 379 79 l 1,38,39
 392 59 392 59 398 45.5 c 128,-1,40
 404 32 404 32 407 25 c 0,41,42
 407 4 407 4 390 4 c 0,43,44
 385 4 385 4 377 9 c 0,45,46
 289 68 289 68 237 151 c 1,47,-1
 237 149 l 1,48,49
 178 242 178 242 178 344 c 0,50,51
 179 388 179 388 191.5 431.5 c 128,-1,52
 204 475 204 475 227 519 c 0,53,54
 245 551 245 551 269 581.5 c 128,-1,55
 293 612 293 612 321 640 c 0,56,57
 368 685 368 685 385 685 c 0,58,59
 408 685 408 685 408 665 c 0,60,61
 408 656 408 656 403 649 c 0,62,63
 368 603 368 603 353 574.5 c 128,-1,64
 338 546 338 546 330 529 c 1,65,-1
 331 530 l 1,33,34
EndSplineSet
EndChar

StartChar: guillemotright
Encoding: 187 187 425
Width: 787
Flags: W
LayerCount: 2
Fore
SplineSet
256 529 m 1,0,1
 248 546 248 546 233 574.5 c 128,-1,2
 218 603 218 603 183 649 c 0,3,4
 178 656 178 656 178 665 c 0,5,6
 178 685 178 685 201 685 c 0,7,8
 218 685 218 685 265 640 c 0,9,10
 293 612 293 612 317 581.5 c 128,-1,11
 341 551 341 551 359 519 c 0,12,13
 383 475 383 475 395 431.5 c 128,-1,14
 407 388 407 388 408 344 c 0,15,16
 408 242 408 242 350 149 c 1,17,-1
 350 151 l 1,18,19
 297 68 297 68 209 9 c 0,20,21
 201 4 201 4 197 4 c 0,22,23
 180 4 180 4 180 25 c 0,24,25
 182 32 182 32 188 45.5 c 128,-1,26
 194 59 194 59 207 79 c 1,27,-1
 207 78 l 1,28,29
 290 224 290 224 290 341 c 0,30,31
 290 437 290 437 255 530 c 1,32,-1
 256 529 l 1,0,1
511 529 m 1,33,34
 503 546 503 546 488 574.5 c 128,-1,35
 473 603 473 603 438 649 c 0,36,37
 433 656 433 656 433 665 c 0,38,39
 433 685 433 685 456 685 c 0,40,41
 473 685 473 685 520 640 c 0,42,43
 548 612 548 612 572 581.5 c 128,-1,44
 596 551 596 551 614 519 c 0,45,46
 637 475 637 475 649.5 431.5 c 128,-1,47
 662 388 662 388 663 344 c 0,48,49
 663 242 663 242 604 149 c 1,50,-1
 604 151 l 1,51,52
 552 68 552 68 464 9 c 0,53,54
 456 4 456 4 451 4 c 0,55,56
 434 4 434 4 434 25 c 0,57,58
 437 32 437 32 443 45.5 c 128,-1,59
 449 59 449 59 462 79 c 1,60,-1
 462 78 l 1,61,62
 545 224 545 224 545 341 c 0,63,64
 545 437 545 437 510 530 c 1,65,-1
 511 529 l 1,33,34
EndSplineSet
EndChar

StartChar: quoteleft
Encoding: 8216 8216 426
Width: 342
Flags: W
LayerCount: 2
Fore
SplineSet
88 785 m 0,0,1
 89 833 89 833 120.5 879.5 c 128,-1,2
 152 926 152 926 192 945 c 1,3,-1
 215 902 l 1,4,5
 204 896 204 896 187.5 878 c 128,-1,6
 171 860 171 860 164 833 c 1,7,8
 212 812 212 812 210 773 c 0,9,10
 210 750 210 750 193 732 c 128,-1,11
 176 714 176 714 151 714 c 0,12,13
 122 714 122 714 105 736.5 c 128,-1,14
 88 759 88 759 88 785 c 0,0,1
EndSplineSet
EndChar

